<svg width="1920" height="6" viewBox="0 0 1920 6" fill="none" xmlns="http://www.w3.org/2000/svg">
<g clip-path="url(#clip0_4252_2095)">
<rect width="3" height="3" fill="white" fill-opacity="0.05"/>
<rect x="6" width="3" height="3" fill="white" fill-opacity="0.05"/>
<rect x="12" width="3" height="3" fill="white" fill-opacity="0.05"/>
<rect x="18" width="3" height="3" fill="white" fill-opacity="0.05"/>
<rect x="24" width="3" height="3" fill="white" fill-opacity="0.05"/>
<rect x="30" width="3" height="3" fill="white" fill-opacity="0.05"/>
<rect x="36" width="3" height="3" fill="white" fill-opacity="0.05"/>
<rect x="42" width="3" height="3" fill="white" fill-opacity="0.05"/>
<rect x="48" width="3" height="3" fill="white" fill-opacity="0.05"/>
<rect x="54" width="3" height="3" fill="white" fill-opacity="0.05"/>
<rect x="60" width="3" height="3" fill="white" fill-opacity="0.05"/>
<rect x="66" width="3" height="3" fill="white" fill-opacity="0.05"/>
<rect x="72" width="3" height="3" fill="white" fill-opacity="0.05"/>
<rect x="78" width="3" height="3" fill="white" fill-opacity="0.05"/>
<rect x="84" width="3" height="3" fill="white" fill-opacity="0.05"/>
<rect x="90" width="3" height="3" fill="white" fill-opacity="0.05"/>
<rect x="96" width="3" height="3" fill="white" fill-opacity="0.05"/>
<rect x="102" width="3" height="3" fill="white" fill-opacity="0.05"/>
<rect x="108" width="3" height="3" fill="white" fill-opacity="0.05"/>
<rect x="114" width="3" height="3" fill="white" fill-opacity="0.05"/>
<rect x="120" width="3" height="3" fill="white" fill-opacity="0.05"/>
<rect x="126" width="3" height="3" fill="white" fill-opacity="0.05"/>
<rect x="132" width="3" height="3" fill="white" fill-opacity="0.05"/>
<rect x="138" width="3" height="3" fill="white" fill-opacity="0.05"/>
<rect x="144" width="3" height="3" fill="white" fill-opacity="0.05"/>
<rect x="150" width="3" height="3" fill="white" fill-opacity="0.05"/>
<rect x="156" width="3" height="3" fill="white" fill-opacity="0.05"/>
<rect x="162" width="3" height="3" fill="white" fill-opacity="0.05"/>
<rect x="168" width="3" height="3" fill="white" fill-opacity="0.05"/>
<rect x="174" width="3" height="3" fill="white" fill-opacity="0.05"/>
<rect x="180" width="3" height="3" fill="white" fill-opacity="0.05"/>
<rect x="186" width="3" height="3" fill="white" fill-opacity="0.05"/>
<rect x="192" width="3" height="3" fill="white" fill-opacity="0.05"/>
<rect x="198" width="3" height="3" fill="white" fill-opacity="0.05"/>
<rect x="204" width="3" height="3" fill="white" fill-opacity="0.05"/>
<rect x="210" width="3" height="3" fill="white" fill-opacity="0.05"/>
<rect x="216" width="3" height="3" fill="white" fill-opacity="0.05"/>
<rect x="222" width="3" height="3" fill="white" fill-opacity="0.05"/>
<rect x="228" width="3" height="3" fill="white" fill-opacity="0.05"/>
<rect x="234" width="3" height="3" fill="white" fill-opacity="0.05"/>
<rect x="240" width="3" height="3" fill="white" fill-opacity="0.05"/>
<rect x="246" width="3" height="3" fill="white" fill-opacity="0.05"/>
<rect x="252" width="3" height="3" fill="white" fill-opacity="0.05"/>
<rect x="258" width="3" height="3" fill="white" fill-opacity="0.05"/>
<rect x="264" width="3" height="3" fill="white" fill-opacity="0.05"/>
<rect x="270" width="3" height="3" fill="white" fill-opacity="0.05"/>
<rect x="276" width="3" height="3" fill="white" fill-opacity="0.05"/>
<rect x="282" width="3" height="3" fill="white" fill-opacity="0.05"/>
<rect x="288" width="3" height="3" fill="white" fill-opacity="0.05"/>
<rect x="294" width="3" height="3" fill="white" fill-opacity="0.05"/>
<rect x="300" width="3" height="3" fill="white" fill-opacity="0.05"/>
<rect x="306" width="3" height="3" fill="white" fill-opacity="0.05"/>
<rect x="312" width="3" height="3" fill="white" fill-opacity="0.05"/>
<rect x="318" width="3" height="3" fill="white" fill-opacity="0.05"/>
<rect x="324" width="3" height="3" fill="white" fill-opacity="0.05"/>
<rect x="330" width="3" height="3" fill="white" fill-opacity="0.05"/>
<rect x="336" width="3" height="3" fill="white" fill-opacity="0.05"/>
<rect x="342" width="3" height="3" fill="white" fill-opacity="0.05"/>
<rect x="348" width="3" height="3" fill="white" fill-opacity="0.05"/>
<rect x="354" width="3" height="3" fill="white" fill-opacity="0.05"/>
<rect x="360" width="3" height="3" fill="white" fill-opacity="0.05"/>
<rect x="366" width="3" height="3" fill="white" fill-opacity="0.05"/>
<rect x="372" width="3" height="3" fill="white" fill-opacity="0.05"/>
<rect x="378" width="3" height="3" fill="white" fill-opacity="0.05"/>
<rect x="384" width="3" height="3" fill="white" fill-opacity="0.05"/>
<rect x="390" width="3" height="3" fill="white" fill-opacity="0.05"/>
<rect x="396" width="3" height="3" fill="white" fill-opacity="0.05"/>
<rect x="402" width="3" height="3" fill="white" fill-opacity="0.05"/>
<rect x="408" width="3" height="3" fill="white" fill-opacity="0.05"/>
<rect x="414" width="3" height="3" fill="white" fill-opacity="0.05"/>
<rect x="420" width="3" height="3" fill="white" fill-opacity="0.05"/>
<rect x="426" width="3" height="3" fill="white" fill-opacity="0.05"/>
<rect x="432" width="3" height="3" fill="white" fill-opacity="0.05"/>
<rect x="438" width="3" height="3" fill="white" fill-opacity="0.05"/>
<rect x="444" width="3" height="3" fill="white" fill-opacity="0.05"/>
<rect x="450" width="3" height="3" fill="white" fill-opacity="0.05"/>
<rect x="456" width="3" height="3" fill="white" fill-opacity="0.05"/>
<rect x="462" width="3" height="3" fill="white" fill-opacity="0.05"/>
<rect x="468" width="3" height="3" fill="white" fill-opacity="0.05"/>
<rect x="474" width="3" height="3" fill="white" fill-opacity="0.05"/>
<rect x="480" width="3" height="3" fill="white" fill-opacity="0.05"/>
<rect x="486" width="3" height="3" fill="white" fill-opacity="0.05"/>
<rect x="492" width="3" height="3" fill="white" fill-opacity="0.05"/>
<rect x="498" width="3" height="3" fill="white" fill-opacity="0.05"/>
<rect x="504" width="3" height="3" fill="white" fill-opacity="0.05"/>
<rect x="510" width="3" height="3" fill="white" fill-opacity="0.05"/>
<rect x="516" width="3" height="3" fill="white" fill-opacity="0.05"/>
<rect x="522" width="3" height="3" fill="white" fill-opacity="0.05"/>
<rect x="528" width="3" height="3" fill="white" fill-opacity="0.05"/>
<rect x="534" width="3" height="3" fill="white" fill-opacity="0.05"/>
<rect x="540" width="3" height="3" fill="white" fill-opacity="0.05"/>
<rect x="546" width="3" height="3" fill="white" fill-opacity="0.05"/>
<rect x="552" width="3" height="3" fill="white" fill-opacity="0.05"/>
<rect x="558" width="3" height="3" fill="white" fill-opacity="0.05"/>
<rect x="564" width="3" height="3" fill="white" fill-opacity="0.05"/>
<rect x="570" width="3" height="3" fill="white" fill-opacity="0.05"/>
<rect x="576" width="3" height="3" fill="white" fill-opacity="0.05"/>
<rect x="582" width="3" height="3" fill="white" fill-opacity="0.05"/>
<rect x="588" width="3" height="3" fill="white" fill-opacity="0.05"/>
<rect x="594" width="3" height="3" fill="white" fill-opacity="0.05"/>
<rect x="600" width="3" height="3" fill="white" fill-opacity="0.05"/>
<rect x="606" width="3" height="3" fill="white" fill-opacity="0.05"/>
<rect x="612" width="3" height="3" fill="white" fill-opacity="0.05"/>
<rect x="618" width="3" height="3" fill="white" fill-opacity="0.05"/>
<rect x="624" width="3" height="3" fill="white" fill-opacity="0.05"/>
<rect x="630" width="3" height="3" fill="white" fill-opacity="0.05"/>
<rect x="636" width="3" height="3" fill="white" fill-opacity="0.05"/>
<rect x="642" width="3" height="3" fill="white" fill-opacity="0.05"/>
<rect x="648" width="3" height="3" fill="white" fill-opacity="0.05"/>
<rect x="654" width="3" height="3" fill="white" fill-opacity="0.05"/>
<rect x="660" width="3" height="3" fill="white" fill-opacity="0.05"/>
<rect x="666" width="3" height="3" fill="white" fill-opacity="0.05"/>
<rect x="672" width="3" height="3" fill="white" fill-opacity="0.05"/>
<rect x="678" width="3" height="3" fill="white" fill-opacity="0.05"/>
<rect x="684" width="3" height="3" fill="white" fill-opacity="0.05"/>
<rect x="690" width="3" height="3" fill="white" fill-opacity="0.05"/>
<rect x="696" width="3" height="3" fill="white" fill-opacity="0.05"/>
<rect x="702" width="3" height="3" fill="white" fill-opacity="0.05"/>
<rect x="708" width="3" height="3" fill="white" fill-opacity="0.05"/>
<rect x="714" width="3" height="3" fill="white" fill-opacity="0.05"/>
<rect x="720" width="3" height="3" fill="white" fill-opacity="0.05"/>
<rect x="726" width="3" height="3" fill="white" fill-opacity="0.05"/>
<rect x="732" width="3" height="3" fill="white" fill-opacity="0.05"/>
<rect x="738" width="3" height="3" fill="white" fill-opacity="0.05"/>
<rect x="744" width="3" height="3" fill="white" fill-opacity="0.05"/>
<rect x="750" width="3" height="3" fill="white" fill-opacity="0.05"/>
<rect x="756" width="3" height="3" fill="white" fill-opacity="0.05"/>
<rect x="762" width="3" height="3" fill="white" fill-opacity="0.05"/>
<rect x="768" width="3" height="3" fill="white" fill-opacity="0.05"/>
<rect x="774" width="3" height="3" fill="white" fill-opacity="0.05"/>
<rect x="780" width="3" height="3" fill="white" fill-opacity="0.05"/>
<rect x="786" width="3" height="3" fill="white" fill-opacity="0.05"/>
<rect x="792" width="3" height="3" fill="white" fill-opacity="0.05"/>
<rect x="798" width="3" height="3" fill="white" fill-opacity="0.05"/>
<rect x="804" width="3" height="3" fill="white" fill-opacity="0.05"/>
<rect x="810" width="3" height="3" fill="white" fill-opacity="0.05"/>
<rect x="816" width="3" height="3" fill="white" fill-opacity="0.05"/>
<rect x="822" width="3" height="3" fill="white" fill-opacity="0.05"/>
<rect x="828" width="3" height="3" fill="white" fill-opacity="0.05"/>
<rect x="834" width="3" height="3" fill="white" fill-opacity="0.05"/>
<rect x="840" width="3" height="3" fill="white" fill-opacity="0.05"/>
<rect x="846" width="3" height="3" fill="white" fill-opacity="0.05"/>
<rect x="852" width="3" height="3" fill="white" fill-opacity="0.05"/>
<rect x="858" width="3" height="3" fill="white" fill-opacity="0.05"/>
<rect x="864" width="3" height="3" fill="white" fill-opacity="0.05"/>
<rect x="870" width="3" height="3" fill="white" fill-opacity="0.05"/>
<rect x="876" width="3" height="3" fill="white" fill-opacity="0.05"/>
<rect x="882" width="3" height="3" fill="white" fill-opacity="0.05"/>
<rect x="888" width="3" height="3" fill="white" fill-opacity="0.05"/>
<rect x="894" width="3" height="3" fill="white" fill-opacity="0.05"/>
<rect x="900" width="3" height="3" fill="white" fill-opacity="0.05"/>
<rect x="906" width="3" height="3" fill="white" fill-opacity="0.05"/>
<rect x="912" width="3" height="3" fill="white" fill-opacity="0.05"/>
<rect x="918" width="3" height="3" fill="white" fill-opacity="0.05"/>
<rect x="924" width="3" height="3" fill="white" fill-opacity="0.05"/>
<rect x="930" width="3" height="3" fill="white" fill-opacity="0.05"/>
<rect x="936" width="3" height="3" fill="white" fill-opacity="0.05"/>
<rect x="942" width="3" height="3" fill="white" fill-opacity="0.05"/>
<rect x="948" width="3" height="3" fill="white" fill-opacity="0.05"/>
<rect x="954" width="3" height="3" fill="white" fill-opacity="0.05"/>
<rect x="960" width="3" height="3" fill="white" fill-opacity="0.05"/>
<rect x="966" width="3" height="3" fill="white" fill-opacity="0.05"/>
<rect x="972" width="3" height="3" fill="white" fill-opacity="0.05"/>
<rect x="978" width="3" height="3" fill="white" fill-opacity="0.05"/>
<rect x="984" width="3" height="3" fill="white" fill-opacity="0.05"/>
<rect x="990" width="3" height="3" fill="white" fill-opacity="0.05"/>
<rect x="996" width="3" height="3" fill="white" fill-opacity="0.05"/>
<rect x="1002" width="3" height="3" fill="white" fill-opacity="0.05"/>
<rect x="1008" width="3" height="3" fill="white" fill-opacity="0.05"/>
<rect x="1014" width="3" height="3" fill="white" fill-opacity="0.05"/>
<rect x="1020" width="3" height="3" fill="white" fill-opacity="0.05"/>
<rect x="1026" width="3" height="3" fill="white" fill-opacity="0.05"/>
<rect x="1032" width="3" height="3" fill="white" fill-opacity="0.05"/>
<rect x="1038" width="3" height="3" fill="white" fill-opacity="0.05"/>
<rect x="1044" width="3" height="3" fill="white" fill-opacity="0.05"/>
<rect x="1050" width="3" height="3" fill="white" fill-opacity="0.05"/>
<rect x="1056" width="3" height="3" fill="white" fill-opacity="0.05"/>
<rect x="1062" width="3" height="3" fill="white" fill-opacity="0.05"/>
<rect x="1068" width="3" height="3" fill="white" fill-opacity="0.05"/>
<rect x="1074" width="3" height="3" fill="white" fill-opacity="0.05"/>
<rect x="1080" width="3" height="3" fill="white" fill-opacity="0.05"/>
<rect x="1086" width="3" height="3" fill="white" fill-opacity="0.05"/>
<rect x="1092" width="3" height="3" fill="white" fill-opacity="0.05"/>
<rect x="1098" width="3" height="3" fill="white" fill-opacity="0.05"/>
<rect x="1104" width="3" height="3" fill="white" fill-opacity="0.05"/>
<rect x="1110" width="3" height="3" fill="white" fill-opacity="0.05"/>
<rect x="1116" width="3" height="3" fill="white" fill-opacity="0.05"/>
<rect x="1122" width="3" height="3" fill="white" fill-opacity="0.05"/>
<rect x="1128" width="3" height="3" fill="white" fill-opacity="0.05"/>
<rect x="1134" width="3" height="3" fill="white" fill-opacity="0.05"/>
<rect x="1140" width="3" height="3" fill="white" fill-opacity="0.05"/>
<rect x="1146" width="3" height="3" fill="white" fill-opacity="0.05"/>
<rect x="1152" width="3" height="3" fill="white" fill-opacity="0.05"/>
<rect x="1158" width="3" height="3" fill="white" fill-opacity="0.05"/>
<rect x="1164" width="3" height="3" fill="white" fill-opacity="0.05"/>
<rect x="1170" width="3" height="3" fill="white" fill-opacity="0.05"/>
<rect x="1176" width="3" height="3" fill="white" fill-opacity="0.05"/>
<rect x="1182" width="3" height="3" fill="white" fill-opacity="0.05"/>
<rect x="1188" width="3" height="3" fill="white" fill-opacity="0.05"/>
<rect x="1194" width="3" height="3" fill="white" fill-opacity="0.05"/>
<rect x="1200" width="3" height="3" fill="white" fill-opacity="0.05"/>
<rect x="1206" width="3" height="3" fill="white" fill-opacity="0.05"/>
<rect x="1212" width="3" height="3" fill="white" fill-opacity="0.05"/>
<rect x="1218" width="3" height="3" fill="white" fill-opacity="0.05"/>
<rect x="1224" width="3" height="3" fill="white" fill-opacity="0.05"/>
<rect x="1230" width="3" height="3" fill="white" fill-opacity="0.05"/>
<rect x="1236" width="3" height="3" fill="white" fill-opacity="0.05"/>
<rect x="1242" width="3" height="3" fill="white" fill-opacity="0.05"/>
<rect x="1248" width="3" height="3" fill="white" fill-opacity="0.05"/>
<rect x="1254" width="3" height="3" fill="white" fill-opacity="0.05"/>
<rect x="1260" width="3" height="3" fill="white" fill-opacity="0.05"/>
<rect x="1266" width="3" height="3" fill="white" fill-opacity="0.05"/>
<rect x="1272" width="3" height="3" fill="white" fill-opacity="0.05"/>
<rect x="1278" width="3" height="3" fill="white" fill-opacity="0.05"/>
<rect x="1284" width="3" height="3" fill="white" fill-opacity="0.05"/>
<rect x="1290" width="3" height="3" fill="white" fill-opacity="0.05"/>
<rect x="1296" width="3" height="3" fill="white" fill-opacity="0.05"/>
<rect x="1302" width="3" height="3" fill="white" fill-opacity="0.05"/>
<rect x="1308" width="3" height="3" fill="white" fill-opacity="0.05"/>
<rect x="1314" width="3" height="3" fill="white" fill-opacity="0.05"/>
<rect x="1320" width="3" height="3" fill="white" fill-opacity="0.05"/>
<rect x="1326" width="3" height="3" fill="white" fill-opacity="0.05"/>
<rect x="1332" width="3" height="3" fill="white" fill-opacity="0.05"/>
<rect x="1338" width="3" height="3" fill="white" fill-opacity="0.05"/>
<rect x="1344" width="3" height="3" fill="white" fill-opacity="0.05"/>
<rect x="1350" width="3" height="3" fill="white" fill-opacity="0.05"/>
<rect x="1356" width="3" height="3" fill="white" fill-opacity="0.05"/>
<rect x="1362" width="3" height="3" fill="white" fill-opacity="0.05"/>
<rect x="1368" width="3" height="3" fill="white" fill-opacity="0.05"/>
<rect x="1374" width="3" height="3" fill="white" fill-opacity="0.05"/>
<rect x="1380" width="3" height="3" fill="white" fill-opacity="0.05"/>
<rect x="1386" width="3" height="3" fill="white" fill-opacity="0.05"/>
<rect x="1392" width="3" height="3" fill="white" fill-opacity="0.05"/>
<rect x="1398" width="3" height="3" fill="white" fill-opacity="0.05"/>
<rect x="1404" width="3" height="3" fill="white" fill-opacity="0.05"/>
<rect x="1410" width="3" height="3" fill="white" fill-opacity="0.05"/>
<rect x="1416" width="3" height="3" fill="white" fill-opacity="0.05"/>
<rect x="1422" width="3" height="3" fill="white" fill-opacity="0.05"/>
<rect x="1428" width="3" height="3" fill="white" fill-opacity="0.05"/>
<rect x="1434" width="3" height="3" fill="white" fill-opacity="0.05"/>
<rect x="1440" width="3" height="3" fill="white" fill-opacity="0.05"/>
<rect x="1446" width="3" height="3" fill="white" fill-opacity="0.05"/>
<rect x="1452" width="3" height="3" fill="white" fill-opacity="0.05"/>
<rect x="1458" width="3" height="3" fill="white" fill-opacity="0.05"/>
<rect x="1464" width="3" height="3" fill="white" fill-opacity="0.05"/>
<rect x="1470" width="3" height="3" fill="white" fill-opacity="0.05"/>
<rect x="1476" width="3" height="3" fill="white" fill-opacity="0.05"/>
<rect x="1482" width="3" height="3" fill="white" fill-opacity="0.05"/>
<rect x="1488" width="3" height="3" fill="white" fill-opacity="0.05"/>
<rect x="1494" width="3" height="3" fill="white" fill-opacity="0.05"/>
<rect x="1500" width="3" height="3" fill="white" fill-opacity="0.05"/>
<rect x="1506" width="3" height="3" fill="white" fill-opacity="0.05"/>
<rect x="1512" width="3" height="3" fill="white" fill-opacity="0.05"/>
<rect x="1518" width="3" height="3" fill="white" fill-opacity="0.05"/>
<rect x="1524" width="3" height="3" fill="white" fill-opacity="0.05"/>
<rect x="1530" width="3" height="3" fill="white" fill-opacity="0.05"/>
<rect x="1536" width="3" height="3" fill="white" fill-opacity="0.05"/>
<rect x="1542" width="3" height="3" fill="white" fill-opacity="0.05"/>
<rect x="1548" width="3" height="3" fill="white" fill-opacity="0.05"/>
<rect x="1554" width="3" height="3" fill="white" fill-opacity="0.05"/>
<rect x="1560" width="3" height="3" fill="white" fill-opacity="0.05"/>
<rect x="1566" width="3" height="3" fill="white" fill-opacity="0.05"/>
<rect x="1572" width="3" height="3" fill="white" fill-opacity="0.05"/>
<rect x="1578" width="3" height="3" fill="white" fill-opacity="0.05"/>
<rect x="1584" width="3" height="3" fill="white" fill-opacity="0.05"/>
<rect x="1590" width="3" height="3" fill="white" fill-opacity="0.05"/>
<rect x="1596" width="3" height="3" fill="white" fill-opacity="0.05"/>
<rect x="1602" width="3" height="3" fill="white" fill-opacity="0.05"/>
<rect x="1608" width="3" height="3" fill="white" fill-opacity="0.05"/>
<rect x="1614" width="3" height="3" fill="white" fill-opacity="0.05"/>
<rect x="1620" width="3" height="3" fill="white" fill-opacity="0.05"/>
<rect x="1626" width="3" height="3" fill="white" fill-opacity="0.05"/>
<rect x="1632" width="3" height="3" fill="white" fill-opacity="0.05"/>
<rect x="1638" width="3" height="3" fill="white" fill-opacity="0.05"/>
<rect x="1644" width="3" height="3" fill="white" fill-opacity="0.05"/>
<rect x="1650" width="3" height="3" fill="white" fill-opacity="0.05"/>
<rect x="1656" width="3" height="3" fill="white" fill-opacity="0.05"/>
<rect x="1662" width="3" height="3" fill="white" fill-opacity="0.05"/>
<rect x="1668" width="3" height="3" fill="white" fill-opacity="0.05"/>
<rect x="1674" width="3" height="3" fill="white" fill-opacity="0.05"/>
<rect x="1680" width="3" height="3" fill="white" fill-opacity="0.05"/>
<rect x="1686" width="3" height="3" fill="white" fill-opacity="0.05"/>
<rect x="1692" width="3" height="3" fill="white" fill-opacity="0.05"/>
<rect x="1698" width="3" height="3" fill="white" fill-opacity="0.05"/>
<rect x="1704" width="3" height="3" fill="white" fill-opacity="0.05"/>
<rect x="1710" width="3" height="3" fill="white" fill-opacity="0.05"/>
<rect x="1716" width="3" height="3" fill="white" fill-opacity="0.05"/>
<rect x="1722" width="3" height="3" fill="white" fill-opacity="0.05"/>
<rect x="1728" width="3" height="3" fill="white" fill-opacity="0.05"/>
<rect x="1734" width="3" height="3" fill="white" fill-opacity="0.05"/>
<rect x="1740" width="3" height="3" fill="white" fill-opacity="0.05"/>
<rect x="1746" width="3" height="3" fill="white" fill-opacity="0.05"/>
<rect x="1752" width="3" height="3" fill="white" fill-opacity="0.05"/>
<rect x="1758" width="3" height="3" fill="white" fill-opacity="0.05"/>
<rect x="1764" width="3" height="3" fill="white" fill-opacity="0.05"/>
<rect x="1770" width="3" height="3" fill="white" fill-opacity="0.05"/>
<rect x="1776" width="3" height="3" fill="white" fill-opacity="0.05"/>
<rect x="1782" width="3" height="3" fill="white" fill-opacity="0.05"/>
<rect x="1788" width="3" height="3" fill="white" fill-opacity="0.05"/>
<rect x="1794" width="3" height="3" fill="white" fill-opacity="0.05"/>
<rect x="1800" width="3" height="3" fill="white" fill-opacity="0.05"/>
<rect x="1806" width="3" height="3" fill="white" fill-opacity="0.05"/>
<rect x="1812" width="3" height="3" fill="white" fill-opacity="0.05"/>
<rect x="1818" width="3" height="3" fill="white" fill-opacity="0.05"/>
<rect x="1824" width="3" height="3" fill="white" fill-opacity="0.05"/>
<rect x="1830" width="3" height="3" fill="white" fill-opacity="0.05"/>
<rect x="1836" width="3" height="3" fill="white" fill-opacity="0.05"/>
<rect x="1842" width="3" height="3" fill="white" fill-opacity="0.05"/>
<rect x="1848" width="3" height="3" fill="white" fill-opacity="0.05"/>
<rect x="1854" width="3" height="3" fill="white" fill-opacity="0.05"/>
<rect x="1860" width="3" height="3" fill="white" fill-opacity="0.05"/>
<rect x="1866" width="3" height="3" fill="white" fill-opacity="0.05"/>
<rect x="1872" width="3" height="3" fill="white" fill-opacity="0.05"/>
<rect x="1878" width="3" height="3" fill="white" fill-opacity="0.05"/>
<rect x="1884" width="3" height="3" fill="white" fill-opacity="0.05"/>
<rect x="1890" width="3" height="3" fill="white" fill-opacity="0.05"/>
<rect x="1896" width="3" height="3" fill="white" fill-opacity="0.05"/>
<rect x="1902" width="3" height="3" fill="white" fill-opacity="0.05"/>
<rect x="1908" width="3" height="3" fill="white" fill-opacity="0.05"/>
<rect x="1914" width="3" height="3" fill="white" fill-opacity="0.05"/>
</g>
<g clip-path="url(#clip1_4252_2095)">
<rect x="3" y="3" width="3" height="3" fill="white" fill-opacity="0.05"/>
<rect x="9" y="3" width="3" height="3" fill="white" fill-opacity="0.05"/>
<rect x="15" y="3" width="3" height="3" fill="white" fill-opacity="0.05"/>
<rect x="21" y="3" width="3" height="3" fill="white" fill-opacity="0.05"/>
<rect x="27" y="3" width="3" height="3" fill="white" fill-opacity="0.05"/>
<rect x="33" y="3" width="3" height="3" fill="white" fill-opacity="0.05"/>
<rect x="39" y="3" width="3" height="3" fill="white" fill-opacity="0.05"/>
<rect x="45" y="3" width="3" height="3" fill="white" fill-opacity="0.05"/>
<rect x="51" y="3" width="3" height="3" fill="white" fill-opacity="0.05"/>
<rect x="57" y="3" width="3" height="3" fill="white" fill-opacity="0.05"/>
<rect x="63" y="3" width="3" height="3" fill="white" fill-opacity="0.05"/>
<rect x="69" y="3" width="3" height="3" fill="white" fill-opacity="0.05"/>
<rect x="75" y="3" width="3" height="3" fill="white" fill-opacity="0.05"/>
<rect x="81" y="3" width="3" height="3" fill="white" fill-opacity="0.05"/>
<rect x="87" y="3" width="3" height="3" fill="white" fill-opacity="0.05"/>
<rect x="93" y="3" width="3" height="3" fill="white" fill-opacity="0.05"/>
<rect x="99" y="3" width="3" height="3" fill="white" fill-opacity="0.05"/>
<rect x="105" y="3" width="3" height="3" fill="white" fill-opacity="0.05"/>
<rect x="111" y="3" width="3" height="3" fill="white" fill-opacity="0.05"/>
<rect x="117" y="3" width="3" height="3" fill="white" fill-opacity="0.05"/>
<rect x="123" y="3" width="3" height="3" fill="white" fill-opacity="0.05"/>
<rect x="129" y="3" width="3" height="3" fill="white" fill-opacity="0.05"/>
<rect x="135" y="3" width="3" height="3" fill="white" fill-opacity="0.05"/>
<rect x="141" y="3" width="3" height="3" fill="white" fill-opacity="0.05"/>
<rect x="147" y="3" width="3" height="3" fill="white" fill-opacity="0.05"/>
<rect x="153" y="3" width="3" height="3" fill="white" fill-opacity="0.05"/>
<rect x="159" y="3" width="3" height="3" fill="white" fill-opacity="0.05"/>
<rect x="165" y="3" width="3" height="3" fill="white" fill-opacity="0.05"/>
<rect x="171" y="3" width="3" height="3" fill="white" fill-opacity="0.05"/>
<rect x="177" y="3" width="3" height="3" fill="white" fill-opacity="0.05"/>
<rect x="183" y="3" width="3" height="3" fill="white" fill-opacity="0.05"/>
<rect x="189" y="3" width="3" height="3" fill="white" fill-opacity="0.05"/>
<rect x="195" y="3" width="3" height="3" fill="white" fill-opacity="0.05"/>
<rect x="201" y="3" width="3" height="3" fill="white" fill-opacity="0.05"/>
<rect x="207" y="3" width="3" height="3" fill="white" fill-opacity="0.05"/>
<rect x="213" y="3" width="3" height="3" fill="white" fill-opacity="0.05"/>
<rect x="219" y="3" width="3" height="3" fill="white" fill-opacity="0.05"/>
<rect x="225" y="3" width="3" height="3" fill="white" fill-opacity="0.05"/>
<rect x="231" y="3" width="3" height="3" fill="white" fill-opacity="0.05"/>
<rect x="237" y="3" width="3" height="3" fill="white" fill-opacity="0.05"/>
<rect x="243" y="3" width="3" height="3" fill="white" fill-opacity="0.05"/>
<rect x="249" y="3" width="3" height="3" fill="white" fill-opacity="0.05"/>
<rect x="255" y="3" width="3" height="3" fill="white" fill-opacity="0.05"/>
<rect x="261" y="3" width="3" height="3" fill="white" fill-opacity="0.05"/>
<rect x="267" y="3" width="3" height="3" fill="white" fill-opacity="0.05"/>
<rect x="273" y="3" width="3" height="3" fill="white" fill-opacity="0.05"/>
<rect x="279" y="3" width="3" height="3" fill="white" fill-opacity="0.05"/>
<rect x="285" y="3" width="3" height="3" fill="white" fill-opacity="0.05"/>
<rect x="291" y="3" width="3" height="3" fill="white" fill-opacity="0.05"/>
<rect x="297" y="3" width="3" height="3" fill="white" fill-opacity="0.05"/>
<rect x="303" y="3" width="3" height="3" fill="white" fill-opacity="0.05"/>
<rect x="309" y="3" width="3" height="3" fill="white" fill-opacity="0.05"/>
<rect x="315" y="3" width="3" height="3" fill="white" fill-opacity="0.05"/>
<rect x="321" y="3" width="3" height="3" fill="white" fill-opacity="0.05"/>
<rect x="327" y="3" width="3" height="3" fill="white" fill-opacity="0.05"/>
<rect x="333" y="3" width="3" height="3" fill="white" fill-opacity="0.05"/>
<rect x="339" y="3" width="3" height="3" fill="white" fill-opacity="0.05"/>
<rect x="345" y="3" width="3" height="3" fill="white" fill-opacity="0.05"/>
<rect x="351" y="3" width="3" height="3" fill="white" fill-opacity="0.05"/>
<rect x="357" y="3" width="3" height="3" fill="white" fill-opacity="0.05"/>
<rect x="363" y="3" width="3" height="3" fill="white" fill-opacity="0.05"/>
<rect x="369" y="3" width="3" height="3" fill="white" fill-opacity="0.05"/>
<rect x="375" y="3" width="3" height="3" fill="white" fill-opacity="0.05"/>
<rect x="381" y="3" width="3" height="3" fill="white" fill-opacity="0.05"/>
<rect x="387" y="3" width="3" height="3" fill="white" fill-opacity="0.05"/>
<rect x="393" y="3" width="3" height="3" fill="white" fill-opacity="0.05"/>
<rect x="399" y="3" width="3" height="3" fill="white" fill-opacity="0.05"/>
<rect x="405" y="3" width="3" height="3" fill="white" fill-opacity="0.05"/>
<rect x="411" y="3" width="3" height="3" fill="white" fill-opacity="0.05"/>
<rect x="417" y="3" width="3" height="3" fill="white" fill-opacity="0.05"/>
<rect x="423" y="3" width="3" height="3" fill="white" fill-opacity="0.05"/>
<rect x="429" y="3" width="3" height="3" fill="white" fill-opacity="0.05"/>
<rect x="435" y="3" width="3" height="3" fill="white" fill-opacity="0.05"/>
<rect x="441" y="3" width="3" height="3" fill="white" fill-opacity="0.05"/>
<rect x="447" y="3" width="3" height="3" fill="white" fill-opacity="0.05"/>
<rect x="453" y="3" width="3" height="3" fill="white" fill-opacity="0.05"/>
<rect x="459" y="3" width="3" height="3" fill="white" fill-opacity="0.05"/>
<rect x="465" y="3" width="3" height="3" fill="white" fill-opacity="0.05"/>
<rect x="471" y="3" width="3" height="3" fill="white" fill-opacity="0.05"/>
<rect x="477" y="3" width="3" height="3" fill="white" fill-opacity="0.05"/>
<rect x="483" y="3" width="3" height="3" fill="white" fill-opacity="0.05"/>
<rect x="489" y="3" width="3" height="3" fill="white" fill-opacity="0.05"/>
<rect x="495" y="3" width="3" height="3" fill="white" fill-opacity="0.05"/>
<rect x="501" y="3" width="3" height="3" fill="white" fill-opacity="0.05"/>
<rect x="507" y="3" width="3" height="3" fill="white" fill-opacity="0.05"/>
<rect x="513" y="3" width="3" height="3" fill="white" fill-opacity="0.05"/>
<rect x="519" y="3" width="3" height="3" fill="white" fill-opacity="0.05"/>
<rect x="525" y="3" width="3" height="3" fill="white" fill-opacity="0.05"/>
<rect x="531" y="3" width="3" height="3" fill="white" fill-opacity="0.05"/>
<rect x="537" y="3" width="3" height="3" fill="white" fill-opacity="0.05"/>
<rect x="543" y="3" width="3" height="3" fill="white" fill-opacity="0.05"/>
<rect x="549" y="3" width="3" height="3" fill="white" fill-opacity="0.05"/>
<rect x="555" y="3" width="3" height="3" fill="white" fill-opacity="0.05"/>
<rect x="561" y="3" width="3" height="3" fill="white" fill-opacity="0.05"/>
<rect x="567" y="3" width="3" height="3" fill="white" fill-opacity="0.05"/>
<rect x="573" y="3" width="3" height="3" fill="white" fill-opacity="0.05"/>
<rect x="579" y="3" width="3" height="3" fill="white" fill-opacity="0.05"/>
<rect x="585" y="3" width="3" height="3" fill="white" fill-opacity="0.05"/>
<rect x="591" y="3" width="3" height="3" fill="white" fill-opacity="0.05"/>
<rect x="597" y="3" width="3" height="3" fill="white" fill-opacity="0.05"/>
<rect x="603" y="3" width="3" height="3" fill="white" fill-opacity="0.05"/>
<rect x="609" y="3" width="3" height="3" fill="white" fill-opacity="0.05"/>
<rect x="615" y="3" width="3" height="3" fill="white" fill-opacity="0.05"/>
<rect x="621" y="3" width="3" height="3" fill="white" fill-opacity="0.05"/>
<rect x="627" y="3" width="3" height="3" fill="white" fill-opacity="0.05"/>
<rect x="633" y="3" width="3" height="3" fill="white" fill-opacity="0.05"/>
<rect x="639" y="3" width="3" height="3" fill="white" fill-opacity="0.05"/>
<rect x="645" y="3" width="3" height="3" fill="white" fill-opacity="0.05"/>
<rect x="651" y="3" width="3" height="3" fill="white" fill-opacity="0.05"/>
<rect x="657" y="3" width="3" height="3" fill="white" fill-opacity="0.05"/>
<rect x="663" y="3" width="3" height="3" fill="white" fill-opacity="0.05"/>
<rect x="669" y="3" width="3" height="3" fill="white" fill-opacity="0.05"/>
<rect x="675" y="3" width="3" height="3" fill="white" fill-opacity="0.05"/>
<rect x="681" y="3" width="3" height="3" fill="white" fill-opacity="0.05"/>
<rect x="687" y="3" width="3" height="3" fill="white" fill-opacity="0.05"/>
<rect x="693" y="3" width="3" height="3" fill="white" fill-opacity="0.05"/>
<rect x="699" y="3" width="3" height="3" fill="white" fill-opacity="0.05"/>
<rect x="705" y="3" width="3" height="3" fill="white" fill-opacity="0.05"/>
<rect x="711" y="3" width="3" height="3" fill="white" fill-opacity="0.05"/>
<rect x="717" y="3" width="3" height="3" fill="white" fill-opacity="0.05"/>
<rect x="723" y="3" width="3" height="3" fill="white" fill-opacity="0.05"/>
<rect x="729" y="3" width="3" height="3" fill="white" fill-opacity="0.05"/>
<rect x="735" y="3" width="3" height="3" fill="white" fill-opacity="0.05"/>
<rect x="741" y="3" width="3" height="3" fill="white" fill-opacity="0.05"/>
<rect x="747" y="3" width="3" height="3" fill="white" fill-opacity="0.05"/>
<rect x="753" y="3" width="3" height="3" fill="white" fill-opacity="0.05"/>
<rect x="759" y="3" width="3" height="3" fill="white" fill-opacity="0.05"/>
<rect x="765" y="3" width="3" height="3" fill="white" fill-opacity="0.05"/>
<rect x="771" y="3" width="3" height="3" fill="white" fill-opacity="0.05"/>
<rect x="777" y="3" width="3" height="3" fill="white" fill-opacity="0.05"/>
<rect x="783" y="3" width="3" height="3" fill="white" fill-opacity="0.05"/>
<rect x="789" y="3" width="3" height="3" fill="white" fill-opacity="0.05"/>
<rect x="795" y="3" width="3" height="3" fill="white" fill-opacity="0.05"/>
<rect x="801" y="3" width="3" height="3" fill="white" fill-opacity="0.05"/>
<rect x="807" y="3" width="3" height="3" fill="white" fill-opacity="0.05"/>
<rect x="813" y="3" width="3" height="3" fill="white" fill-opacity="0.05"/>
<rect x="819" y="3" width="3" height="3" fill="white" fill-opacity="0.05"/>
<rect x="825" y="3" width="3" height="3" fill="white" fill-opacity="0.05"/>
<rect x="831" y="3" width="3" height="3" fill="white" fill-opacity="0.05"/>
<rect x="837" y="3" width="3" height="3" fill="white" fill-opacity="0.05"/>
<rect x="843" y="3" width="3" height="3" fill="white" fill-opacity="0.05"/>
<rect x="849" y="3" width="3" height="3" fill="white" fill-opacity="0.05"/>
<rect x="855" y="3" width="3" height="3" fill="white" fill-opacity="0.05"/>
<rect x="861" y="3" width="3" height="3" fill="white" fill-opacity="0.05"/>
<rect x="867" y="3" width="3" height="3" fill="white" fill-opacity="0.05"/>
<rect x="873" y="3" width="3" height="3" fill="white" fill-opacity="0.05"/>
<rect x="879" y="3" width="3" height="3" fill="white" fill-opacity="0.05"/>
<rect x="885" y="3" width="3" height="3" fill="white" fill-opacity="0.05"/>
<rect x="891" y="3" width="3" height="3" fill="white" fill-opacity="0.05"/>
<rect x="897" y="3" width="3" height="3" fill="white" fill-opacity="0.05"/>
<rect x="903" y="3" width="3" height="3" fill="white" fill-opacity="0.05"/>
<rect x="909" y="3" width="3" height="3" fill="white" fill-opacity="0.05"/>
<rect x="915" y="3" width="3" height="3" fill="white" fill-opacity="0.05"/>
<rect x="921" y="3" width="3" height="3" fill="white" fill-opacity="0.05"/>
<rect x="927" y="3" width="3" height="3" fill="white" fill-opacity="0.05"/>
<rect x="933" y="3" width="3" height="3" fill="white" fill-opacity="0.05"/>
<rect x="939" y="3" width="3" height="3" fill="white" fill-opacity="0.05"/>
<rect x="945" y="3" width="3" height="3" fill="white" fill-opacity="0.05"/>
<rect x="951" y="3" width="3" height="3" fill="white" fill-opacity="0.05"/>
<rect x="957" y="3" width="3" height="3" fill="white" fill-opacity="0.05"/>
<rect x="963" y="3" width="3" height="3" fill="white" fill-opacity="0.05"/>
<rect x="969" y="3" width="3" height="3" fill="white" fill-opacity="0.05"/>
<rect x="975" y="3" width="3" height="3" fill="white" fill-opacity="0.05"/>
<rect x="981" y="3" width="3" height="3" fill="white" fill-opacity="0.05"/>
<rect x="987" y="3" width="3" height="3" fill="white" fill-opacity="0.05"/>
<rect x="993" y="3" width="3" height="3" fill="white" fill-opacity="0.05"/>
<rect x="999" y="3" width="3" height="3" fill="white" fill-opacity="0.05"/>
<rect x="1005" y="3" width="3" height="3" fill="white" fill-opacity="0.05"/>
<rect x="1011" y="3" width="3" height="3" fill="white" fill-opacity="0.05"/>
<rect x="1017" y="3" width="3" height="3" fill="white" fill-opacity="0.05"/>
<rect x="1023" y="3" width="3" height="3" fill="white" fill-opacity="0.05"/>
<rect x="1029" y="3" width="3" height="3" fill="white" fill-opacity="0.05"/>
<rect x="1035" y="3" width="3" height="3" fill="white" fill-opacity="0.05"/>
<rect x="1041" y="3" width="3" height="3" fill="white" fill-opacity="0.05"/>
<rect x="1047" y="3" width="3" height="3" fill="white" fill-opacity="0.05"/>
<rect x="1053" y="3" width="3" height="3" fill="white" fill-opacity="0.05"/>
<rect x="1059" y="3" width="3" height="3" fill="white" fill-opacity="0.05"/>
<rect x="1065" y="3" width="3" height="3" fill="white" fill-opacity="0.05"/>
<rect x="1071" y="3" width="3" height="3" fill="white" fill-opacity="0.05"/>
<rect x="1077" y="3" width="3" height="3" fill="white" fill-opacity="0.05"/>
<rect x="1083" y="3" width="3" height="3" fill="white" fill-opacity="0.05"/>
<rect x="1089" y="3" width="3" height="3" fill="white" fill-opacity="0.05"/>
<rect x="1095" y="3" width="3" height="3" fill="white" fill-opacity="0.05"/>
<rect x="1101" y="3" width="3" height="3" fill="white" fill-opacity="0.05"/>
<rect x="1107" y="3" width="3" height="3" fill="white" fill-opacity="0.05"/>
<rect x="1113" y="3" width="3" height="3" fill="white" fill-opacity="0.05"/>
<rect x="1119" y="3" width="3" height="3" fill="white" fill-opacity="0.05"/>
<rect x="1125" y="3" width="3" height="3" fill="white" fill-opacity="0.05"/>
<rect x="1131" y="3" width="3" height="3" fill="white" fill-opacity="0.05"/>
<rect x="1137" y="3" width="3" height="3" fill="white" fill-opacity="0.05"/>
<rect x="1143" y="3" width="3" height="3" fill="white" fill-opacity="0.05"/>
<rect x="1149" y="3" width="3" height="3" fill="white" fill-opacity="0.05"/>
<rect x="1155" y="3" width="3" height="3" fill="white" fill-opacity="0.05"/>
<rect x="1161" y="3" width="3" height="3" fill="white" fill-opacity="0.05"/>
<rect x="1167" y="3" width="3" height="3" fill="white" fill-opacity="0.05"/>
<rect x="1173" y="3" width="3" height="3" fill="white" fill-opacity="0.05"/>
<rect x="1179" y="3" width="3" height="3" fill="white" fill-opacity="0.05"/>
<rect x="1185" y="3" width="3" height="3" fill="white" fill-opacity="0.05"/>
<rect x="1191" y="3" width="3" height="3" fill="white" fill-opacity="0.05"/>
<rect x="1197" y="3" width="3" height="3" fill="white" fill-opacity="0.05"/>
<rect x="1203" y="3" width="3" height="3" fill="white" fill-opacity="0.05"/>
<rect x="1209" y="3" width="3" height="3" fill="white" fill-opacity="0.05"/>
<rect x="1215" y="3" width="3" height="3" fill="white" fill-opacity="0.05"/>
<rect x="1221" y="3" width="3" height="3" fill="white" fill-opacity="0.05"/>
<rect x="1227" y="3" width="3" height="3" fill="white" fill-opacity="0.05"/>
<rect x="1233" y="3" width="3" height="3" fill="white" fill-opacity="0.05"/>
<rect x="1239" y="3" width="3" height="3" fill="white" fill-opacity="0.05"/>
<rect x="1245" y="3" width="3" height="3" fill="white" fill-opacity="0.05"/>
<rect x="1251" y="3" width="3" height="3" fill="white" fill-opacity="0.05"/>
<rect x="1257" y="3" width="3" height="3" fill="white" fill-opacity="0.05"/>
<rect x="1263" y="3" width="3" height="3" fill="white" fill-opacity="0.05"/>
<rect x="1269" y="3" width="3" height="3" fill="white" fill-opacity="0.05"/>
<rect x="1275" y="3" width="3" height="3" fill="white" fill-opacity="0.05"/>
<rect x="1281" y="3" width="3" height="3" fill="white" fill-opacity="0.05"/>
<rect x="1287" y="3" width="3" height="3" fill="white" fill-opacity="0.05"/>
<rect x="1293" y="3" width="3" height="3" fill="white" fill-opacity="0.05"/>
<rect x="1299" y="3" width="3" height="3" fill="white" fill-opacity="0.05"/>
<rect x="1305" y="3" width="3" height="3" fill="white" fill-opacity="0.05"/>
<rect x="1311" y="3" width="3" height="3" fill="white" fill-opacity="0.05"/>
<rect x="1317" y="3" width="3" height="3" fill="white" fill-opacity="0.05"/>
<rect x="1323" y="3" width="3" height="3" fill="white" fill-opacity="0.05"/>
<rect x="1329" y="3" width="3" height="3" fill="white" fill-opacity="0.05"/>
<rect x="1335" y="3" width="3" height="3" fill="white" fill-opacity="0.05"/>
<rect x="1341" y="3" width="3" height="3" fill="white" fill-opacity="0.05"/>
<rect x="1347" y="3" width="3" height="3" fill="white" fill-opacity="0.05"/>
<rect x="1353" y="3" width="3" height="3" fill="white" fill-opacity="0.05"/>
<rect x="1359" y="3" width="3" height="3" fill="white" fill-opacity="0.05"/>
<rect x="1365" y="3" width="3" height="3" fill="white" fill-opacity="0.05"/>
<rect x="1371" y="3" width="3" height="3" fill="white" fill-opacity="0.05"/>
<rect x="1377" y="3" width="3" height="3" fill="white" fill-opacity="0.05"/>
<rect x="1383" y="3" width="3" height="3" fill="white" fill-opacity="0.05"/>
<rect x="1389" y="3" width="3" height="3" fill="white" fill-opacity="0.05"/>
<rect x="1395" y="3" width="3" height="3" fill="white" fill-opacity="0.05"/>
<rect x="1401" y="3" width="3" height="3" fill="white" fill-opacity="0.05"/>
<rect x="1407" y="3" width="3" height="3" fill="white" fill-opacity="0.05"/>
<rect x="1413" y="3" width="3" height="3" fill="white" fill-opacity="0.05"/>
<rect x="1419" y="3" width="3" height="3" fill="white" fill-opacity="0.05"/>
<rect x="1425" y="3" width="3" height="3" fill="white" fill-opacity="0.05"/>
<rect x="1431" y="3" width="3" height="3" fill="white" fill-opacity="0.05"/>
<rect x="1437" y="3" width="3" height="3" fill="white" fill-opacity="0.05"/>
<rect x="1443" y="3" width="3" height="3" fill="white" fill-opacity="0.05"/>
<rect x="1449" y="3" width="3" height="3" fill="white" fill-opacity="0.05"/>
<rect x="1455" y="3" width="3" height="3" fill="white" fill-opacity="0.05"/>
<rect x="1461" y="3" width="3" height="3" fill="white" fill-opacity="0.05"/>
<rect x="1467" y="3" width="3" height="3" fill="white" fill-opacity="0.05"/>
<rect x="1473" y="3" width="3" height="3" fill="white" fill-opacity="0.05"/>
<rect x="1479" y="3" width="3" height="3" fill="white" fill-opacity="0.05"/>
<rect x="1485" y="3" width="3" height="3" fill="white" fill-opacity="0.05"/>
<rect x="1491" y="3" width="3" height="3" fill="white" fill-opacity="0.05"/>
<rect x="1497" y="3" width="3" height="3" fill="white" fill-opacity="0.05"/>
<rect x="1503" y="3" width="3" height="3" fill="white" fill-opacity="0.05"/>
<rect x="1509" y="3" width="3" height="3" fill="white" fill-opacity="0.05"/>
<rect x="1515" y="3" width="3" height="3" fill="white" fill-opacity="0.05"/>
<rect x="1521" y="3" width="3" height="3" fill="white" fill-opacity="0.05"/>
<rect x="1527" y="3" width="3" height="3" fill="white" fill-opacity="0.05"/>
<rect x="1533" y="3" width="3" height="3" fill="white" fill-opacity="0.05"/>
<rect x="1539" y="3" width="3" height="3" fill="white" fill-opacity="0.05"/>
<rect x="1545" y="3" width="3" height="3" fill="white" fill-opacity="0.05"/>
<rect x="1551" y="3" width="3" height="3" fill="white" fill-opacity="0.05"/>
<rect x="1557" y="3" width="3" height="3" fill="white" fill-opacity="0.05"/>
<rect x="1563" y="3" width="3" height="3" fill="white" fill-opacity="0.05"/>
<rect x="1569" y="3" width="3" height="3" fill="white" fill-opacity="0.05"/>
<rect x="1575" y="3" width="3" height="3" fill="white" fill-opacity="0.05"/>
<rect x="1581" y="3" width="3" height="3" fill="white" fill-opacity="0.05"/>
<rect x="1587" y="3" width="3" height="3" fill="white" fill-opacity="0.05"/>
<rect x="1593" y="3" width="3" height="3" fill="white" fill-opacity="0.05"/>
<rect x="1599" y="3" width="3" height="3" fill="white" fill-opacity="0.05"/>
<rect x="1605" y="3" width="3" height="3" fill="white" fill-opacity="0.05"/>
<rect x="1611" y="3" width="3" height="3" fill="white" fill-opacity="0.05"/>
<rect x="1617" y="3" width="3" height="3" fill="white" fill-opacity="0.05"/>
<rect x="1623" y="3" width="3" height="3" fill="white" fill-opacity="0.05"/>
<rect x="1629" y="3" width="3" height="3" fill="white" fill-opacity="0.05"/>
<rect x="1635" y="3" width="3" height="3" fill="white" fill-opacity="0.05"/>
<rect x="1641" y="3" width="3" height="3" fill="white" fill-opacity="0.05"/>
<rect x="1647" y="3" width="3" height="3" fill="white" fill-opacity="0.05"/>
<rect x="1653" y="3" width="3" height="3" fill="white" fill-opacity="0.05"/>
<rect x="1659" y="3" width="3" height="3" fill="white" fill-opacity="0.05"/>
<rect x="1665" y="3" width="3" height="3" fill="white" fill-opacity="0.05"/>
<rect x="1671" y="3" width="3" height="3" fill="white" fill-opacity="0.05"/>
<rect x="1677" y="3" width="3" height="3" fill="white" fill-opacity="0.05"/>
<rect x="1683" y="3" width="3" height="3" fill="white" fill-opacity="0.05"/>
<rect x="1689" y="3" width="3" height="3" fill="white" fill-opacity="0.05"/>
<rect x="1695" y="3" width="3" height="3" fill="white" fill-opacity="0.05"/>
<rect x="1701" y="3" width="3" height="3" fill="white" fill-opacity="0.05"/>
<rect x="1707" y="3" width="3" height="3" fill="white" fill-opacity="0.05"/>
<rect x="1713" y="3" width="3" height="3" fill="white" fill-opacity="0.05"/>
<rect x="1719" y="3" width="3" height="3" fill="white" fill-opacity="0.05"/>
<rect x="1725" y="3" width="3" height="3" fill="white" fill-opacity="0.05"/>
<rect x="1731" y="3" width="3" height="3" fill="white" fill-opacity="0.05"/>
<rect x="1737" y="3" width="3" height="3" fill="white" fill-opacity="0.05"/>
<rect x="1743" y="3" width="3" height="3" fill="white" fill-opacity="0.05"/>
<rect x="1749" y="3" width="3" height="3" fill="white" fill-opacity="0.05"/>
<rect x="1755" y="3" width="3" height="3" fill="white" fill-opacity="0.05"/>
<rect x="1761" y="3" width="3" height="3" fill="white" fill-opacity="0.05"/>
<rect x="1767" y="3" width="3" height="3" fill="white" fill-opacity="0.05"/>
<rect x="1773" y="3" width="3" height="3" fill="white" fill-opacity="0.05"/>
<rect x="1779" y="3" width="3" height="3" fill="white" fill-opacity="0.05"/>
<rect x="1785" y="3" width="3" height="3" fill="white" fill-opacity="0.05"/>
<rect x="1791" y="3" width="3" height="3" fill="white" fill-opacity="0.05"/>
<rect x="1797" y="3" width="3" height="3" fill="white" fill-opacity="0.05"/>
<rect x="1803" y="3" width="3" height="3" fill="white" fill-opacity="0.05"/>
<rect x="1809" y="3" width="3" height="3" fill="white" fill-opacity="0.05"/>
<rect x="1815" y="3" width="3" height="3" fill="white" fill-opacity="0.05"/>
<rect x="1821" y="3" width="3" height="3" fill="white" fill-opacity="0.05"/>
<rect x="1827" y="3" width="3" height="3" fill="white" fill-opacity="0.05"/>
<rect x="1833" y="3" width="3" height="3" fill="white" fill-opacity="0.05"/>
<rect x="1839" y="3" width="3" height="3" fill="white" fill-opacity="0.05"/>
<rect x="1845" y="3" width="3" height="3" fill="white" fill-opacity="0.05"/>
<rect x="1851" y="3" width="3" height="3" fill="white" fill-opacity="0.05"/>
<rect x="1857" y="3" width="3" height="3" fill="white" fill-opacity="0.05"/>
<rect x="1863" y="3" width="3" height="3" fill="white" fill-opacity="0.05"/>
<rect x="1869" y="3" width="3" height="3" fill="white" fill-opacity="0.05"/>
<rect x="1875" y="3" width="3" height="3" fill="white" fill-opacity="0.05"/>
<rect x="1881" y="3" width="3" height="3" fill="white" fill-opacity="0.05"/>
<rect x="1887" y="3" width="3" height="3" fill="white" fill-opacity="0.05"/>
<rect x="1893" y="3" width="3" height="3" fill="white" fill-opacity="0.05"/>
<rect x="1899" y="3" width="3" height="3" fill="white" fill-opacity="0.05"/>
<rect x="1905" y="3" width="3" height="3" fill="white" fill-opacity="0.05"/>
<rect x="1911" y="3" width="3" height="3" fill="white" fill-opacity="0.05"/>
<rect x="1917" y="3" width="3" height="3" fill="white" fill-opacity="0.05"/>
</g>
<defs>
<clipPath id="clip0_4252_2095">
<rect width="1917" height="3" fill="white"/>
</clipPath>
<clipPath id="clip1_4252_2095">
<rect width="1917" height="3" fill="white" transform="translate(3 3)"/>
</clipPath>
</defs>
</svg>
