<svg width="20" height="20" viewBox="0 0 20 20" fill="none" xmlns="http://www.w3.org/2000/svg">
<path d="M13.75 1.66666V4.58332M6.25 1.66666V4.58332" stroke="#F9FAFC" stroke-width="1.3" stroke-linecap="round" stroke-linejoin="round"/>
<path d="M17.5 10.4167V9.58332C17.5 6.44062 17.5 4.86928 16.5237 3.89296C15.5473 2.91666 13.976 2.91666 10.8333 2.91666H9.16667C6.02397 2.91666 4.45262 2.91666 3.47631 3.89296C2.5 4.86928 2.5 6.44062 2.5 9.58332V11.25C2.5 14.3927 2.5 15.9641 3.47631 16.9403C4.45262 17.9167 6.02397 17.9167 9.16667 17.9167" stroke="#F9FAFC" stroke-width="1.3" stroke-linecap="round" stroke-linejoin="round"/>
<path d="M2.91669 7.5H17.0834" stroke="#F9FAFC" stroke-width="1.3" stroke-linecap="round" stroke-linejoin="round"/>
<path d="M14.1666 18.3333C16.0076 18.3333 17.5 16.8409 17.5 15C17.5 13.159 16.0076 11.6667 14.1666 11.6667C12.3257 11.6667 10.8333 13.159 10.8333 15C10.8333 16.8409 12.3257 18.3333 14.1666 18.3333Z" stroke="#F9FAFC" stroke-width="1.3" stroke-linecap="round" stroke-linejoin="round"/>
<path d="M15 15.8333L14.1666 15V13.3333" stroke="#F9FAFC" stroke-width="1.3" stroke-linecap="round" stroke-linejoin="round"/>
</svg>
