<svg width="20" height="20" viewBox="0 0 20 20" fill="none" xmlns="http://www.w3.org/2000/svg">
<path fill-rule="evenodd" clip-rule="evenodd" d="M16.6135 4.70969C16.7736 5.14118 16.5536 5.62077 16.1221 5.78087C15.2398 6.10825 14.2717 6.78969 13.2917 7.69006C12.321 8.58185 11.3856 9.64435 10.565 10.6749C9.74603 11.7034 9.05145 12.6872 8.56145 13.4144C8.31675 13.7776 8.12377 14.0758 7.99254 14.2822C7.92694 14.3854 7.87682 14.4655 7.84343 14.5194L7.80607 14.5798L7.79711 14.5945L7.79511 14.5979C7.63775 14.8572 7.35144 15.0113 7.04829 14.9988C6.74509 14.9865 6.47258 14.8104 6.33687 14.5389C5.77243 13.41 5.13149 12.7836 4.665 12.4444C4.42976 12.2733 4.23389 12.1716 4.10707 12.1153C4.04358 12.087 3.99734 12.0702 3.97208 12.0616C3.96143 12.0579 3.95454 12.0558 3.95167 12.055C3.5122 11.9384 3.24647 11.49 3.35711 11.0474C3.46873 10.6009 3.92118 10.3295 4.36767 10.4411C4.38829 10.4465 4.36867 10.4414 4.36867 10.4414L4.36971 10.4416L4.37189 10.4422L4.37674 10.4434L4.38829 10.4465C4.39681 10.4489 4.40696 10.4517 4.41867 10.4551C4.44208 10.4619 4.47176 10.4712 4.50715 10.4831C4.57792 10.5071 4.67166 10.5424 4.78396 10.5923C5.00869 10.6921 5.30762 10.8508 5.64529 11.0964C6.09759 11.4254 6.61109 11.9041 7.10614 12.592C7.13001 12.5564 7.15439 12.5201 7.17928 12.4831C7.68651 11.7304 8.40745 10.7089 9.2612 9.63668C10.1134 8.5666 11.1081 7.43292 12.1641 6.46274C13.2108 5.50113 14.3659 4.65479 15.5424 4.21828C15.9739 4.05819 16.4534 4.2782 16.6135 4.70969Z" fill="white"/>
</svg>
