<svg width="20" height="20" viewBox="0 0 20 20" fill="none" xmlns="http://www.w3.org/2000/svg">
<path fill-rule="evenodd" clip-rule="evenodd" d="M16.5699 3.43009C16.9767 3.83689 16.9767 4.49644 16.5699 4.90324L4.90324 16.5699C4.49644 16.9767 3.83689 16.9767 3.4301 16.5699C3.0233 16.1631 3.0233 15.5035 3.4301 15.0968L15.0968 3.43009C15.5036 3.0233 16.1631 3.0233 16.5699 3.43009Z" fill="white"/>
<path fill-rule="evenodd" clip-rule="evenodd" d="M3.4301 3.43009C3.83689 3.0233 4.49644 3.0233 4.90324 3.43009L16.5699 15.0968C16.9767 15.5035 16.9767 16.1631 16.5699 16.5699C16.1631 16.9767 15.5036 16.9767 15.0968 16.5699L3.4301 4.90324C3.0233 4.49644 3.0233 3.83689 3.4301 3.43009Z" fill="white"/>
</svg>
