<svg width="140" height="35" viewBox="0 0 140 35" fill="none" xmlns="http://www.w3.org/2000/svg">
<mask id="mask0_4628_610" style="mask-type:luminance" maskUnits="userSpaceOnUse" x="0" y="0" width="140" height="35">
<path d="M140 0H0V34.409H140V0Z" fill="white"/>
</mask>
<g mask="url(#mask0_4628_610)">
<path d="M22.5183 17.2271C23.6609 16.2804 24.3874 14.8583 24.3874 13.2682C24.3874 11.6782 23.6609 10.2562 22.5183 9.30933C22.6493 9.24662 22.7753 9.17852 22.8954 9.10472C23.6532 8.63842 24.5476 8.36914 25.5056 8.36914C28.2399 8.36914 30.4563 10.5625 30.4563 13.2682C30.4563 15.9739 28.2399 18.1673 25.5056 18.1673C24.5476 18.1673 23.6532 17.898 22.8954 17.4318C22.7753 17.358 22.6493 17.2899 22.5183 17.2271Z" fill="white"/>
<path d="M21.1433 14.0389C21.6544 12.6537 21.5651 11.0627 20.7617 9.68565C19.9582 8.30869 18.6106 7.43661 17.1427 7.18195C17.2244 7.06284 17.2991 6.94152 17.3657 6.81821C17.7865 6.03943 18.425 5.36363 19.2547 4.8896C21.6226 3.53674 24.6505 4.33959 26.0175 6.6828C27.3846 9.02605 26.5733 12.0223 24.2054 13.3751C23.3757 13.8491 22.465 14.0585 21.5731 14.0297C21.4319 14.0251 21.2884 14.0285 21.1433 14.0389Z" fill="white"/>
<path d="M18.3417 11.961C18.0844 10.5085 17.2031 9.17474 15.8116 8.37973C14.4201 7.58472 12.8123 7.49635 11.4125 8.0021C11.4231 7.85852 11.4265 7.71648 11.4218 7.57677C11.3927 6.69414 11.6043 5.79291 12.0833 4.97186C13.4504 2.62865 16.4782 1.82581 18.8461 3.17866C21.2139 4.53151 22.0253 7.52777 20.6581 9.87102C20.1791 10.692 19.4962 11.324 18.7092 11.7403C18.5847 11.8062 18.4621 11.8802 18.3417 11.961Z" fill="white"/>
<path d="M14.864 11.5448C13.9073 10.4142 12.4702 9.69524 10.8634 9.69524C9.25665 9.69524 7.81959 10.4142 6.86285 11.5448C6.79947 11.4152 6.73064 11.2905 6.65604 11.1717C6.18485 10.4218 5.91272 9.53665 5.91272 8.58859C5.91272 5.88287 8.12921 3.68945 10.8634 3.68945C13.5976 3.68945 15.8141 5.88287 15.8141 8.58859C15.8141 9.53665 15.542 10.4218 15.0708 11.1717C14.9961 11.2905 14.9274 11.4152 14.864 11.5448Z" fill="white"/>
<path d="M11.6422 12.9064C10.2424 12.4007 8.63459 12.4891 7.24308 13.284C5.85157 14.0791 4.97032 15.4128 4.71301 16.8653C4.59265 16.7844 4.47004 16.7105 4.34543 16.6446C3.55846 16.2283 2.87554 15.5963 2.39652 14.7753C1.02942 12.432 1.84071 9.4358 4.2086 8.08297C6.57648 6.73008 9.60427 7.53296 10.9714 9.87614C11.4504 10.6972 11.662 11.5984 11.6328 12.481C11.6282 12.6207 11.6316 12.7628 11.6422 12.9064Z" fill="white"/>
<path d="M9.53894 15.6801C8.07107 15.9347 6.72336 16.8068 5.91997 18.1838C5.11659 19.5608 5.02729 21.1518 5.53836 22.537C5.39326 22.5265 5.24971 22.5232 5.10848 22.5277C4.21658 22.5566 3.30586 22.3472 2.47618 21.8732C0.108293 20.5203 -0.703003 17.5241 0.664094 15.1808C2.03119 12.8377 5.05899 12.0348 7.42685 13.3877C8.25654 13.8617 8.89516 14.5375 9.31582 15.3162C9.38251 15.4395 9.45722 15.5609 9.53894 15.6801Z" fill="white"/>
<path d="M9.11846 19.118C7.97591 20.0648 7.24935 21.4869 7.24935 23.0769C7.24935 24.6669 7.97591 26.089 9.11846 27.0358C8.98752 27.0984 8.86145 27.1666 8.74149 27.2404C7.98365 27.7067 7.08916 27.976 6.13111 27.976C3.39692 27.976 1.18042 25.7826 1.18042 23.0769C1.18042 20.3711 3.39692 18.1777 6.13111 18.1777C7.08916 18.1777 7.98365 18.447 8.74149 18.9133C8.86145 18.9872 8.98752 19.0552 9.11846 19.118Z" fill="white"/>
<path d="M10.493 22.3086C9.98183 23.6938 10.0711 25.2848 10.8745 26.6619C11.6779 28.0389 13.0256 28.9109 14.4935 29.1655C14.4118 29.2848 14.3371 29.4061 14.2705 29.5294C13.8497 30.3081 13.2112 30.9839 12.3815 31.4579C10.0136 32.8109 6.98578 32.0079 5.61869 29.6648C4.25158 27.3215 5.06289 24.3253 7.43073 22.9724C8.26049 22.4983 9.17123 22.289 10.0631 22.3179C10.2043 22.3224 10.3478 22.3191 10.493 22.3086Z" fill="white"/>
<path d="M13.2949 24.3906C13.5522 25.8431 14.4334 27.1768 15.8249 27.9718C17.2164 28.7669 18.8243 28.8552 20.2241 28.3495C20.2135 28.4931 20.2101 28.6351 20.2147 28.7749C20.2439 29.6575 20.0323 30.5587 19.5533 31.3798C18.1862 33.723 15.1584 34.5258 12.7905 33.1729C10.4226 31.8201 9.61132 28.8239 10.9785 26.4806C11.4575 25.6596 12.1404 25.0276 12.9273 24.6113C13.0519 24.5454 13.1745 24.4714 13.2949 24.3906Z" fill="white"/>
<path d="M16.7727 24.8066C17.7295 25.9373 19.1666 26.6562 20.7733 26.6562C22.3802 26.6562 23.8172 25.9373 24.7739 24.8066C24.8373 24.9362 24.9061 25.0609 24.9808 25.1796C25.4519 25.9296 25.724 26.8148 25.724 27.7628C25.724 30.4685 23.5075 32.662 20.7733 32.662C18.0391 32.662 15.8226 30.4685 15.8226 27.7628C15.8226 26.8148 16.0948 25.9296 16.566 25.1796C16.6406 25.0609 16.7094 24.9362 16.7727 24.8066Z" fill="white"/>
<path d="M19.9948 23.4451C21.3946 23.9509 23.0024 23.8625 24.3939 23.0676C25.7854 22.2725 26.6666 20.9388 26.9239 19.4863C27.0443 19.567 27.1669 19.6411 27.2916 19.707C28.0786 20.1233 28.7614 20.7553 29.2404 21.5763C30.6076 23.9195 29.7962 26.9157 27.4284 28.2686C25.0605 29.6215 22.0327 28.8186 20.6656 26.4754C20.1866 25.6544 19.975 24.7532 20.0041 23.8705C20.0088 23.7308 20.0054 23.5888 19.9948 23.4451Z" fill="white"/>
<path d="M25.7196 18.1619C25.7186 18.1637 25.7175 18.1653 25.7166 18.1671C24.9133 19.5441 23.5655 20.4162 22.0977 20.6708C22.1793 20.79 22.2541 20.9113 22.3207 21.0345C22.7414 21.8134 23.38 22.4892 24.2097 22.9632C26.5776 24.3161 29.6053 23.5132 30.9725 21.17C32.1445 19.1611 31.7154 16.6722 30.0771 15.1504C29.3573 16.8597 27.687 18.079 25.7196 18.1619Z" fill="white"/>
<path d="M43.2448 8.91133V23.5433H39.9679V8.91133H43.2448ZM40.4874 23.5433L40.5473 20.6762H49.0392V23.5433H40.4874ZM49.5521 18.5803C49.5521 17.539 49.772 16.6293 50.2115 15.8516C50.6511 15.0607 51.2705 14.4477 52.0697 14.0127C52.869 13.5778 53.8014 13.3603 54.8671 13.3603C55.9328 13.3603 56.8585 13.5778 57.6444 14.0127C58.4437 14.4477 59.0631 15.0607 59.5026 15.8516C59.9422 16.6293 60.162 17.539 60.162 18.5803C60.162 19.6217 59.9422 20.5313 59.5026 21.309C59.0631 22.0867 58.4437 22.6931 57.6444 23.128C56.8585 23.5631 55.9328 23.7806 54.8671 23.7806C53.8014 23.7806 52.869 23.5631 52.0697 23.128C51.2705 22.6931 50.6511 22.0867 50.2115 21.309C49.772 20.5313 49.5521 19.6217 49.5521 18.5803ZM52.6492 18.5605C52.6492 19.0615 52.7424 19.5031 52.9289 19.8854C53.1154 20.2545 53.3751 20.5444 53.7081 20.7554C54.0412 20.9531 54.4275 21.052 54.8671 21.052C55.3067 21.052 55.6929 20.9531 56.026 20.7554C56.359 20.5444 56.6121 20.2545 56.7853 19.8854C56.9718 19.5031 57.065 19.0615 57.065 18.5605C57.065 18.0596 56.9718 17.6246 56.7853 17.2555C56.6121 16.8864 56.359 16.603 56.026 16.4053C55.6929 16.1944 55.3067 16.0889 54.8671 16.0889C54.4275 16.0889 54.0412 16.1944 53.7081 16.4053C53.3751 16.603 53.1154 16.8864 52.9289 17.2555C52.7424 17.6246 52.6492 18.0596 52.6492 18.5605ZM60.8569 18.4221C60.8569 17.4071 61.0633 16.5173 61.4762 15.7527C61.8892 14.9883 62.4554 14.395 63.1747 13.9732C63.894 13.5382 64.7199 13.3207 65.6523 13.3207C66.4382 13.3207 67.1309 13.4788 67.7303 13.7952C68.3432 14.1116 68.756 14.5269 68.9692 15.0409L68.6694 15.2387L68.9093 13.6569H71.6866V22.9105C71.6866 24.0706 71.4601 25.0724 71.0073 25.9161C70.5543 26.7729 69.9083 27.432 69.069 27.8934C68.2433 28.3547 67.2574 28.5854 66.1119 28.5854C65.1528 28.5854 64.287 28.3943 63.5143 28.012C62.755 27.6429 62.1356 27.1156 61.6561 26.4301C61.1899 25.7447 60.9101 24.9538 60.8169 24.0574H63.934C63.9606 24.6242 64.1871 25.0592 64.6133 25.3625C65.0529 25.6656 65.6124 25.8172 66.2917 25.8172C67.051 25.8172 67.6371 25.6063 68.0501 25.1844C68.463 24.7758 68.6694 24.2288 68.6694 23.5433V21.4474L68.9491 21.7044C68.7361 22.2185 68.3231 22.6337 67.7104 22.9501C67.0976 23.2665 66.3916 23.4247 65.5924 23.4247C64.6733 23.4247 63.854 23.2138 63.1347 22.792C62.4288 22.3701 61.8692 21.7836 61.4563 21.0322C61.0567 20.2808 60.8569 19.4108 60.8569 18.4221ZM63.9738 18.343C63.9738 18.8176 64.0738 19.2394 64.2736 19.6085C64.4735 19.9777 64.7399 20.2676 65.0729 20.4785C65.4059 20.6762 65.7722 20.7751 66.1718 20.7751C66.6513 20.7751 67.0709 20.6762 67.4307 20.4785C67.8037 20.2676 68.0901 19.9777 68.2898 19.6085C68.5029 19.2394 68.6095 18.8176 68.6095 18.343C68.6095 17.8554 68.5029 17.4401 68.2898 17.0973C68.0767 16.7415 67.7836 16.4645 67.4106 16.2669C67.051 16.0691 66.6314 15.9702 66.1518 15.9702C65.7522 15.9702 65.3859 16.0691 65.0529 16.2669C64.7199 16.4645 64.4535 16.7415 64.2537 17.0973C64.0671 17.4533 63.9738 17.8685 63.9738 18.343ZM72.7832 18.5803C72.7832 17.539 73.003 16.6293 73.4426 15.8516C73.8824 15.0607 74.5013 14.4477 75.3008 14.0127C76.1003 13.5778 77.0324 13.3603 78.0979 13.3603C79.1641 13.3603 80.0895 13.5778 80.8758 14.0127C81.6745 14.4477 82.2942 15.0607 82.7341 15.8516C83.1732 16.6293 83.3928 17.539 83.3928 18.5803C83.3928 19.6217 83.1732 20.5313 82.7341 21.309C82.2942 22.0867 81.6745 22.6931 80.8758 23.128C80.0895 23.5631 79.1641 23.7806 78.0979 23.7806C77.0324 23.7806 76.1003 23.5631 75.3008 23.128C74.5013 22.6931 73.8824 22.0867 73.4426 21.309C73.003 20.5313 72.7832 19.6217 72.7832 18.5803ZM75.88 18.5605C75.88 19.0615 75.9735 19.5031 76.16 19.8854C76.3464 20.2545 76.6065 20.5444 76.9395 20.7554C77.2726 20.9531 77.6587 21.052 78.0979 21.052C78.5377 21.052 78.9239 20.9531 79.2569 20.7554C79.59 20.5444 79.8434 20.2545 80.0166 19.8854C80.203 19.5031 80.2959 19.0615 80.2959 18.5605C80.2959 18.0596 80.203 17.6246 80.0166 17.2555C79.8434 16.8864 79.59 16.603 79.2569 16.4053C78.9239 16.1944 78.5377 16.0889 78.0979 16.0889C77.6587 16.0889 77.2726 16.1944 76.9395 16.4053C76.6065 16.603 76.3464 16.8864 76.16 17.2555C75.9735 17.6246 75.88 18.0596 75.88 18.5605ZM84.6874 23.5433V13.6569H87.7844V23.5433H84.6874ZM86.2459 12.1146C85.7529 12.1146 85.3336 11.9498 84.9873 11.6203C84.6543 11.2775 84.4878 10.8622 84.4878 10.3745C84.4878 9.88681 84.6543 9.47818 84.9873 9.1486C85.3336 8.81909 85.7529 8.6543 86.2459 8.6543C86.7255 8.6543 87.1315 8.81909 87.4646 9.1486C87.8109 9.47818 87.9841 9.88681 87.9841 10.3745C87.9841 10.8622 87.8109 11.2775 87.4646 11.6203C87.1315 11.9498 86.7255 12.1146 86.2459 12.1146ZM89.7871 28.2889V13.6569H92.6048L92.764 14.863C93.044 14.4017 93.4905 14.0326 94.1028 13.7557C94.7159 13.4788 95.3753 13.3405 96.0812 13.3405C97.0133 13.3405 97.8261 13.5447 98.5187 13.9534C99.2113 14.3621 99.7573 14.9487 100.157 15.7133C100.557 16.4645 100.77 17.3741 100.797 18.4419C100.824 19.4832 100.65 20.4126 100.278 21.2299C99.904 22.0339 99.3653 22.6667 98.6587 23.128C97.9521 23.5895 97.1003 23.8202 96.1011 23.8202C95.4085 23.8202 94.7623 23.7015 94.1632 23.4643C93.5642 23.2269 93.1176 22.9238 92.8244 22.5547V28.2889H89.7871ZM92.8841 18.6001C92.8841 19.0878 92.9835 19.5228 93.184 19.9051C93.3976 20.2742 93.6835 20.5642 94.0431 20.7751C94.416 20.9729 94.8419 21.0716 95.3215 21.0716C95.8145 21.0716 96.2345 20.9663 96.5808 20.7554C96.9404 20.5444 97.2137 20.2545 97.3994 19.8854C97.5999 19.5162 97.7001 19.0878 97.7001 18.6001C97.7001 18.1123 97.5999 17.6839 97.3994 17.3148C97.2137 16.9457 96.9404 16.6557 96.5808 16.4449C96.2345 16.2339 95.8145 16.1285 95.3215 16.1285C94.8419 16.1285 94.416 16.2339 94.0431 16.4449C93.6835 16.6426 93.3976 16.926 93.184 17.2951C92.9835 17.6642 92.8841 18.0992 92.8841 18.6001ZM101.324 20.4192H104.102C104.102 20.7619 104.214 21.0322 104.441 21.2299C104.682 21.4276 105.027 21.5265 105.48 21.5265C105.746 21.5265 105.967 21.4935 106.14 21.4276C106.327 21.3617 106.467 21.2695 106.559 21.1508C106.666 21.019 106.719 20.874 106.719 20.7158C106.719 20.5444 106.66 20.3994 106.54 20.2808C106.433 20.1622 106.246 20.0699 105.98 20.004L104.222 19.5491C103.236 19.2855 102.537 18.8967 102.124 18.3826C101.711 17.8685 101.504 17.2819 101.504 16.6228C101.504 15.9637 101.671 15.3903 102.004 14.9026C102.35 14.4017 102.817 14.0194 103.402 13.7557C103.989 13.4788 104.648 13.3405 105.381 13.3405C106.486 13.3405 107.392 13.6437 108.098 14.2501C108.818 14.8432 109.197 15.6539 109.238 16.6821H106.46C106.473 16.3393 106.373 16.0691 106.16 15.8714C105.947 15.6605 105.667 15.5551 105.321 15.5551C105.015 15.5551 104.761 15.6341 104.562 15.7923C104.375 15.9373 104.282 16.1417 104.282 16.4053C104.282 16.6557 104.375 16.8403 104.562 16.959C104.748 17.0644 105.001 17.1567 105.321 17.2358L107.099 17.6708C107.925 17.8685 108.551 18.2047 108.977 18.6792C109.404 19.1537 109.616 19.7602 109.616 20.4983C109.616 21.5133 109.238 22.3173 108.478 22.9105C107.718 23.5038 106.733 23.8004 105.521 23.8004C104.269 23.8004 103.262 23.4907 102.504 22.8711C101.757 22.2383 101.364 21.421 101.324 20.4192ZM114.527 23.8004C113.354 23.8004 112.448 23.4379 111.808 22.7129C111.17 21.9878 110.85 21.0387 110.85 19.8655V13.6569H113.927V18.7583C113.927 19.681 114.093 20.3005 114.426 20.6169C114.759 20.9333 115.199 21.0915 115.745 21.0915C116.451 21.0915 116.938 20.8937 117.204 20.4983C117.47 20.1029 117.604 19.536 117.604 18.7978V13.6569H120.681V23.5433H117.784L117.584 22.4361C117.277 22.8446 116.844 23.1743 116.285 23.4247C115.725 23.6751 115.14 23.8004 114.527 23.8004ZM125.76 23.5433H122.663V13.6569H125.541L125.76 15.3573L125.421 15.0014C125.687 14.5005 126.087 14.0984 126.62 13.7952C127.166 13.4788 127.751 13.3207 128.378 13.3207C129.364 13.3207 130.136 13.5382 130.696 13.9732C131.268 14.4082 131.681 14.9816 131.934 15.6935H131.454C131.615 14.9816 132.001 14.4082 132.614 13.9732C133.227 13.5382 133.959 13.3207 134.812 13.3207C136.104 13.3207 137.056 13.6634 137.669 14.3489C138.282 15.0344 138.588 15.9439 138.588 17.0776V23.5433H135.591V17.829C135.591 17.2093 135.437 16.748 135.131 16.4449C134.838 16.1417 134.446 15.9901 133.953 15.9901C133.659 15.9901 133.379 16.056 133.113 16.1878C132.847 16.3064 132.626 16.5239 132.454 16.8403C132.281 17.1435 132.194 17.5785 132.194 18.1453V23.5433H129.157V17.829C129.157 17.2093 129.011 16.7546 128.717 16.4645C128.424 16.1614 128.031 16.0098 127.538 16.0098C127.245 16.0098 126.959 16.0758 126.679 16.2076C126.413 16.3262 126.193 16.5437 126.02 16.8601C125.847 17.1632 125.76 17.5916 125.76 18.1453V23.5433Z" fill="white"/>
</g>
</svg>
