<svg width="140" height="34" viewBox="0 0 140 34" fill="none" xmlns="http://www.w3.org/2000/svg">
<g clip-path="url(#clip0_4628_548)">
<path d="M42.708 23.2441H52.5509V20.2701H46.2064V9.06836H42.708V23.2441Z" fill="white"/>
<path d="M58.383 21.2623C56.9797 21.2623 56.2484 20.0331 56.2484 18.1893C56.2484 16.3455 56.9797 15.0964 58.383 15.0964C59.7862 15.0964 60.5373 16.3455 60.5373 18.1893C60.5373 20.0331 59.7862 21.2623 58.383 21.2623ZM58.4028 23.5622C61.6639 23.5622 63.7985 21.2425 63.7985 18.1893C63.7985 15.1361 61.6639 12.8164 58.4028 12.8164C55.1613 12.8164 52.9872 15.1361 52.9872 18.1893C52.9872 21.2425 55.1613 23.5622 58.4028 23.5622Z" fill="white"/>
<path d="M69.443 26.7544C70.9451 26.7544 72.2694 26.4173 73.1587 25.6243C73.9693 24.8907 74.5028 23.7805 74.5028 22.2539V13.0942H71.4195V14.1847H71.3799C70.787 13.3322 69.8778 12.7969 68.5338 12.7969C66.0237 12.7969 64.2844 14.8984 64.2844 17.8723C64.2844 20.985 66.3992 22.6901 68.6722 22.6901C69.8975 22.6901 70.6684 22.1944 71.2614 21.5203H71.3404V22.5314C71.3404 23.7607 70.7672 24.4744 69.4035 24.4744C68.3362 24.4744 67.8025 24.0184 67.6246 23.4831H64.5018C64.818 25.6045 66.6562 26.7544 69.443 26.7544ZM69.4232 20.2911C68.2175 20.2911 67.427 19.2998 67.427 17.7732C67.427 16.2267 68.2175 15.2354 69.4232 15.2354C70.7672 15.2354 71.4787 16.3854 71.4787 17.7533C71.4787 19.1808 70.8265 20.2911 69.4232 20.2911Z" fill="white"/>
<path d="M80.8427 21.2623C79.4397 21.2623 78.708 20.0331 78.708 18.1893C78.708 16.3455 79.4397 15.0964 80.8427 15.0964C82.2464 15.0964 82.9972 16.3455 82.9972 18.1893C82.9972 20.0331 82.2464 21.2623 80.8427 21.2623ZM80.8626 23.5622C84.1238 23.5622 86.2585 21.2425 86.2585 18.1893C86.2585 15.1361 84.1238 12.8164 80.8626 12.8164C77.6212 12.8164 75.4475 15.1361 75.4475 18.1893C75.4475 21.2425 77.6212 23.5622 80.8626 23.5622Z" fill="white"/>
<path d="M87.1986 23.2441H90.4201V13.0931H87.1986V23.2441ZM87.1986 11.6854H90.4201V9.06836H87.1986V11.6854Z" fill="white"/>
<path d="M91.8186 26.5958H95.0408V22.1944H95.0799C95.7128 23.0469 96.6412 23.5624 97.9462 23.5624C100.594 23.5624 102.353 21.4608 102.353 18.1697C102.353 15.1165 100.713 12.7969 98.025 12.7969C96.6412 12.7969 95.6531 13.4115 94.9612 14.3235H94.9023V13.0942H91.8186V26.5958ZM97.1158 21.0643C95.732 21.0643 94.9413 19.9342 94.9413 18.2887C94.9413 16.6431 95.6531 15.394 97.0568 15.394C98.4399 15.394 99.092 16.544 99.092 18.2887C99.092 20.0135 98.3411 21.0643 97.1158 21.0643Z" fill="white"/>
<path d="M107.598 23.5624C110.246 23.5624 112.203 22.4125 112.203 20.1919C112.203 17.5947 110.108 17.1387 108.329 16.8414C107.045 16.6035 105.898 16.5044 105.898 15.7906C105.898 15.1562 106.511 14.8588 107.301 14.8588C108.191 14.8588 108.804 15.1363 108.922 16.0483H111.887C111.729 14.0459 110.187 12.7969 107.321 12.7969C104.93 12.7969 102.953 13.9071 102.953 16.0483C102.953 18.4274 104.831 18.9033 106.59 19.2007C107.934 19.4386 109.159 19.5377 109.159 20.4497C109.159 21.104 108.546 21.4608 107.578 21.4608C106.511 21.4608 105.839 20.9652 105.721 19.954H102.677C102.775 22.1944 104.633 23.5624 107.598 23.5624Z" fill="white"/>
<path d="M116.579 23.5421C117.982 23.5421 118.872 22.9869 119.603 21.9957H119.662V23.2447H122.746V13.0938H119.525V18.764C119.525 19.9734 118.853 20.8061 117.746 20.8061C116.718 20.8061 116.224 20.1915 116.224 19.0812V13.0938H113.022V19.7553C113.022 22.0155 114.247 23.5421 116.579 23.5421Z" fill="white"/>
<path d="M124.147 23.2452H127.369V17.5551C127.369 16.3457 127.961 15.4932 128.969 15.4932C129.938 15.4932 130.393 16.1276 130.393 17.2181V23.2452H133.615V17.5551C133.615 16.3457 134.188 15.4932 135.216 15.4932C136.184 15.4932 136.639 16.1276 136.639 17.2181V23.2452H139.86V16.6431C139.86 14.3631 138.713 12.7969 136.421 12.7969C135.116 12.7969 134.029 13.352 133.239 14.5812H133.2C132.685 13.4908 131.677 12.7969 130.353 12.7969C128.891 12.7969 127.922 13.4908 127.289 14.5415H127.231V13.0942H124.147V23.2452Z" fill="white"/>
<path fill-rule="evenodd" clip-rule="evenodd" d="M17.0341 33.1567C26.1305 33.1567 33.5047 25.7597 33.5047 16.635C33.5047 7.51035 26.1305 0.113281 17.0341 0.113281C7.93761 0.113281 0.563477 7.51035 0.563477 16.635C0.563477 25.7597 7.93761 33.1567 17.0341 33.1567ZM22.1723 7.80977C22.4225 6.91863 21.5603 6.39165 20.7729 6.95436L9.78134 14.809C8.92741 15.4193 9.06174 16.635 9.98308 16.635H12.8775V16.6125H18.5185L13.9221 18.2393L11.8959 25.4602C11.6457 26.3515 12.5078 26.8784 13.2953 26.3157L24.2868 18.4611C25.1407 17.8509 25.0063 16.635 24.0851 16.635H19.6958L22.1723 7.80977Z" fill="white"/>
</g>
<defs>
<clipPath id="clip0_4628_548">
<rect width="140" height="34" fill="white"/>
</clipPath>
</defs>
</svg>
