<svg width="140" height="35" viewBox="0 0 140 35" fill="none" xmlns="http://www.w3.org/2000/svg">
<g clip-path="url(#clip0_4628_584)">
<path d="M40.7681 24.3941H50.7877V21.344H44.3293V9.85547H40.7681V24.3941Z" fill="white"/>
<path d="M56.724 22.3634C55.2955 22.3634 54.5511 21.1027 54.5511 19.2117C54.5511 17.3206 55.2955 16.0396 56.724 16.0396C58.1526 16.0396 58.9171 17.3206 58.9171 19.2117C58.9171 21.1027 58.1526 22.3634 56.724 22.3634ZM56.7442 24.7222C60.0639 24.7222 62.2369 22.343 62.2369 19.2117C62.2369 16.0803 60.0639 13.7012 56.7442 13.7012C53.4445 13.7012 51.2313 16.0803 51.2313 19.2117C51.2313 22.343 53.4445 24.7222 56.7442 24.7222Z" fill="white"/>
<path d="M67.9832 27.9947C69.5123 27.9947 70.8603 27.649 71.7658 26.8357C72.5907 26.0833 73.1339 24.9446 73.1339 23.3789V13.9847H69.9952V15.1031H69.955C69.3514 14.2287 68.4259 13.6797 67.0577 13.6797C64.5025 13.6797 62.7319 15.8351 62.7319 18.8852C62.7319 22.0775 64.8848 23.8263 67.1985 23.8263C68.446 23.8263 69.2307 23.3179 69.8342 22.6266H69.9147V23.6635C69.9147 24.9243 69.3312 25.6563 67.943 25.6563C66.8565 25.6563 66.3133 25.1886 66.1322 24.6396H62.9533C63.2752 26.8153 65.1463 27.9947 67.9832 27.9947ZM67.9631 21.3658C66.7358 21.3658 65.931 20.3492 65.931 18.7834C65.931 17.1974 66.7358 16.1808 67.9631 16.1808C69.3312 16.1808 70.0556 17.3601 70.0556 18.7631C70.0556 20.2271 69.3916 21.3658 67.9631 21.3658Z" fill="white"/>
<path d="M79.5878 22.3634C78.159 22.3634 77.4148 21.1027 77.4148 19.2117C77.4148 17.3206 78.159 16.0396 79.5878 16.0396C81.0165 16.0396 81.7806 17.3206 81.7806 19.2117C81.7806 21.1027 81.0165 22.3634 79.5878 22.3634ZM79.6077 24.7222C82.9279 24.7222 85.1008 22.343 85.1008 19.2117C85.1008 16.0803 82.9279 13.7012 79.6077 13.7012C76.3081 13.7012 74.0953 16.0803 74.0953 19.2117C74.0953 22.343 76.3081 24.7222 79.6077 24.7222Z" fill="white"/>
<path d="M86.058 24.3941H89.3377V13.9832H86.058V24.3941ZM86.058 12.5395H89.3377V9.85547H86.058V12.5395Z" fill="white"/>
<path d="M90.7605 27.832H94.0402V23.3179H94.08C94.724 24.1923 95.6693 24.7209 96.9971 24.7209C99.6932 24.7209 101.484 22.5655 101.484 19.1902C101.484 16.0587 99.8141 13.6797 97.0782 13.6797C95.6693 13.6797 94.6635 14.3101 93.9591 15.2454H93.8987V13.9847H90.7605V27.832ZM96.1527 22.1588C94.7439 22.1588 93.9392 20.9998 93.9392 19.3122C93.9392 17.6244 94.6635 16.3434 96.0923 16.3434C97.5004 16.3434 98.1643 17.5228 98.1643 19.3122C98.1643 21.0812 97.4002 22.1588 96.1527 22.1588Z" fill="white"/>
<path d="M106.824 24.7209C109.521 24.7209 111.512 23.5416 111.512 21.2642C111.512 18.6005 109.38 18.1328 107.569 17.8278C106.261 17.5838 105.094 17.4821 105.094 16.7501C105.094 16.0994 105.718 15.7944 106.522 15.7944C107.428 15.7944 108.051 16.079 108.172 17.0144H111.19C111.03 14.9607 109.46 13.6797 106.543 13.6797C104.108 13.6797 102.096 14.8184 102.096 17.0144C102.096 19.4545 104.008 19.9425 105.798 20.2475C107.166 20.4915 108.414 20.5932 108.414 21.5285C108.414 22.1996 107.79 22.5655 106.804 22.5655C105.718 22.5655 105.034 22.0572 104.913 21.0202H101.815C101.915 23.3179 103.806 24.7209 106.824 24.7209Z" fill="white"/>
<path d="M115.966 24.6984C117.394 24.6984 118.3 24.129 119.044 23.1124H119.105V24.3934H122.244V13.9824H118.964V19.7979C118.964 21.0383 118.28 21.8923 117.153 21.8923C116.107 21.8923 115.604 21.262 115.604 20.1233V13.9824H112.345V20.8146C112.345 23.1327 113.592 24.6984 115.966 24.6984Z" fill="white"/>
<path d="M123.67 24.3956H126.95V18.5598C126.95 17.3195 127.553 16.4451 128.58 16.4451C129.566 16.4451 130.028 17.0958 130.028 18.2141V24.3956H133.308V18.5598C133.308 17.3195 133.892 16.4451 134.937 16.4451C135.923 16.4451 136.386 17.0958 136.386 18.2141V24.3956H139.665V17.6244C139.665 15.286 138.498 13.6797 136.165 13.6797C134.837 13.6797 133.73 14.249 132.926 15.5097H132.885C132.362 14.3914 131.336 13.6797 129.988 13.6797C128.499 13.6797 127.513 14.3914 126.869 15.4691H126.809V13.9847H123.67V24.3956Z" fill="white"/>
<path fill-rule="evenodd" clip-rule="evenodd" d="M7.25491 3.29826C6.05556 4.14581 4.97102 5.14788 4.02954 6.27591C7.87689 5.91493 12.7647 6.50437 18.4395 9.37194C24.4994 12.4341 29.3791 12.5376 32.7752 11.8756C32.467 10.9326 32.0791 10.0264 31.6196 9.16499C27.732 9.57941 22.7481 9.03088 16.9399 6.09595C13.2516 4.23218 10.0005 3.46444 7.25491 3.29826ZM29.3486 5.89826C26.2786 2.43164 21.8171 0.25 16.8514 0.25C15.3931 0.25 13.9782 0.438178 12.6294 0.791794C14.4562 1.29557 16.3969 2.03258 18.4395 3.06476C22.692 5.21359 26.3634 5.90547 29.3486 5.89826ZM33.5012 15.1852C29.3985 16.004 23.733 15.8358 16.9399 12.4032C10.5891 9.19396 5.53442 9.2344 2.12535 10C1.94939 10.0395 1.77757 10.081 1.6099 10.1242C1.16356 11.1053 0.807292 12.1369 0.551658 13.2081C0.824688 13.1344 1.10682 13.0644 1.39791 12.9989C5.5337 12.0701 11.3773 12.1104 18.4395 15.6792C24.7904 18.8884 29.8451 18.8479 33.2542 18.0823C33.371 18.0561 33.4861 18.029 33.5992 18.0011C33.6117 17.7339 33.6179 17.4651 33.6179 17.1948C33.6179 16.5149 33.5783 15.8443 33.5012 15.1852ZM33.0518 21.577C28.9889 22.2948 23.4884 22.0194 16.9399 18.7104C10.5891 15.5012 5.53442 15.5416 2.12535 16.3072C1.36865 16.4771 0.687916 16.6841 0.0874176 16.9026C0.0857803 16.9998 0.0849609 17.0972 0.0849609 17.1948C0.0849609 26.5532 7.59159 34.1397 16.8514 34.1397C24.6118 34.1397 31.1408 28.8112 33.0518 21.577Z" fill="white"/>
</g>
<defs>
<clipPath id="clip0_4628_584">
<rect width="140" height="35" fill="white"/>
</clipPath>
</defs>
</svg>
