<svg width="140" height="27" viewBox="0 0 140 27" fill="none" xmlns="http://www.w3.org/2000/svg">
<mask id="mask0_4628_595" style="mask-type:luminance" maskUnits="userSpaceOnUse" x="0" y="0" width="140" height="27">
<path d="M140 0H0V26.6613H140V0Z" fill="white"/>
</mask>
<g mask="url(#mask0_4628_595)">
<path d="M9.43593 22.0351C6.73872 24.7805 2.17072 24.7695 0.894991 21.1106C0.645223 20.3942 0.445524 19.6577 0.298646 18.9061C-0.301054 15.8373 0.00673448 12.6565 1.18309 9.76575C2.35944 6.87512 4.35152 4.40441 6.90743 2.66611C9.46334 0.92781 12.4683 -1.34028e-07 15.5423 0C18.6162 1.34028e-07 21.6212 0.92781 24.177 2.66611C26.7329 4.40441 28.7251 6.87512 29.9013 9.76583C31.0777 12.6565 31.3855 15.8373 30.7859 18.9061C30.6389 19.6577 30.4392 20.3942 30.1895 21.1106C28.9137 24.7695 24.3457 24.7805 21.6485 22.0351L17.485 17.7973C17.0872 17.3924 17.1283 16.7246 17.2381 16.1631C17.3047 15.8217 17.2705 15.4679 17.1396 15.1463C17.0087 14.8247 16.7872 14.5498 16.5028 14.3564C16.2185 14.1632 15.8843 14.0599 15.5423 14.0599C15.2003 14.0599 14.866 14.1632 14.5817 14.3564C14.2972 14.5498 14.0757 14.8247 13.9448 15.1463C13.8139 15.4679 13.7797 15.8217 13.8464 16.1631C13.9562 16.7246 13.9972 17.3924 13.5995 17.7973L9.43593 22.0351Z" fill="white"/>
<path d="M43.7293 18.2367H47.907V20.7426H40.54V7.41602H43.7293V18.2367Z" fill="white"/>
<path d="M53.6058 20.8947C52.5862 20.8947 51.6661 20.6732 50.8455 20.2303C50.0374 19.7873 49.397 19.1546 48.9245 18.3319C48.4645 17.5093 48.2344 16.5475 48.2344 15.4463C48.2344 14.358 48.4706 13.4024 48.9431 12.5798C49.4156 11.7446 50.0622 11.1054 50.8827 10.6625C51.7034 10.2195 52.6235 9.99805 53.6431 9.99805C54.6627 9.99805 55.5828 10.2195 56.4034 10.6625C57.224 11.1054 57.8706 11.7446 58.343 12.5798C58.8155 13.4024 59.0518 14.358 59.0518 15.4463C59.0518 16.5347 58.8093 17.4966 58.3244 18.3319C57.8519 19.1546 57.1992 19.7873 56.366 20.2303C55.5455 20.6732 54.6254 20.8947 53.6058 20.8947ZM53.6058 18.0851C54.215 18.0851 54.731 17.8574 55.1538 17.4017C55.589 16.9461 55.8066 16.2944 55.8066 15.4463C55.8066 14.5984 55.5951 13.9467 55.1724 13.4911C54.7621 13.0355 54.2523 12.8076 53.6431 12.8076C53.0214 12.8076 52.5054 13.0355 52.0951 13.4911C51.6847 13.934 51.4796 14.5857 51.4796 15.4463C51.4796 16.2944 51.6786 16.9461 52.0765 17.4017C52.4868 17.8574 52.9966 18.0851 53.6058 18.0851Z" fill="white"/>
<path d="M64.1384 9.99805C64.872 9.99805 65.5124 10.1499 66.0595 10.4537C66.6189 10.7573 67.0479 11.1561 67.3464 11.6496V10.1499H70.5356V20.7238C70.5356 21.6983 70.3429 22.5779 69.9574 23.3625C69.5844 24.1599 69.0062 24.7927 68.223 25.2609C67.4521 25.7292 66.4884 25.9634 65.3321 25.9634C63.7903 25.9634 62.5407 25.59 61.5833 24.8433C60.6259 24.1092 60.0787 23.1095 59.942 21.8438H63.094C63.1934 22.2488 63.4297 22.5653 63.8028 22.7931C64.1757 23.0335 64.6358 23.1538 65.1829 23.1538C65.8419 23.1538 66.3641 22.9576 66.7495 22.5653C67.1474 22.1856 67.3464 21.5718 67.3464 20.7238V19.2242C67.0355 19.7177 66.6066 20.1227 66.0595 20.4391C65.5124 20.7428 64.872 20.8947 64.1384 20.8947C63.2805 20.8947 62.5034 20.6732 61.8071 20.2303C61.1108 19.7747 60.5575 19.1355 60.1473 18.3129C59.7494 17.4776 59.5504 16.5158 59.5504 15.4274C59.5504 14.339 59.7494 13.3835 60.1473 12.5609C60.5575 11.7382 61.1108 11.1054 61.8071 10.6625C62.5034 10.2195 63.2805 9.99805 64.1384 9.99805ZM67.3464 15.4463C67.3464 14.6364 67.1226 13.9973 66.6749 13.529C66.2398 13.0608 65.705 12.8267 65.071 12.8267C64.4369 12.8267 63.896 13.0608 63.4483 13.529C63.0132 13.9847 62.7956 14.6174 62.7956 15.4274C62.7956 16.2374 63.0132 16.8828 63.4483 17.3637C63.896 17.8319 64.4369 18.0662 65.071 18.0662C65.705 18.0662 66.2398 17.8319 66.6749 17.3637C67.1226 16.8954 67.3464 16.2564 67.3464 15.4463Z" fill="white"/>
<path d="M77.0207 20.8947C76.0009 20.8947 75.0813 20.6732 74.2604 20.2303C73.4522 19.7873 72.8118 19.1546 72.3393 18.3319C71.8793 17.5093 71.6493 16.5475 71.6493 15.4463C71.6493 14.358 71.8855 13.4024 72.3581 12.5798C72.8305 11.7446 73.477 11.1054 74.2973 10.6625C75.1181 10.2195 76.0384 9.99805 77.0582 9.99805C78.0773 9.99805 78.9976 10.2195 79.8184 10.6625C80.6385 11.1054 81.2855 11.7446 81.7578 12.5798C82.2301 13.4024 82.4667 14.358 82.4667 15.4463C82.4667 16.5347 82.2242 17.4966 81.7394 18.3319C81.2671 19.1546 80.6142 19.7873 79.7809 20.2303C78.96 20.6732 78.0404 20.8947 77.0207 20.8947ZM77.0207 18.0851C77.63 18.0851 78.1458 17.8574 78.5688 17.4017C79.0042 16.9461 79.2216 16.2944 79.2216 15.4463C79.2216 14.5984 79.0101 13.9467 78.5872 13.4911C78.1768 13.0355 77.6669 12.8076 77.0582 12.8076C76.4363 12.8076 75.9205 13.0355 75.5101 13.4911C75.0997 13.934 74.8941 14.5857 74.8941 15.4463C74.8941 16.2944 75.0938 16.9461 75.491 17.4017C75.9014 17.8574 76.4113 18.0851 77.0207 18.0851Z" fill="white"/>
<path d="M85.2033 9.04913C84.6433 9.04913 84.1835 8.88458 83.8232 8.55555C83.4747 8.21385 83.3008 7.79618 83.3008 7.3026C83.3008 6.79637 83.4747 6.37872 83.8232 6.04967C84.1835 5.70797 84.6433 5.53711 85.2033 5.53711C85.75 5.53711 86.198 5.70797 86.5458 6.04967C86.9061 6.37872 87.0867 6.79637 87.0867 7.3026C87.0867 7.79618 86.9061 8.21385 86.5458 8.55555C86.198 8.88458 85.75 9.04913 85.2033 9.04913ZM86.7883 10.1502V20.7431H83.5992V10.1502H86.7883Z" fill="white"/>
<path d="M91.7287 11.6496C92.0397 11.1561 92.4685 10.7573 93.016 10.4537C93.5635 10.1499 94.2038 9.99805 94.9369 9.99805C95.7954 9.99805 96.572 10.2195 97.2683 10.6625C97.9646 11.1054 98.5121 11.7382 98.9092 12.5609C99.3197 13.3835 99.5253 14.339 99.5253 15.4274C99.5253 16.5158 99.3197 17.4776 98.9092 18.3129C98.5121 19.1355 97.9646 19.7747 97.2683 20.2303C96.572 20.6732 95.7954 20.8947 94.9369 20.8947C94.2156 20.8947 93.576 20.7428 93.016 20.4391C92.4685 20.1353 92.0397 19.743 91.7287 19.2621V25.7925H88.5397V10.1499H91.7287V11.6496ZM96.2802 15.4274C96.2802 14.6174 96.0562 13.9847 95.6082 13.529C95.1727 13.0608 94.6326 12.8267 93.9857 12.8267C93.352 12.8267 92.8111 13.0608 92.3631 13.529C91.9284 13.9973 91.711 14.6364 91.711 15.4463C91.711 16.2564 91.9284 16.8954 92.3631 17.3637C92.8111 17.8319 93.352 18.0662 93.9857 18.0662C94.6201 18.0662 95.1609 17.8319 95.6082 17.3637C96.0562 16.8828 96.2802 16.2374 96.2802 15.4274Z" fill="white"/>
<path d="M104.872 20.8947C103.965 20.8947 103.156 20.7365 102.448 20.4201C101.739 20.1037 101.179 19.6734 100.769 19.1292C100.359 18.5723 100.129 17.9522 100.079 17.2688H103.232C103.268 17.6358 103.436 17.9332 103.735 18.161C104.033 18.3888 104.4 18.5027 104.836 18.5027C105.233 18.5027 105.537 18.4268 105.749 18.2749C105.973 18.1104 106.085 17.9015 106.085 17.6485C106.085 17.3447 105.929 17.1233 105.619 16.9841C105.308 16.8322 104.804 16.6677 104.108 16.4905C103.361 16.3133 102.74 16.1298 102.243 15.9399C101.745 15.7375 101.316 15.4274 100.956 15.0098C100.595 14.5795 100.415 14.0036 100.415 13.2823C100.415 12.6748 100.577 12.1243 100.9 11.6306C101.235 11.1245 101.72 10.7258 102.355 10.4347C103.001 10.1436 103.766 9.99805 104.648 9.99805C105.953 9.99805 106.98 10.3271 107.726 10.9852C108.485 11.6433 108.92 12.5165 109.032 13.6049H106.085C106.035 13.238 105.873 12.9469 105.6 12.7316C105.339 12.5165 104.991 12.409 104.556 12.409C104.183 12.409 103.896 12.4849 103.697 12.6368C103.499 12.776 103.4 12.9722 103.4 13.2253C103.4 13.529 103.555 13.7568 103.865 13.9087C104.189 14.0606 104.685 14.2125 105.357 14.3642C106.128 14.5668 106.756 14.7693 107.241 14.9717C107.726 15.1616 108.148 15.478 108.509 15.921C108.882 16.3513 109.075 16.9334 109.088 17.6675C109.088 18.2876 108.913 18.8444 108.565 19.3381C108.23 19.819 107.739 20.1986 107.092 20.477C106.457 20.7555 105.718 20.8947 104.872 20.8947Z" fill="white"/>
<path d="M120.756 10.1523V20.7452H117.567V19.3025C117.243 19.7707 116.801 20.1504 116.243 20.4414C115.695 20.7199 115.087 20.8591 114.415 20.8591C113.619 20.8591 112.916 20.682 112.307 20.3275C111.697 19.9605 111.225 19.4353 110.89 18.752C110.554 18.0685 110.386 17.2649 110.386 16.341V10.1523H113.556V15.9043C113.556 16.6131 113.737 17.1636 114.097 17.556C114.458 17.9482 114.943 18.1444 115.552 18.1444C116.174 18.1444 116.665 17.9482 117.025 17.556C117.386 17.1636 117.567 16.6131 117.567 15.9043V10.1523H120.756Z" fill="white"/>
<path d="M135.767 10.0371C137.059 10.0371 138.085 10.4357 138.844 11.2331C139.615 12.0304 140 13.1378 140 14.5552V20.744H136.83V14.9919C136.83 14.3084 136.649 13.7832 136.288 13.4162C135.94 13.0365 135.456 12.8467 134.833 12.8467C134.212 12.8467 133.721 13.0365 133.36 13.4162C133.012 13.7832 132.839 14.3084 132.839 14.9919V20.744H129.667V14.9919C129.667 14.3084 129.487 13.7832 129.127 13.4162C128.779 13.0365 128.293 12.8467 127.672 12.8467C127.051 12.8467 126.559 13.0365 126.199 13.4162C125.85 13.7832 125.676 14.3084 125.676 14.9919V20.744H122.487V10.151H125.676V11.4799C126 11.0369 126.423 10.6889 126.945 10.4357C127.467 10.1699 128.057 10.0371 128.716 10.0371C129.5 10.0371 130.196 10.208 130.805 10.5497C131.427 10.8914 131.912 11.3786 132.26 12.0114C132.62 11.4292 133.112 10.9547 133.733 10.5876C134.355 10.2206 135.033 10.0371 135.767 10.0371Z" fill="white"/>
</g>
</svg>
