<svg width="140" height="25" viewBox="0 0 140 25" fill="none" xmlns="http://www.w3.org/2000/svg">
<path d="M21.0481 18.7739H28.3164L10.3115 0.806641H3.04309L21.0481 18.7739Z" fill="white"/>
<path d="M14.0452 0.806641L31.4018 18.1267V0.806641H26.7048V6.27491L21.225 0.806641H14.0452Z" fill="white"/>
<path d="M0 1.4082V18.7739H4.69697V13.3056L10.1767 18.7739H17.4023L0 1.4082Z" fill="white"/>
<path d="M42.7359 16.0713H46.9444V18.5461H39.5232V5.38477H42.7359V16.0713Z" fill="white"/>
<path d="M52.6856 18.6972C51.6585 18.6972 50.7316 18.4784 49.905 18.0409C49.0908 17.6034 48.4458 16.9785 47.9698 16.1661C47.5064 15.3536 47.2747 14.4037 47.2747 13.3163C47.2747 12.2415 47.5126 11.2978 47.9886 10.4853C48.4646 9.66033 49.1159 9.02922 49.9425 8.59172C50.7692 8.1543 51.6961 7.93555 52.7232 7.93555C53.7502 7.93555 54.677 8.1543 55.5038 8.59172C56.3304 9.02922 56.9817 9.66033 57.4577 10.4853C57.9337 11.2978 58.1716 12.2415 58.1716 13.3163C58.1716 14.3912 57.9274 15.3411 57.4389 16.1661C56.963 16.9785 56.3053 17.6034 55.4661 18.0409C54.6395 18.4784 53.7126 18.6972 52.6856 18.6972ZM52.6856 15.9224C53.2993 15.9224 53.8191 15.6974 54.245 15.2474C54.6833 14.7975 54.9025 14.1538 54.9025 13.3163C54.9025 12.4789 54.6896 11.8353 54.2638 11.3853C53.8504 10.9353 53.3369 10.7103 52.7232 10.7103C52.0968 10.7103 51.5771 10.9353 51.1638 11.3853C50.7504 11.8227 50.5438 12.4664 50.5438 13.3163C50.5438 14.1538 50.7442 14.7975 51.145 15.2474C51.5584 15.6974 52.0719 15.9224 52.6856 15.9224Z" fill="white"/>
<path d="M63.2951 7.93555C64.034 7.93555 64.6791 8.08555 65.2302 8.38547C65.7938 8.68547 66.226 9.07922 66.5266 9.56665V8.08555H69.7393V18.5284C69.7393 19.4908 69.5452 20.3594 69.1569 21.1344C68.7811 21.9218 68.1987 22.5468 67.4096 23.0092C66.633 23.4717 65.6623 23.703 64.4975 23.703C62.9443 23.703 61.6856 23.3342 60.7211 22.5967C59.7567 21.8718 59.2056 20.8844 59.0678 19.6345H62.243C62.3431 20.0345 62.5811 20.3469 62.9568 20.5719C63.3327 20.8094 63.796 20.9282 64.3473 20.9282C65.0111 20.9282 65.537 20.7345 65.9254 20.3469C66.3261 19.972 66.5266 19.3658 66.5266 18.5284V17.0472C66.2134 17.5347 65.7813 17.9347 65.2302 18.2472C64.6791 18.5471 64.034 18.6972 63.2951 18.6972C62.4309 18.6972 61.648 18.4784 60.9466 18.0409C60.2451 17.5909 59.6878 16.9598 59.2745 16.1473C58.8737 15.3225 58.6732 14.3725 58.6732 13.2976C58.6732 12.2227 58.8737 11.279 59.2745 10.4666C59.6878 9.65415 60.2451 9.02922 60.9466 8.59172C61.648 8.1543 62.4309 7.93555 63.2951 7.93555ZM66.5266 13.3163C66.5266 12.5164 66.3012 11.8853 65.8502 11.4228C65.4119 10.9603 64.8732 10.729 64.2345 10.729C63.5957 10.729 63.0509 10.9603 62.6 11.4228C62.1615 11.8727 61.9424 12.4977 61.9424 13.2976C61.9424 14.0975 62.1615 14.735 62.6 15.21C63.0509 15.6725 63.5957 15.9036 64.2345 15.9036C64.8732 15.9036 65.4119 15.6725 65.8502 15.21C66.3012 14.7475 66.5266 14.1163 66.5266 13.3163Z" fill="white"/>
<path d="M76.2727 18.6972C75.2456 18.6972 74.3186 18.4784 73.4918 18.0409C72.6776 17.6034 72.0326 16.9785 71.5567 16.1661C71.0932 15.3536 70.8615 14.4037 70.8615 13.3163C70.8615 12.2415 71.0995 11.2978 71.5754 10.4853C72.0514 9.66033 72.7027 9.02922 73.5294 8.59172C74.3562 8.1543 75.2832 7.93555 76.3096 7.93555C77.3367 7.93555 78.2637 8.1543 79.0904 8.59172C79.9172 9.02922 80.5685 9.66033 81.0445 10.4853C81.5205 11.2978 81.7585 12.2415 81.7585 13.3163C81.7585 14.3912 81.5139 15.3411 81.0261 16.1661C80.5501 16.9785 79.8921 17.6034 79.0529 18.0409C78.2261 18.4784 77.2992 18.6972 76.2727 18.6972ZM76.2727 15.9224C76.8858 15.9224 77.406 15.6974 77.8319 15.2474C78.2703 14.7975 78.4892 14.1538 78.4892 13.3163C78.4892 12.4789 78.2762 11.8353 77.8503 11.3853C77.437 10.9353 76.9241 10.7103 76.3096 10.7103C75.684 10.7103 75.1638 10.9353 74.7504 11.3853C74.3371 11.8227 74.1307 12.4664 74.1307 13.3163C74.1307 14.1538 74.3312 14.7975 74.732 15.2474C75.1454 15.6974 75.659 15.9224 76.2727 15.9224Z" fill="white"/>
<path d="M84.5143 6.99776C83.9514 6.99776 83.4879 6.83527 83.1246 6.5103C82.7739 6.17283 82.5985 5.76037 82.5985 5.2729C82.5985 4.77294 82.7739 4.36048 83.1246 4.03551C83.4879 3.69804 83.9514 3.5293 84.5143 3.5293C85.0655 3.5293 85.5164 3.69804 85.8671 4.03551C86.2304 4.36048 86.4124 4.77294 86.4124 5.2729C86.4124 5.76037 86.2304 6.17283 85.8671 6.5103C85.5164 6.83527 85.0655 6.99776 84.5143 6.99776ZM86.1118 8.08518V18.5467H82.8991V8.08518H86.1118Z" fill="white"/>
<path d="M91.0891 9.56665C91.4023 9.07922 91.834 8.68547 92.3852 8.38547C92.9364 8.08555 93.5818 7.93555 94.3209 7.93555C95.1852 7.93555 95.9677 8.1543 96.6685 8.59172C97.3707 9.02922 97.9218 9.65415 98.3227 10.4666C98.736 11.279 98.9424 12.2227 98.9424 13.2976C98.9424 14.3725 98.736 15.3225 98.3227 16.1473C97.9218 16.9598 97.3707 17.5909 96.6685 18.0409C95.9677 18.4784 95.1852 18.6972 94.3209 18.6972C93.5944 18.6972 92.9489 18.5471 92.3852 18.2472C91.834 17.9472 91.4023 17.5597 91.0891 17.0847V23.5342H87.8765V8.08555H91.0891V9.56665ZM95.6737 13.2976C95.6737 12.4977 95.4483 11.8727 94.9973 11.4228C94.5589 10.9603 94.0136 10.729 93.3623 10.729C92.7234 10.729 92.1789 10.9603 91.7279 11.4228C91.2895 11.8853 91.0707 12.5164 91.0707 13.3163C91.0707 14.1163 91.2895 14.7475 91.7279 15.21C92.1789 15.6725 92.7234 15.9036 93.3623 15.9036C94.0018 15.9036 94.5464 15.6725 94.9973 15.21C95.4483 14.735 95.6737 14.0975 95.6737 13.2976Z" fill="white"/>
<path d="M104.329 18.6972C103.414 18.6972 102.601 18.5409 101.888 18.2284C101.173 17.916 100.609 17.491 100.197 16.9536C99.7825 16.4036 99.5511 15.7911 99.501 15.1161H102.676C102.714 15.4786 102.883 15.7724 103.184 15.9974C103.484 16.2224 103.854 16.3349 104.292 16.3349C104.693 16.3349 104.999 16.2598 105.213 16.1099C105.438 15.9474 105.551 15.7411 105.551 15.4911C105.551 15.1911 105.394 14.9725 105.081 14.8349C104.767 14.685 104.26 14.5225 103.559 14.3475C102.807 14.1725 102.181 13.9912 101.68 13.8038C101.179 13.6038 100.747 13.2976 100.384 12.8851C100.021 12.4602 99.8392 11.8915 99.8392 11.179C99.8392 10.5791 100.002 10.0354 100.327 9.5479C100.665 9.04797 101.154 8.65422 101.793 8.36672C102.445 8.0793 103.215 7.93555 104.103 7.93555C105.419 7.93555 106.453 8.26055 107.204 8.91047C107.968 9.5604 108.406 10.4228 108.519 11.4978H105.551C105.5 11.1353 105.338 10.8478 105.062 10.6353C104.799 10.4228 104.448 10.3166 104.01 10.3166C103.635 10.3166 103.347 10.3916 103.145 10.5416C102.946 10.679 102.846 10.8728 102.846 11.1228C102.846 11.4228 103.002 11.6478 103.315 11.7977C103.64 11.9478 104.142 12.0977 104.818 12.2476C105.595 12.4477 106.228 12.6476 106.715 12.8477C107.204 13.035 107.63 13.3476 107.993 13.785C108.369 14.21 108.563 14.785 108.575 15.5099C108.575 16.1224 108.4 16.6723 108.049 17.1597C107.711 17.6347 107.216 18.0097 106.566 18.2847C105.926 18.5596 105.181 18.6972 104.329 18.6972Z" fill="white"/>
<path d="M120.329 8.08594V18.5476H117.117V17.1227C116.791 17.5852 116.347 17.9601 115.783 18.2476C115.232 18.5226 114.618 18.6601 113.942 18.6601C113.14 18.6601 112.432 18.4851 111.818 18.1351C111.204 17.7726 110.729 17.2539 110.391 16.579C110.053 15.904 109.884 15.1104 109.884 14.198V8.08594H113.077V13.7667C113.077 14.4667 113.259 15.0103 113.622 15.3978C113.986 15.7853 114.474 15.979 115.087 15.979C115.714 15.979 116.208 15.7853 116.572 15.3978C116.935 15.0103 117.117 14.4667 117.117 13.7667V8.08594H120.329Z" fill="white"/>
<path d="M135.45 7.97266C136.753 7.97266 137.786 8.36633 138.55 9.15376C139.327 9.94119 139.715 11.0349 139.715 12.4348V18.5467H136.521V12.866C136.521 12.191 136.339 11.6724 135.976 11.3099C135.625 10.9349 135.137 10.7474 134.511 10.7474C133.884 10.7474 133.39 10.9349 133.026 11.3099C132.676 11.6724 132.5 12.191 132.5 12.866V18.5467H129.306V12.866C129.306 12.191 129.125 11.6724 128.762 11.3099C128.41 10.9349 127.922 10.7474 127.296 10.7474C126.67 10.7474 126.175 10.9349 125.811 11.3099C125.461 11.6724 125.286 12.191 125.286 12.866V18.5467H122.073V8.08516H125.286V9.39751C125.612 8.96008 126.037 8.61633 126.563 8.36633C127.09 8.10391 127.684 7.97266 128.348 7.97266C129.137 7.97266 129.839 8.14141 130.453 8.47883C131.079 8.81633 131.567 9.29751 131.918 9.92251C132.282 9.34751 132.776 8.87883 133.402 8.51633C134.029 8.15391 134.712 7.97266 135.45 7.97266Z" fill="white"/>
</svg>
