<svg width="140" height="35" viewBox="0 0 140 35" fill="none" xmlns="http://www.w3.org/2000/svg">
<g clip-path="url(#clip0_4628_572)">
<path d="M0.804077 25.5183V8.50586L9.39985 13.2315V20.8398L16.2765 24.6676L23.153 20.8398V13.2315L31.7489 8.50586V25.5183L16.2765 34.0244L0.804077 25.5183Z" fill="white"/>
<path fill-rule="evenodd" clip-rule="evenodd" d="M5.10196 10.8691L0.804077 8.50624L16.2765 0L31.7489 8.50624L27.4509 10.8691V23.3921L16.2765 29.7718L5.10195 23.3921L5.10196 10.8691ZM26.9854 11.125L23.153 13.2319V13.1846L16.2765 9.35681L9.39985 13.1846V13.2319L5.56755 11.125V23.1304L16.2765 29.2443L26.9854 23.1304V11.125Z" fill="white"/>
<path d="M39.9871 24.1732V9.88281H42.7102V21.7234H49.3118V24.1732H39.9871Z" fill="white"/>
<path d="M55.1908 24.4611C54.1732 24.4611 53.2586 24.257 52.4471 23.8486C51.6357 23.4403 50.9962 22.8483 50.5286 22.0725C50.0609 21.2968 49.8271 20.3645 49.8271 19.2757V18.949C49.8271 17.8603 50.0609 16.928 50.5286 16.1522C50.9962 15.3764 51.6357 14.7844 52.4471 14.3762C53.2586 13.9678 54.1732 13.7637 55.1908 13.7637C56.2086 13.7637 57.1232 13.9678 57.9347 14.3762C58.7461 14.7844 59.3856 15.3764 59.8532 16.1522C60.3208 16.928 60.5547 17.8603 60.5547 18.949V19.2757C60.5547 20.3645 60.3208 21.2968 59.8532 22.0725C59.3856 22.8483 58.7461 23.4403 57.9347 23.8486C57.1232 24.257 56.2086 24.4611 55.1908 24.4611ZM55.1908 22.1746C55.9886 22.1746 56.6488 21.9229 57.1713 21.4193C57.694 20.9021 57.9553 20.1671 57.9553 19.2144V19.0103C57.9553 18.0577 57.694 17.3294 57.1713 16.8259C56.6625 16.3088 56.0023 16.0501 55.1908 16.0501C54.3932 16.0501 53.733 16.3088 53.2104 16.8259C52.6878 17.3294 52.4265 18.0577 52.4265 19.0103V19.2144C52.4265 20.1671 52.6878 20.9021 53.2104 21.4193C53.733 21.9229 54.3932 22.1746 55.1908 22.1746Z" fill="white"/>
<path d="M61.5306 19.1532V18.8266C61.5306 17.765 61.7437 16.8599 62.1701 16.1114C62.5964 15.3492 63.1604 14.7708 63.8617 14.3762C64.577 13.9678 65.354 13.7637 66.1929 13.7637C67.1281 13.7637 67.8365 13.927 68.3178 14.2537C68.7991 14.5803 69.1499 14.9206 69.3699 15.2744H69.7413V14.0494H72.2994V25.9718C72.2994 26.6659 72.0931 27.2171 71.6804 27.6254C71.2679 28.0473 70.7177 28.2583 70.03 28.2583H63.1809V26.0127H69.1224C69.5074 26.0127 69.7 25.8085 69.7 25.4002V22.7666H69.3286C69.1911 22.9844 68.9985 23.2089 68.751 23.4403C68.5035 23.6581 68.1733 23.8418 67.7608 23.9915C67.3482 24.1412 66.8255 24.2161 66.1929 24.2161C65.354 24.2161 64.577 24.0187 63.8617 23.624C63.1604 23.2157 62.5964 22.6373 62.1701 21.8888C61.7437 21.1267 61.5306 20.2148 61.5306 19.1532ZM66.9356 21.9705C67.7332 21.9705 68.4003 21.7187 68.9367 21.2151C69.4731 20.7116 69.7413 20.0038 69.7413 19.092V18.8878C69.7413 17.9623 69.4731 17.2546 68.9367 16.7647C68.414 16.2611 67.7471 16.0093 66.9356 16.0093C66.1379 16.0093 65.4708 16.2611 64.9346 16.7647C64.3981 17.2546 64.1299 17.9623 64.1299 18.8878V19.092C64.1299 20.0038 64.3981 20.7116 64.9346 21.2151C65.4708 21.7187 66.1379 21.9705 66.9356 21.9705Z" fill="white"/>
<path d="M79.1214 24.4611C78.1038 24.4611 77.1894 24.257 76.3781 23.8486C75.5661 23.4403 74.9273 22.8483 74.4594 22.0725C73.9915 21.2968 73.7579 20.3645 73.7579 19.2757V18.949C73.7579 17.8603 73.9915 16.928 74.4594 16.1522C74.9273 15.3764 75.5661 14.7844 76.3781 14.3762C77.1894 13.9678 78.1038 13.7637 79.1214 13.7637C80.1397 13.7637 81.0541 13.9678 81.8654 14.3762C82.6767 14.7844 83.3163 15.3764 83.7841 16.1522C84.252 16.928 84.4856 17.8603 84.4856 18.949V19.2757C84.4856 20.3645 84.252 21.2968 83.7841 22.0725C83.3163 22.8483 82.6767 23.4403 81.8654 23.8486C81.0541 24.257 80.1397 24.4611 79.1214 24.4611ZM79.1214 22.1746C79.9194 22.1746 80.5796 21.9229 81.102 21.4193C81.6245 20.9021 81.886 20.1671 81.886 19.2144V19.0103C81.886 18.0577 81.6245 17.3294 81.102 16.8259C80.5936 16.3088 79.9334 16.0501 79.1214 16.0501C78.3241 16.0501 77.6639 16.3088 77.1415 16.8259C76.6184 17.3294 76.3575 18.0577 76.3575 19.0103V19.2144C76.3575 20.1671 76.6184 20.9021 77.1415 21.4193C77.6639 21.9229 78.3241 22.1746 79.1214 22.1746Z" fill="white"/>
<path d="M85.9563 24.1759V14.05H88.5559V24.1759H85.9563ZM87.2561 12.866C86.7882 12.866 86.3896 12.7163 86.0595 12.4169C85.7434 12.1174 85.585 11.7227 85.585 11.2329C85.585 10.7429 85.7434 10.3482 86.0595 10.0487C86.3896 9.74938 86.7882 9.59961 87.2561 9.59961C87.7373 9.59961 88.1366 9.74938 88.4527 10.0487C88.7689 10.3482 88.9273 10.7429 88.9273 11.2329C88.9273 11.7227 88.7689 12.1174 88.4527 12.4169C88.1366 12.7163 87.7373 12.866 87.2561 12.866Z" fill="white"/>
<path d="M90.5078 28.2583V14.0494H93.0661V15.2744H93.4375C93.6711 14.8797 94.0351 14.5327 94.531 14.2332C95.0261 13.9202 95.7342 13.7637 96.656 13.7637C97.4813 13.7637 98.2439 13.9678 98.9454 14.3762C99.6469 14.7708 100.211 15.356 100.637 16.1319C101.064 16.9075 101.277 17.8466 101.277 18.949V19.2757C101.277 20.3781 101.064 21.3172 100.637 22.0929C100.211 22.8688 99.6469 23.4608 98.9454 23.869C98.2439 24.2637 97.4813 24.4611 96.656 24.4611C96.0363 24.4611 95.5139 24.3862 95.0873 24.2365C94.6747 24.1004 94.3379 23.9235 94.0771 23.7057C93.8295 23.4743 93.6298 23.243 93.4788 23.0116H93.1074V28.2583H90.5078ZM95.8713 22.2154C96.6833 22.2154 97.3501 21.9636 97.8725 21.4601C98.409 20.9429 98.6772 20.1943 98.6772 19.2144V19.0103C98.6772 18.0304 98.409 17.2886 97.8725 16.785C97.3369 16.2679 96.6693 16.0093 95.8713 16.0093C95.074 16.0093 94.4064 16.2679 93.8708 16.785C93.3343 17.2886 93.0661 18.0304 93.0661 19.0103V19.2144C93.0661 20.1943 93.3343 20.9429 93.8708 21.4601C94.4064 21.9636 95.074 22.2154 95.8713 22.2154Z" fill="white"/>
<path d="M106.984 24.4611C105.651 24.4611 104.557 24.1753 103.705 23.6036C102.852 23.032 102.336 22.2154 102.157 21.1538L104.55 20.5414C104.647 21.0177 104.805 21.3921 105.025 21.6643C105.259 21.9365 105.541 22.1338 105.871 22.2563C106.214 22.3651 106.586 22.4196 106.984 22.4196C107.589 22.4196 108.037 22.3175 108.326 22.1134C108.614 21.8956 108.759 21.6302 108.759 21.3172C108.759 21.0042 108.622 20.766 108.346 20.6027C108.072 20.4257 107.631 20.2829 107.026 20.174L106.449 20.0718C105.733 19.9358 105.08 19.752 104.489 19.5207C103.898 19.2757 103.422 18.9422 103.065 18.5204C102.708 18.0984 102.529 17.554 102.529 16.8871C102.529 15.88 102.9 15.111 103.643 14.5803C104.385 14.0359 105.362 13.7637 106.572 13.7637C107.714 13.7637 108.663 14.0155 109.419 14.519C110.176 15.0226 110.671 15.6827 110.905 16.4993L108.491 17.2342C108.381 16.7171 108.154 16.3495 107.81 16.1319C107.479 15.9141 107.067 15.8051 106.572 15.8051C106.077 15.8051 105.699 15.8936 105.438 16.0705C105.177 16.2339 105.046 16.4652 105.046 16.7647C105.046 17.0913 105.183 17.3362 105.458 17.4996C105.733 17.6493 106.104 17.765 106.572 17.8466L107.149 17.9487C107.92 18.0848 108.614 18.2685 109.234 18.4999C109.866 18.7177 110.361 19.0375 110.719 19.4595C111.091 19.8677 111.276 20.4257 111.276 21.1334C111.276 22.1951 110.884 23.0184 110.1 23.6036C109.33 24.1753 108.291 24.4611 106.984 24.4611Z" fill="white"/>
<path d="M116.524 24.336C115.727 24.336 115.025 24.1591 114.421 23.8053C113.829 23.4377 113.368 22.9342 113.038 22.2946C112.708 21.6549 112.542 20.9199 112.542 20.0898V14.0469H115.142V19.8855C115.142 20.6477 115.328 21.2194 115.7 21.6004C116.084 21.9815 116.627 22.1721 117.329 22.1721C118.126 22.1721 118.746 21.9134 119.186 21.3963C119.626 20.8655 119.845 20.1306 119.845 19.1915V14.0469H122.445V24.1727H119.886V22.8457H119.516C119.351 23.186 119.041 23.5194 118.587 23.8461C118.134 24.1727 117.445 24.336 116.524 24.336Z" fill="white"/>
<path d="M124.41 24.1739V14.048H126.967V15.1505H127.339C127.517 14.8102 127.813 14.5176 128.225 14.2725C128.638 14.014 129.182 13.8848 129.856 13.8848C130.585 13.8848 131.169 14.0276 131.61 14.3134C132.049 14.5856 132.386 14.9463 132.621 15.3954H132.991C133.225 14.9599 133.556 14.5993 133.982 14.3134C134.408 14.0276 135.013 13.8848 135.797 13.8848C136.429 13.8848 137 14.0208 137.509 14.293C138.032 14.5516 138.445 14.9531 138.747 15.4975C139.063 16.0282 139.221 16.702 139.221 17.5186V24.1739H136.622V17.7023C136.622 17.1443 136.478 16.7292 136.189 16.457C135.899 16.1712 135.494 16.0282 134.972 16.0282C134.381 16.0282 133.92 16.2188 133.589 16.5999C133.273 16.9673 133.116 17.4982 133.116 18.1923V24.1739H130.516V17.7023C130.516 17.1443 130.371 16.7292 130.083 16.457C129.794 16.1712 129.389 16.0282 128.865 16.0282C128.274 16.0282 127.813 16.2188 127.483 16.5999C127.166 16.9673 127.009 17.4982 127.009 18.1923V24.1739H124.41Z" fill="white"/>
</g>
<defs>
<clipPath id="clip0_4628_572">
<rect width="140" height="35" fill="white"/>
</clipPath>
</defs>
</svg>
