<svg width="18" height="18" viewBox="0 0 18 18" fill="none" xmlns="http://www.w3.org/2000/svg">
<g clip-path="url(#clip0_4690_250)">
<mask id="mask0_4690_250" style="mask-type:luminance" maskUnits="userSpaceOnUse" x="0" y="0" width="18" height="18">
<path d="M0 0H18V18H0V0Z" fill="white"/>
</mask>
<g mask="url(#mask0_4690_250)">
<path d="M17.3781 17.938C16.6826 17.938 15.5306 17.4685 14.1388 16.6161C12.6779 15.7207 11.0039 14.4424 9.29499 12.9207L9.00339 12.6643L8.71683 12.9207C7.00791 14.4424 5.33391 15.7207 3.87303 16.6164C2.47695 17.4685 1.32927 17.9376 0.633394 17.9376C0.420274 17.9376 0.264034 17.8944 0.172594 17.8033C-0.0750863 17.5553 -0.0405263 16.6553 0.872794 14.9511C1.74651 13.3336 3.22935 11.3122 5.05527 9.26413L5.31627 8.97289L5.05527 8.68165C3.22935 6.63397 1.74219 4.61221 0.872074 2.99473C-0.0401662 1.28617 -0.0747263 0.390493 0.172954 0.142813C0.264034 0.0513725 0.420274 0.0078125 0.633394 0.0078125C1.32927 0.0078125 2.47695 0.477612 3.87303 1.32973C5.33391 2.22541 7.00791 3.50341 8.71683 5.02513L9.00375 5.28181L9.29535 5.02513C11.0036 3.50377 12.6776 2.22577 14.1388 1.32973C15.5302 0.477612 16.6826 0.0078125 17.3781 0.0078125C17.5912 0.0078125 17.7474 0.0513725 17.8389 0.142813C18.0866 0.390493 18.052 1.28617 17.1344 2.99473C16.265 4.61221 14.7821 6.63397 12.9558 8.68165L12.6948 8.97325L12.9558 9.26413C14.7821 11.3122 16.265 13.3336 17.139 14.9511C18.052 16.6553 18.0869 17.5553 17.8389 17.8033C17.7474 17.8944 17.5912 17.938 17.3781 17.938Z" fill="#B3B3B3"/>
</g>
</g>
<defs>
<clipPath id="clip0_4690_250">
<rect width="18" height="18" fill="white"/>
</clipPath>
</defs>
</svg>
