<svg width="18" height="18" viewBox="0 0 18 18" fill="none" xmlns="http://www.w3.org/2000/svg">
<g clip-path="url(#clip0_4690_264)">
<mask id="mask0_4690_264" style="mask-type:luminance" maskUnits="userSpaceOnUse" x="0" y="0" width="18" height="18">
<path d="M0 0H18V18H0V0Z" fill="white"/>
</mask>
<g mask="url(#mask0_4690_264)">
<path d="M3.20326 9.02229C1.4424 11.7112 0.357518 14.7859 0.0410156 17.9845C3.23971 17.6651 6.31423 16.5791 9.00394 14.8186C7.85125 14.0632 6.77982 13.1904 5.80678 12.2144C4.83081 11.243 3.95808 10.1731 3.20254 9.02193M14.801 9.02229C16.5981 6.27981 17.6504 3.19857 17.9669 0.0546875C14.7684 0.375116 11.6942 1.46114 9.0043 3.22089C10.1555 3.97632 11.2254 4.84893 12.1968 5.82477C13.1728 6.79793 14.0455 7.86947 14.801 9.02229Z" fill="#B3B3B3"/>
<path d="M9.00394 3.22011C6.31408 1.46068 3.23946 0.376163 0.0410156 0.0585938C0.358693 3.25707 1.44334 6.33169 3.2029 9.02151C3.95838 7.86883 4.83111 6.7974 5.80714 5.82435C6.78007 4.84835 7.85137 3.97562 9.00394 3.22011ZM12.1964 12.214C11.225 13.19 10.1551 14.0627 9.00394 14.8182C11.7417 16.6154 14.823 17.6676 17.9665 17.9841C17.6497 14.8406 16.5978 11.7593 14.8007 9.02151C14.0451 10.1727 13.1724 11.2426 12.1964 12.214Z" fill="#B3B3B3"/>
</g>
</g>
<defs>
<clipPath id="clip0_4690_264">
<rect width="18" height="18" fill="white"/>
</clipPath>
</defs>
</svg>
