<svg width="18" height="18" viewBox="0 0 18 18" fill="none" xmlns="http://www.w3.org/2000/svg">
<g clip-path="url(#clip0_4690_243)">
<mask id="mask0_4690_243" style="mask-type:luminance" maskUnits="userSpaceOnUse" x="0" y="0" width="18" height="18">
<path d="M0 0H18V18H0V0Z" fill="white"/>
</mask>
<g mask="url(#mask0_4690_243)">
<path d="M0.0521919 0.06286V3.30718C3.23819 3.30718 5.78411 5.85022 5.78411 9.02758C5.78411 12.2082 3.23819 14.7483 0.0521919 14.7483V17.9927C4.71851 17.9927 8.58059 14.3981 8.99783 9.84586C9.41543 14.3981 13.2772 17.9927 17.9431 17.9927V14.7491C14.7571 14.7491 12.2087 12.2057 12.2087 9.0283C12.2087 5.85094 14.7575 3.3079 17.9435 3.3079V0.0625C13.2772 0.0625 9.41255 3.65746 8.99747 8.2093C8.58095 3.65782 4.71887 0.06286 0.0525519 0.06286" fill="#B3B3B3"/>
</g>
</g>
<defs>
<clipPath id="clip0_4690_243">
<rect width="18" height="18" fill="white"/>
</clipPath>
</defs>
</svg>
