<svg width="18" height="18" viewBox="0 0 18 18" fill="none" xmlns="http://www.w3.org/2000/svg">
<g clip-path="url(#clip0_4690_257)">
<mask id="mask0_4690_257" style="mask-type:luminance" maskUnits="userSpaceOnUse" x="0" y="0" width="18" height="18">
<path d="M0 0H18V18H0V0Z" fill="white"/>
</mask>
<g mask="url(#mask0_4690_257)">
<path d="M4.54526 0.047235C2.07206 0.047235 0.0629044 2.05387 0.0629044 4.53067C0.0630952 5.71948 0.535381 6.85955 1.37592 7.70023C2.21647 8.5409 3.35646 9.01337 4.54526 9.01375C7.0217 9.01375 9.02798 7.00495 9.02798 4.53103C9.02798 2.05423 7.0217 0.047235 4.54526 0.047235ZM9.02798 4.53103C9.02818 5.71984 9.50046 6.85955 10.341 7.70023C11.1815 8.5409 12.3215 9.01337 13.5103 9.01375C14.6991 9.01337 15.8391 8.5409 16.6797 7.70023C17.5202 6.85955 17.9925 5.71948 17.9927 4.53067C17.9927 2.05387 15.9868 0.046875 13.5107 0.046875C11.0371 0.046875 9.02798 2.05351 9.02798 4.53031M13.5103 9.01375C11.0371 9.01375 9.02798 11.02 9.02798 13.494C9.02798 14.6852 9.50067 15.8232 10.3413 16.6638C10.757 17.0806 11.251 17.4112 11.7948 17.6366C12.3386 17.862 12.9216 17.9778 13.5103 17.9774C14.6983 17.9774 15.8392 17.5069 16.6794 16.6638C17.0958 16.2475 17.4261 15.7534 17.6514 15.2095C17.8767 14.6656 17.9927 14.0827 17.9927 13.494C17.9927 11.02 15.9868 9.01375 13.5103 9.01375ZM9.02835 13.494C9.02835 11.02 7.0217 9.01375 4.54526 9.01375C3.6587 9.01318 2.79225 9.27565 2.05492 9.76794C1.3176 10.2602 0.74291 10.9602 0.403603 11.7793C0.0642966 12.5984 -0.0243717 13.4997 0.148822 14.3692C0.322016 15.2387 0.749286 16.0372 1.37654 16.6638C1.79229 17.0806 2.28625 17.4112 2.83009 17.6366C3.37392 17.862 3.95692 17.9778 4.54562 17.9774C5.13445 17.9783 5.71763 17.8627 6.26159 17.6372C6.80554 17.4118 7.29952 17.0809 7.71506 16.6638C8.13206 16.248 8.46275 15.7539 8.68813 15.21C8.91351 14.666 9.02913 14.0828 9.02835 13.494Z" fill="#B3B3B3"/>
</g>
</g>
<defs>
<clipPath id="clip0_4690_257">
<rect width="18" height="18" fill="white"/>
</clipPath>
</defs>
</svg>
