<svg width="500" height="504" viewBox="0 0 500 504" fill="none" xmlns="http://www.w3.org/2000/svg">
<g opacity="0.2">
<path d="M169.737 12.5322C96.3489 56.7306 65.1401 144.868 89.2979 223.777L89.4531 224.282L89.9482 224.101C136.505 206.992 190.17 225.018 216.469 269.172L217.085 270.22C231.301 294.701 235.02 322.286 229.012 348.005L228.719 349.228L228.717 349.233C222.399 376.08 205.589 400.594 180.581 415.89L179.384 416.611L179.381 416.612C128.851 447.088 64.2864 430.252 34.6035 379.728L33.8076 378.135L33.8018 378.123L33.7949 378.111L32.999 376.701C-34.2609 256.67 6.10768 103.974 124.284 33.875L124.283 33.874C139.017 25.25 154.073 18.233 169.737 12.5322Z" stroke="#EDEDED"/>
<path d="M345.394 222.902C371.849 215.401 401.02 218.005 426.405 232.622L427.611 233.327L427.619 233.332C478.55 262.204 495.802 327.574 466.521 378.512L466.507 378.537L465.711 380.127C395.602 498.689 244.502 538.646 126.075 469.806L124.684 468.991L124.682 468.99L123.141 468.08C109.025 459.681 96.093 450.096 84.085 439.583C157.93 482.781 249.311 467.347 305.728 407.309L306.085 406.929L305.689 406.588C267.588 373.703 257.158 317.152 283.229 271.83C297.671 246.961 320.13 230.119 345.393 222.901L345.394 222.902Z" stroke="#EDEDED"/>
<path d="M251.767 0.5L253.372 0.523438C389.764 2.98781 499.503 115.247 499.503 253.851C499.503 271.505 497.82 288.819 494.458 305.179V304.62C494.458 218.561 435.061 145.833 355.049 126.842L354.537 126.721L354.441 127.237C345.215 176.975 302.295 214.668 250.563 214.668C222.533 214.668 197.223 203.789 178.073 185.85L177.166 184.99C157.112 165.337 144.68 138.065 144.68 107.584C144.68 49.0838 190.879 1.64707 248.794 0.517578L250.164 0.5H251.767Z" stroke="#EDEDED"/>
</g>
</svg>
