<svg width="251" height="264" viewBox="0 0 251 264" fill="none" xmlns="http://www.w3.org/2000/svg">
<g opacity="0.2">
<path d="M95.0537 89.5869C94.6735 55.7444 110.644 22.663 139.352 2.12988C143.549 -0.843244 149.29 0.409449 152.122 4.61914L152.387 5.03516L161.934 21.6465L161.937 21.6514C164.206 25.4913 163.102 30.3716 159.727 33.1514L159.393 33.4141L159.39 33.416C145.754 43.8318 136.777 58.5377 133.562 74.415L133.413 75.1729C132.016 82.5563 139.848 88.1455 146.448 84.6592L146.762 84.4863L146.771 84.4805C154.688 79.693 163.32 75.9762 172.492 73.502L173.381 73.2666L173.386 73.2656C196.968 66.9021 221.653 68.8291 243.635 78.6826L244.68 79.1582L244.687 79.1611C249.413 81.2618 251.26 86.9272 248.904 91.3906L248.663 91.8184L248.658 91.8271L239.11 108.44C236.825 112.307 232.165 113.951 228.098 112.407L227.706 112.248L227.701 112.246L226.381 111.701C212.696 106.215 197.795 105.253 183.258 109.165C181.924 109.498 180.567 109.837 179.204 110.309L178.625 110.517C171.362 113.139 170.331 123.046 177.211 126.895V126.896C206.223 143.367 226.757 172.918 230.656 207.386L230.829 209.031V209.034C231.37 214.26 227.037 218.798 221.775 218.798H202.481C197.929 218.798 194.21 215.403 193.487 211.064L193.427 210.643L193.426 210.635L193.313 209.834C190.891 193.3 182.722 178.431 170.727 167.852L170.144 167.343C164.251 162.263 155.372 166.759 155.372 174.407V174.413C155.752 208.256 139.781 241.337 111.074 261.87C106.877 264.843 101.135 263.591 98.3037 259.381L98.0391 258.965L88.4922 242.354L88.4893 242.349L88.2803 241.974C86.2939 238.196 87.4323 233.539 90.6992 230.849L91.0332 230.586L91.0361 230.584C104.671 220.168 113.649 205.462 116.863 189.585L117.013 188.827C118.41 181.444 110.578 175.855 103.978 179.341L103.664 179.514L103.655 179.52C95.7376 184.307 87.106 188.024 77.9336 190.498L77.0449 190.733L77.04 190.734C67.9161 193.205 58.5995 194.347 49.4717 194.347C34.9226 194.347 20.5509 191.313 7.04688 185.419L5.74219 184.84L5.73926 184.839L5.29102 184.624C0.898503 182.373 -0.758374 176.929 1.52148 172.609L1.7627 172.182L1.76758 172.173L11.3184 155.554L11.3242 155.544C13.4198 151.702 18.2402 150.045 22.3271 151.592L22.7197 151.752L22.7236 151.754C36.7703 157.719 52.1672 158.874 67.1758 154.833L67.1748 154.832C68.6967 154.452 70.2502 154.064 71.8066 153.48L71.8057 153.479C79.0638 150.854 80.0934 140.951 73.2139 137.104H73.2148C44.2025 120.633 23.6683 91.0815 19.7695 56.6143L19.5967 54.9688V54.9658L19.5596 54.4785C19.3269 49.4608 23.5526 45.2021 28.6504 45.2021H47.9434C52.4964 45.2021 56.2156 48.5972 56.9385 52.9355L56.999 53.3574L57 53.3652C59.2725 70.2192 67.51 85.398 79.6992 96.1484L80.2822 96.6572C86.1745 101.737 95.0537 97.2414 95.0537 89.5928V89.5869Z" stroke="#EDEDED"/>
</g>
</svg>
