<svg width="250" height="250" viewBox="0 0 250 250" fill="none" xmlns="http://www.w3.org/2000/svg">
<g opacity="0.2">
<path d="M65.4043 149.743L65.3682 149.654C62.8863 143.45 56.8892 139.524 50.2803 139.524H0.5V110.476H50.2803C56.8892 110.476 62.8863 106.55 65.3682 100.346L65.4043 100.257V100.054C67.7539 94.2717 66.6555 87.545 62.2871 82.8311L61.8516 82.3789L26.5479 47.0752L47.0752 26.5479L82.3789 61.8516C86.9177 66.5899 93.8979 67.8253 100.053 65.4033H100.257L100.346 65.3682C106.55 62.8863 110.476 56.8892 110.476 50.2803V0.5H139.524V50.2803C139.524 56.8892 143.45 62.8863 149.654 65.3682L149.743 65.4033H149.943C155.726 67.7544 162.454 66.6562 167.169 62.2871L167.621 61.8516L202.924 26.5479L223.451 47.0752L188.147 82.3789C183.41 86.917 182.175 93.8958 184.596 100.05V100.257L184.632 100.346C187.114 106.55 193.111 110.476 199.72 110.476H249.5V139.524H199.72C193.111 139.524 187.114 143.45 184.632 149.654L184.596 149.743V149.945C182.246 155.728 183.344 162.455 187.713 167.169L188.147 167.621L223.451 202.925L202.924 223.451L167.621 188.148C163.083 183.411 156.104 182.175 149.95 184.596H149.743L149.654 184.632C143.45 187.114 139.524 193.111 139.524 199.72V249.5H110.476V199.72C110.476 193.111 106.55 187.114 100.346 184.632L100.257 184.596H100.055C94.2725 182.246 87.5452 183.344 82.8311 187.713L82.3789 188.148L47.0752 223.451L26.5479 202.924L61.8438 167.629C66.5881 163.091 67.8265 156.107 65.4043 149.949V149.743Z" stroke="#EDEDED"/>
</g>
</svg>
