<svg width="250" height="250" viewBox="0 0 250 250" fill="none" xmlns="http://www.w3.org/2000/svg">
<g opacity="0.2">
<path d="M54.0703 0.5H195.93C223.615 0.5 246.425 21.6334 249.052 48.7393H225.158V59.1465H249.5V190.854H225.158V201.261H249.052C246.425 228.367 223.615 249.5 195.93 249.5H54.0703C26.3846 249.5 3.57466 228.367 0.948242 201.261H24.8418V190.854H0.5V59.1465H24.8418V48.7393H0.948242C3.57465 21.6334 26.3846 0.5 54.0703 0.5ZM125.299 76.1611C98.4851 76.1614 76.7148 98.0046 76.7148 124.9C76.7151 151.796 98.4852 173.638 125.299 173.639C151.912 173.639 173.884 151.797 173.884 124.9C173.884 98.0045 152.113 76.1611 125.299 76.1611Z" stroke="#EDEDED"/>
</g>
</svg>
