<svg width="250" height="250" viewBox="0 0 250 250" fill="none" xmlns="http://www.w3.org/2000/svg">
<g opacity="0.2">
<path d="M59.0957 25.3438C62.3957 22.2274 67.8447 24.4499 67.8447 28.9775V62.75C67.8447 65.6713 65.6703 67.8457 62.749 67.8457H28.9766C24.4841 67.8457 22.1339 62.5491 25.1836 59.2617L25.333 59.1064L59.0957 25.3438Z" stroke="#EDEDED"/>
<path d="M187.252 182.154H221.024C225.588 182.154 227.941 187.621 224.668 190.894L190.905 224.656C187.605 227.773 182.156 225.55 182.156 221.022V187.25C182.156 184.329 184.331 182.154 187.252 182.154Z" stroke="#EDEDED"/>
<path d="M28.9775 182.154H62.75C65.6713 182.154 67.8457 184.329 67.8457 187.25V221.022C67.8457 225.515 62.5491 227.865 59.2617 224.815L59.1064 224.666L25.3428 190.902C22.2277 187.602 24.4503 182.154 28.9775 182.154Z" stroke="#EDEDED"/>
<path d="M182.156 28.9766C182.156 24.4841 187.453 22.134 190.74 25.1836L190.896 25.333L224.658 59.0957L224.8 59.252C227.704 62.5646 225.481 67.8447 221.024 67.8447H187.252C184.331 67.8447 182.156 65.6703 182.156 62.749V28.9766Z" stroke="#EDEDED"/>
<path d="M100.919 0.5H148.88C153.444 0.5 155.796 5.96539 152.523 9.23828L128.543 33.2197C126.61 35.1523 123.649 35.232 121.451 33.3887L121.24 33.2041L97.2754 9.23828C94.1735 5.93726 96.396 0.5 100.919 0.5Z" stroke="#EDEDED"/>
<path d="M121.458 216.779C123.391 214.847 126.352 214.767 128.55 216.61L128.761 216.795L152.726 240.761C155.827 244.062 153.605 249.499 149.082 249.499H101.121C96.6286 249.499 94.2783 244.202 97.3281 240.915L97.4775 240.761L121.458 216.779Z" stroke="#EDEDED"/>
<path d="M0.503906 100.906C0.667668 96.5529 5.84886 94.3249 9.08398 97.3262L9.23828 97.4756L33.2197 121.456C35.2146 123.451 35.2351 126.542 33.2041 128.758L9.23828 152.723C5.9373 155.825 0.5 153.603 0.5 149.08V101.119L0.503906 100.906Z" stroke="#EDEDED"/>
<path d="M240.761 97.2754C244.062 94.1734 249.499 96.396 249.499 100.919V148.88C249.499 153.372 244.202 155.723 240.915 152.673L240.761 152.523L216.779 128.543C214.847 126.61 214.767 123.649 216.61 121.451L216.795 121.24L240.761 97.2754Z" stroke="#EDEDED"/>
</g>
</svg>
