<svg width="50" height="50" viewBox="0 0 50 50" fill="none" xmlns="http://www.w3.org/2000/svg">
<path d="M41.101 34.8545C43.0086 30.938 37.1082 29.6845 32.8916 31.3258C28.3661 33.0873 23.0692 33.2201 18.1938 31.3046C13.3181 29.3889 9.83114 25.8044 8.1996 21.6234C8.0645 21.2772 7.54508 21.2553 7.37553 21.6034V21.6034C3.30136 29.968 7.54851 39.7155 16.8617 43.3748C26.1747 47.0337 37.0268 43.219 41.101 34.8545V34.8545Z" fill="black"/>
<path d="M8.89954 15.1462C5.83074 21.4466 15.7731 22.4637 22.9533 21.5003C26.261 21.0565 29.7433 21.4166 33.0335 22.7093C36.3233 24.0019 38.9797 26.0546 40.8614 28.5374C41.3074 29.1259 42.29 29.0852 42.625 28.3973V28.3973C46.6992 20.0327 42.452 10.2852 33.1389 6.62594C23.8258 2.96695 12.9737 6.78161 8.89954 15.1462V15.1462Z" fill="black"/>
</svg>
