<svg width="20" height="20" viewBox="0 0 20 20" fill="none" xmlns="http://www.w3.org/2000/svg">
<path d="M13.2668 5.62697C12.5371 5.6269 11.8883 5.62685 11.3644 5.6973C10.7951 5.77388 10.2202 5.95044 9.75028 6.42047C9.28036 6.89049 9.10387 7.46559 9.02737 8.03514C8.95695 8.55914 8.95695 9.20823 8.95703 9.93806V10.6286H8.33203C7.75673 10.6286 7.29036 11.0951 7.29036 11.6706C7.29036 12.246 7.75673 12.7126 8.33203 12.7126H8.95703V17.7104C8.95703 18.1056 8.95703 18.3032 8.83312 18.4256C8.7092 18.5481 8.51312 18.5456 8.12095 18.5406C7.12975 18.5281 6.28682 18.4933 5.57205 18.3971C4.42484 18.2429 3.51462 17.9202 2.79946 17.2048C2.0843 16.4895 1.76176 15.579 1.60752 14.4314C1.45701 13.3115 1.45702 11.8771 1.45703 10.051V9.95564C1.45702 8.12953 1.45701 6.69516 1.60752 5.5753C1.76176 4.42773 2.0843 3.51723 2.79946 2.80183C3.51462 2.08644 4.42484 1.76381 5.57205 1.60953C6.69156 1.45897 8.12548 1.45898 9.95103 1.45898H10.0464C11.8719 1.45898 13.3059 1.45897 14.4254 1.60953C15.5725 1.76381 16.4828 2.08644 17.1979 2.80183C17.9131 3.51723 18.2356 4.42772 18.3899 5.5753C18.5404 6.69516 18.5404 8.12953 18.5404 9.95564V10.0511C18.5404 11.8771 18.5404 13.3115 18.3899 14.4314C18.2356 15.579 17.9131 16.4895 17.1979 17.2048C16.4828 17.9202 15.5725 18.2429 14.4254 18.3971C13.7106 18.4933 12.8676 18.5281 11.8764 18.5406C11.4843 18.5456 11.2882 18.5481 11.1643 18.4256C11.0404 18.3032 11.0404 18.1056 11.0404 17.7104V12.7126H12.4987C13.074 12.7126 13.5404 12.246 13.5404 11.6706C13.5404 11.0951 13.074 10.6286 12.4987 10.6286H11.0404V10.0033C11.0404 9.18798 11.0426 8.68123 11.0921 8.31283C11.1368 7.98029 11.2028 7.91461 11.2224 7.89508L11.2234 7.89408L11.2244 7.89307C11.2439 7.87343 11.3096 7.80741 11.642 7.7627C12.0104 7.71317 12.5169 7.71096 13.332 7.71096H14.1654C14.7407 7.71096 15.207 7.24444 15.207 6.66896C15.207 6.09348 14.7407 5.62697 14.1654 5.62697H13.2668Z" fill="white"/>
</svg>
