<svg width="20" height="20" viewBox="0 0 20 20" fill="none" xmlns="http://www.w3.org/2000/svg">
<path fill-rule="evenodd" clip-rule="evenodd" d="M10.0464 1.45898C11.8719 1.45898 13.3059 1.45897 14.4254 1.60948C15.5725 1.76372 16.4828 2.08624 17.1979 2.80141C17.9131 3.51658 18.2356 4.42679 18.3899 5.574C18.5404 6.69352 18.5404 8.1274 18.5404 9.95298V10.0483C18.5404 11.8739 18.5404 13.3078 18.3899 14.4273C18.2356 15.5745 17.9131 16.4847 17.1979 17.1999C16.4828 17.9151 15.5725 18.2376 14.4254 18.3918C13.3059 18.5423 11.8719 18.5423 10.0464 18.5423H9.95103C8.12545 18.5423 6.69157 18.5423 5.57205 18.3918C4.42484 18.2376 3.51462 17.9151 2.79946 17.1999C2.0843 16.4847 1.76176 15.5745 1.60752 14.4273C1.45701 13.3078 1.45702 11.8739 1.45703 10.0483V9.95298C1.45702 8.12742 1.45701 6.69352 1.60752 5.574C1.76176 4.42679 2.0843 3.51658 2.79946 2.80141C3.51462 2.08624 4.42484 1.76372 5.57205 1.60948C6.69156 1.45897 8.12545 1.45898 9.95103 1.45898H10.0464ZM13.7487 10.0007C13.7487 12.0717 12.0698 13.7507 9.9987 13.7507C7.92763 13.7507 6.2487 12.0717 6.2487 10.0007C6.2487 7.92958 7.92763 6.25065 9.9987 6.25065C12.0698 6.25065 13.7487 7.92958 13.7487 10.0007ZM14.5923 6.25065C15.0504 6.25065 15.4219 5.87756 15.4219 5.41732C15.4219 4.95708 15.0504 4.58398 14.5923 4.58398H14.5848C14.1266 4.58398 13.7552 4.95708 13.7552 5.41732C13.7552 5.87755 14.1266 6.25065 14.5848 6.25065H14.5923Z" fill="white"/>
</svg>
