<svg width="20" height="20" viewBox="0 0 20 20" fill="none" xmlns="http://www.w3.org/2000/svg">
<path fill-rule="evenodd" clip-rule="evenodd" d="M9.95103 1.45898H10.0464C11.8719 1.45898 13.3059 1.45897 14.4254 1.60948C15.5725 1.76372 16.4828 2.08624 17.1979 2.80141C17.9131 3.51658 18.2356 4.42679 18.3899 5.574C18.5404 6.69352 18.5404 8.12743 18.5404 9.95298V10.0483C18.5404 11.8739 18.5404 13.3078 18.3899 14.4273C18.2356 15.5745 17.9131 16.4847 17.1979 17.1999C16.4828 17.9151 15.5725 18.2376 14.4254 18.3918C13.3059 18.5423 11.8719 18.5423 10.0464 18.5423H9.95103C8.12545 18.5423 6.69157 18.5423 5.57205 18.3918C4.42484 18.2376 3.51462 17.9151 2.79946 17.1999C2.0843 16.4847 1.76176 15.5745 1.60752 14.4273C1.45701 13.3078 1.45702 11.8739 1.45703 10.0483V9.95298C1.45702 8.12741 1.45701 6.69352 1.60752 5.574C1.76176 4.42679 2.0843 3.51658 2.79946 2.80141C3.51462 2.08624 4.42484 1.76372 5.57205 1.60948C6.69156 1.45897 8.12548 1.45898 9.95103 1.45898ZM6.66699 8.75065C6.66699 8.29041 6.2939 7.91732 5.83366 7.91732C5.37342 7.91732 5.00032 8.29041 5.00032 8.75065V14.1673C5.00032 14.6276 5.37342 15.0007 5.83366 15.0007C6.2939 15.0007 6.66699 14.6276 6.66699 14.1673V8.75065ZM9.16703 7.50065C9.50478 7.50065 9.7957 7.70165 9.92653 7.99058C10.4331 7.67982 11.0291 7.50065 11.667 7.50065C13.5079 7.50065 15.0004 8.99307 15.0004 10.834V14.1673C15.0004 14.6276 14.6272 15.0007 14.167 15.0007C13.7068 15.0007 13.3337 14.6276 13.3337 14.1673V10.834C13.3337 9.91348 12.5874 9.16732 11.667 9.16732C10.7465 9.16732 10.0004 9.91348 10.0004 10.834V14.1673C10.0004 14.6276 9.6272 15.0007 9.16703 15.0007C8.70678 15.0007 8.3337 14.6276 8.3337 14.1673V8.33398C8.3337 7.87374 8.70678 7.50065 9.16703 7.50065ZM6.88184 5.83398C6.88184 6.40928 6.41546 6.87565 5.84017 6.87565H5.83268C5.25739 6.87565 4.79101 6.40928 4.79101 5.83398C4.79101 5.25868 5.25739 4.79232 5.83268 4.79232H5.84017C6.41546 4.79232 6.88184 5.25868 6.88184 5.83398Z" fill="white"/>
</svg>
