<svg xmlns="http://www.w3.org/2000/svg" width="1128" height="191" viewBox="0 0 1128 191">
  <!-- Background -->
  <rect width="1128" height="191" fill="#1A1814"/>

  <!-- Subtle constellation pattern -->
  <g opacity="0.12" fill="#C9A961">
    <circle cx="100" cy="30" r="1.5"/>
    <circle cx="180" cy="50" r="1.5"/>
    <circle cx="260" cy="35" r="1.5"/>
    <circle cx="950" cy="40" r="1.5"/>
    <circle cx="1020" cy="55" r="1.5"/>
    <circle cx="120" cy="155" r="1.5"/>
    <circle cx="200" cy="170" r="1.5"/>
    <circle cx="970" cy="145" r="1.5"/>
    <circle cx="1040" cy="160" r="1.5"/>
  </g>

  <!-- Logo constellation left -->
  <g transform="translate(40, 30) scale(0.35)">
    <g stroke="#697565" stroke-linecap="round" stroke-width="9">
      <path d="M80 15 20 165M80 15l60 150"/>
    </g>
    <g stroke="#697565" stroke-linecap="round" stroke-width="7">
      <path d="m80 120-38-25M80 120l38-25"/>
    </g>
    <g fill="#C9A961">
      <circle cx="80" cy="15" r="11"/>
      <circle cx="20" cy="165" r="11"/>
      <circle cx="140" cy="165" r="11"/>
      <circle cx="42" cy="95" r="7"/>
      <circle cx="118" cy="95" r="7"/>
      <circle cx="80" cy="120" r="5"/>
    </g>
  </g>

  <!-- Text content -->
  <text x="150" y="75" font-family="-apple-system, BlinkMacSystemFont, 'Segoe UI', sans-serif" font-size="32" font-weight="600" fill="#E8D7B0">Andria Labs</text>
  <text x="150" y="110" font-family="-apple-system, BlinkMacSystemFont, 'Segoe UI', sans-serif" font-size="18" font-weight="500" fill="#C9A961">AI Systems &amp; Strategy</text>
  <text x="150" y="140" font-family="-apple-system, BlinkMacSystemFont, 'Segoe UI', sans-serif" font-size="14" fill="#697565">Research-grade expertise. Production-ready solutions.</text>
</svg>
