<svg width="34" height="38" viewBox="0 0 34 38" fill="none" xmlns="http://www.w3.org/2000/svg">
<path fill-rule="evenodd" clip-rule="evenodd" d="M21.1216 23.0567C24.6151 21.9553 29.3823 23.0945 27.9142 26.4505C25.1473 32.7753 17.777 35.6595 11.4522 32.8926C5.12734 30.1257 2.24308 22.7554 5.00998 16.4306C5.20935 15.9749 5.85148 16.0191 6.06362 16.469C7.30765 19.1075 9.47552 21.3246 12.358 22.5856C15.2403 23.8465 18.3397 23.9338 21.1216 23.0567Z" fill="#ECDFCC"/>
<path fill-rule="evenodd" clip-rule="evenodd" d="M15.6467 16.3449C10.7164 17.0568 4.0454 16.1134 6.04194 11.5495C8.80885 5.22472 16.1791 2.34046 22.504 5.10736C28.8288 7.87427 31.7131 15.2446 28.9461 21.5694C28.7244 22.0763 28.0282 22.0804 27.7146 21.6245C26.4385 19.7697 24.6459 18.2366 22.4315 17.2679C20.2172 16.2992 17.8749 16.0232 15.6467 16.3449Z" fill="#ECDFCC"/>
</svg>
