<svg width="18" height="19" viewBox="0 0 18 19" fill="none" xmlns="http://www.w3.org/2000/svg">
<path fill-rule="evenodd" clip-rule="evenodd" d="M11.19 2.5901C9.72525 2.5533 8.27475 2.5533 6.80999 2.5901L6.76636 2.5912C5.62275 2.61991 4.70251 2.64301 3.96502 2.77145C3.1929 2.90592 2.56536 3.16383 2.03521 3.69599C1.50728 4.22593 1.25073 4.84444 1.11882 5.60405C0.993217 6.32733 0.974084 7.2251 0.950392 8.33722L0.949447 8.38132C0.933517 9.12855 0.933517 9.87142 0.949454 10.6187L0.950392 10.6627C0.974092 11.7749 0.993217 12.6727 1.11882 13.396C1.25073 14.1556 1.50729 14.7741 2.03521 15.304C2.56536 15.8362 3.1929 16.0941 3.96502 16.2286C4.70251 16.357 5.62273 16.3801 6.76633 16.4088L6.80999 16.4099C8.27475 16.4467 9.72525 16.4467 11.19 16.4099L11.2336 16.4088C12.3772 16.3801 13.2975 16.357 14.035 16.2286C14.8071 16.0941 15.4346 15.8362 15.9648 15.304C16.4927 14.7741 16.7493 14.1556 16.8811 13.396C17.0068 12.6727 17.0259 11.7749 17.0496 10.6627L17.0506 10.6187C17.0665 9.87142 17.0665 9.12855 17.0506 8.38132L17.0496 8.33722C17.0259 7.22512 17.0068 6.32734 16.8811 5.60407C16.7493 4.84446 16.4927 4.22594 15.9648 3.69601C15.4346 3.16384 14.8071 2.90593 14.035 2.77147C13.2975 2.64302 12.3772 2.61991 11.2336 2.5912L11.19 2.5901ZM5.53636 6.39089C5.26895 6.23278 4.924 6.3214 4.76589 6.58881C4.60778 6.85623 4.69639 7.20118 4.96381 7.35929L7.17032 8.66385C7.82347 9.05002 8.38702 9.3126 9.00007 9.3126C9.61312 9.3126 10.1767 9.05002 10.8298 8.66385L13.0363 7.35929C13.3038 7.20118 13.3924 6.85623 13.2343 6.58881C13.0762 6.3214 12.7312 6.23278 12.4638 6.39089L10.2573 7.69546C9.624 8.06985 9.28732 8.1876 9.00007 8.1876C8.71282 8.1876 8.37615 8.06985 7.74285 7.69546L5.53636 6.39089Z" fill="#EDEDED"/>
</svg>
