<svg width="18" height="19" viewBox="0 0 18 19" fill="none" xmlns="http://www.w3.org/2000/svg">
<path fill-rule="evenodd" clip-rule="evenodd" d="M8.76697 17.5119L8.77117 17.5138C8.9166 17.5785 9.08302 17.5786 9.22845 17.514L9.23123 17.5128C9.24825 17.505 9.29017 17.4858 9.31522 17.474C9.36847 17.4489 9.44505 17.4122 9.54158 17.364C9.73455 17.2675 10.0079 17.1247 10.3348 16.9371C10.9872 16.5624 11.8598 16.0054 12.7351 15.2759C14.4669 13.8327 16.3125 11.6269 16.3125 8.75C16.3125 4.71142 13.0386 1.4375 9 1.4375C4.96142 1.4375 1.6875 4.71142 1.6875 8.75C1.6875 11.6269 3.53308 13.8327 5.26489 15.2759C6.14027 16.0054 7.01278 16.5624 7.66523 16.9371C7.99215 17.1247 8.26545 17.2675 8.45842 17.364C8.55255 17.411 8.70975 17.485 8.76697 17.5119ZM9 5.75C7.34314 5.75 6 7.09314 6 8.75C6 10.4068 7.34314 11.75 9 11.75C10.6568 11.75 12 10.4068 12 8.75C12 7.09314 10.6568 5.75 9 5.75Z" fill="#EDEDED"/>
</svg>
