<svg width="18" height="18" viewBox="0 0 18 18" fill="none" xmlns="http://www.w3.org/2000/svg">
<path d="M9.00392 3.00195C13.5602 3.00195 17.2539 5.01667 17.2539 7.50193V10.5019C17.2539 12.9872 13.5602 15.0019 9.00392 15.0019C4.52893 15.0019 0.886102 13.0585 0.757424 10.6346L0.753906 10.5019V7.50193C0.753906 5.01667 4.44756 3.00195 9.00392 3.00195ZM9.00392 12.0019C6.21357 12.0019 3.74678 11.2464 2.25374 10.0898L2.25391 10.5019C2.25391 11.9136 5.16588 13.502 9.00392 13.502C12.7619 13.502 15.6322 11.9792 15.7501 10.5904L15.754 10.5019L15.7549 10.0892C14.2619 11.2461 11.7947 12.0019 9.00392 12.0019ZM9.00392 4.50195C5.16588 4.50195 2.25391 6.0903 2.25391 7.50193C2.25391 8.91358 5.16588 10.5019 9.00392 10.5019C12.842 10.5019 15.754 8.91358 15.754 7.50193C15.754 6.0903 12.842 4.50195 9.00392 4.50195Z" fill="white"/>
</svg>
