<svg xmlns="http://www.w3.org/2000/svg" width="1200" height="630" viewBox="0 0 1200 630">
  <!-- Background -->
  <rect width="1200" height="630" fill="#1A1814"/>

  <!-- Logo constellation at top -->
  <g transform="translate(560, 60) scale(0.5)">
    <g stroke="#697565" stroke-linecap="round" stroke-width="9">
      <path d="M80 15 20 165M80 15l60 150"/>
    </g>
    <g stroke="#697565" stroke-linecap="round" stroke-width="7">
      <path d="m80 120-38-25M80 120l38-25"/>
    </g>
    <g fill="#C9A961">
      <circle cx="80" cy="15" r="11"/>
      <circle cx="20" cy="165" r="11"/>
      <circle cx="140" cy="165" r="11"/>
      <circle cx="42" cy="95" r="7"/>
      <circle cx="118" cy="95" r="7"/>
      <circle cx="80" cy="120" r="5"/>
    </g>
  </g>

  <!-- Main title -->
  <text x="600" y="280" font-family="-apple-system, BlinkMacSystemFont, 'Segoe UI', sans-serif" font-size="68" font-weight="600" fill="#E8D7B0" text-anchor="middle">Andria Labs</text>

  <!-- Subtitle -->
  <text x="600" y="360" font-family="-apple-system, BlinkMacSystemFont, 'Segoe UI', sans-serif" font-size="32" font-weight="400" fill="#697565" text-anchor="middle">AI Systems Development and Strategic Consulting</text>

  <!-- Subtle decorative elements -->
  <g fill="#C9A961" opacity="0.15">
    <circle cx="100" cy="100" r="4"/>
    <circle cx="1100" cy="530" r="4"/>
    <circle cx="200" cy="500" r="3"/>
    <circle cx="1000" cy="150" r="3"/>
    <circle cx="150" cy="300" r="2"/>
    <circle cx="1050" cy="350" r="2"/>
  </g>
</svg>
