<svg width="222" height="41" viewBox="0 0 222 41" fill="none" xmlns="http://www.w3.org/2000/svg">
<g clip-path="url(#clip0_4651_194)">
<path fill-rule="evenodd" clip-rule="evenodd" d="M38.8487 1.43733C40.1391 0.197406 42.1732 0.191768 43.4703 1.39583L43.5932 1.51546L44.0126 1.95736C48.2614 6.5489 49.8446 11.8997 49.4385 17.1254C49.0265 22.4248 46.5924 27.4222 43.1967 31.3713C39.8031 35.3179 35.2723 38.4259 30.3748 39.7749C25.4157 41.1406 19.9919 40.7052 15.2838 37.366C11.2906 34.5336 9.77028 29.9562 9.667 25.5094C7.42619 24.4052 5.06842 23.0328 2.59457 21.3638L1.9409 20.9178L1.80165 20.8169C0.397172 19.7389 0.07604 17.7437 1.09965 16.279C2.12357 14.8143 4.11731 14.417 5.62456 15.348L5.76955 15.4424L6.36506 15.8493C7.84702 16.8491 9.26109 17.7159 10.6057 18.4641C11.4731 15.4059 12.9104 12.4696 14.8038 10.0492C17.6405 6.42322 21.8936 3.52347 27.104 3.95611C31.7972 4.34608 35.2649 6.77842 37.0548 10.2112C38.7879 13.5351 38.8136 17.5336 37.2989 20.9723C35.7546 24.4779 32.6196 27.3985 28.1098 28.6019C24.8643 29.4679 21.0622 29.4084 16.7722 28.2487V28.2503C15.0645 27.7885 13.2748 27.1507 11.4044 26.3224C10.9848 26.1366 10.6196 26.4205 11.4044 26.9132C13.6131 28.4882 16.7245 29.8084 17.6249 30.2515C18.0504 30.9431 18.5781 31.5104 19.1829 31.9394C21.9662 33.9135 25.2222 34.2752 28.5825 33.3497C32.0044 32.4072 35.4341 30.1346 38.0943 27.041C40.7524 23.9497 42.4662 20.2458 42.7486 16.6119C43.0151 13.183 42.0302 9.66045 39.0633 6.45943L38.7701 6.15099L38.653 6.02403C37.4855 4.69612 37.559 2.67717 38.8487 1.43733ZM26.5453 10.6002C24.3926 10.4214 22.1207 11.5599 20.102 14.1403C18.5646 16.1055 17.4013 18.659 16.8082 21.2865C21.033 22.7375 24.1815 22.7474 26.3692 22.1638C28.9018 21.488 30.4204 19.958 31.1513 18.2989C31.9116 16.5726 31.8337 14.6916 31.0964 13.2776C30.4159 11.9725 29.0459 10.808 26.5453 10.6002Z" fill="#FAFAFA"/>
<path d="M138.209 14.1026C136.34 14.1026 135.14 12.6927 135.4 10.8013C135.66 8.90993 137.248 7.5 139.118 7.5C140.987 7.5 142.187 8.90993 141.927 10.8013C141.667 12.6927 140.079 14.1026 138.209 14.1026Z" fill="#FAFAFA"/>
<path d="M133.11 32.6384L135.447 15.6504H140.546L138.209 32.6384H133.11Z" fill="#FAFAFA"/>
<path fill-rule="evenodd" clip-rule="evenodd" d="M142.073 24.3161L139.929 39.8941H145.028L146.282 30.7811C147.128 32.2942 148.719 33.0852 150.724 33.0852C154.532 33.0852 159.271 30.2653 160.084 24.3504C160.837 18.8826 157.604 15.2031 152.267 15.2031C147.134 15.2031 142.858 18.6075 142.073 24.3161ZM154.946 24.1441C154.61 26.5857 152.814 28.2707 150.503 28.2707C148.191 28.2707 146.859 26.5857 147.195 24.1441C147.531 21.7025 149.327 20.0175 151.638 20.0175C153.95 20.0175 155.282 21.7025 154.946 24.1441Z" fill="#FAFAFA"/>
<path d="M166.875 33.0852C162.558 33.0852 160.092 30.7467 160.473 27.4798H165.504C165.415 28.3739 166 28.821 167.393 28.821C168.957 28.821 169.543 28.2707 169.642 27.5486C169.788 26.4891 168.743 26.3288 167.358 26.1164L167.353 26.1155C167.256 26.1006 167.158 26.0855 167.058 26.0699C164.794 25.726 161.067 25.1414 161.63 21.0491C162.103 17.6103 165.12 15.2031 169.301 15.2031C173.482 15.2031 175.73 17.6447 175.411 20.7052H170.448C170.42 19.9143 169.802 19.4673 168.782 19.4673C167.525 19.4673 166.925 20.1206 166.83 20.8084C166.695 21.7933 167.787 21.9633 169.217 22.1861L169.424 22.2183C171.79 22.5622 175.405 23.2156 174.852 27.2391C174.369 30.7467 171.192 33.0852 166.875 33.0852Z" fill="#FAFAFA"/>
<path d="M195.678 23.0781L194.363 32.6381H199.462L200.777 23.0781C201.09 20.8084 202.286 20.0175 203.816 20.0175C205.312 20.0175 206.291 20.8084 205.978 23.0781L204.663 32.6381H209.762L211.077 23.0781C211.39 20.8084 212.586 20.0175 214.082 20.0175C215.612 20.0175 216.591 20.8084 216.279 23.0781L214.963 32.6381H220.062L221.378 23.0781C222.13 17.6103 219.334 15.2031 215.254 15.2031C212.841 15.2031 210.741 16.1316 209.238 17.9198C208.226 16.1316 206.348 15.2031 203.968 15.2031C199.889 15.2031 196.431 17.6103 195.678 23.0781Z" fill="#FAFAFA"/>
<path d="M176.737 24.4539C175.947 30.1968 178.881 33.0854 183.844 33.0854C188.807 33.0854 192.54 30.1624 193.326 24.4539L194.537 15.6504H189.438L188.227 24.4539C187.858 27.1362 186.41 28.271 184.506 28.271C182.602 28.271 181.467 27.1362 181.836 24.4539L183.047 15.6504H177.948L176.737 24.4539Z" fill="#FAFAFA"/>
<path fill-rule="evenodd" clip-rule="evenodd" d="M114.169 24.1441C113.46 29.3024 116.679 33.0852 121.982 33.0852C127.285 33.0852 131.544 29.3024 132.254 24.1441C132.964 18.9858 129.745 15.2031 124.442 15.2031C119.139 15.2031 114.879 18.9858 114.169 24.1441ZM127.087 24.1441C126.751 26.5857 124.955 28.2707 122.644 28.2707C120.332 28.2707 119 26.5857 119.336 24.1441C119.672 21.7025 121.468 20.0175 123.779 20.0175C126.091 20.0175 127.423 21.7025 127.087 24.1441Z" fill="#FAFAFA"/>
<path fill-rule="evenodd" clip-rule="evenodd" d="M97.9337 31.4879C95.8739 29.9098 94.8524 27.2814 95.284 24.1441C95.9936 18.9858 100.253 15.2031 105.556 15.2031C110.859 15.2031 114.078 18.9858 113.369 24.1441C112.683 29.1267 108.685 32.8258 103.635 33.0721C104.824 33.7561 106.552 34.3092 107.822 34.7157C108.246 34.8515 108.619 34.971 108.904 35.0735C110.057 35.3651 110.793 36.452 110.615 37.7482C110.406 39.2679 109.019 40.4998 107.516 40.4998H99.3562C96.3517 40.4998 94.2551 38.0359 94.6732 34.9965H103.375C101.387 34.2186 99.2856 32.6627 97.9337 31.4879ZM103.759 28.2707C106.07 28.2707 107.866 26.5857 108.202 24.1441C108.538 21.7025 107.206 20.0175 104.894 20.0175C102.583 20.0175 100.787 21.7025 100.451 24.1441C100.115 26.5857 101.447 28.2707 103.759 28.2707Z" fill="#FAFAFA"/>
<path fill-rule="evenodd" clip-rule="evenodd" d="M76.3993 24.1441C75.6896 29.3024 78.9085 33.0852 84.2115 33.0852C89.5146 33.0852 93.7743 29.3024 94.4839 24.1441C95.1936 18.9858 91.9747 15.2031 86.6717 15.2031C81.3687 15.2031 77.1089 18.9858 76.3993 24.1441ZM89.3169 24.1441C88.981 26.5857 87.1855 28.2707 84.8739 28.2707C82.5623 28.2707 81.2304 26.5857 81.5663 24.1441C81.9022 21.7025 83.6978 20.0175 86.0093 20.0175C88.3209 20.0175 89.6528 21.7025 89.3169 24.1441Z" fill="#FAFAFA"/>
<path d="M58.5 32.6387L61.5941 10.1484H67.101L64.7166 27.4804H75.2207L74.511 32.6387H58.5Z" fill="#FAFAFA"/>
</g>
<defs>
<clipPath id="clip0_4651_194">
<rect width="221" height="40" fill="white" transform="translate(0.5 0.5)"/>
</clipPath>
</defs>
</svg>
