<svg width="268" height="43" viewBox="0 0 268 43" fill="none" xmlns="http://www.w3.org/2000/svg">
<g clip-path="url(#clip0_4651_206)">
<path d="M37.7554 2.11647C38.6806 1.15399 39.9371 0.613281 41.2455 0.613281C47.1321 0.613281 52.6796 0.613284 58.1427 0.613295C69.1305 0.613318 74.6327 14.4335 66.8632 22.5162L49.9392 40.1223C49.1623 40.9306 47.8338 40.3581 47.8338 39.215V23.7082L49.7896 21.6735C51.3435 20.057 50.243 17.2929 48.0454 17.2929H23.167L37.7554 2.11647Z" fill="#FAFAFA"/>
<path d="M33.2449 38.8842C32.3198 39.8467 31.0633 40.3874 29.7549 40.3874C23.8683 40.3874 18.3208 40.3874 12.8577 40.3874C1.86983 40.3873 -3.63236 26.5672 4.13721 18.4844L21.0612 0.878369C21.8381 0.0700921 23.1666 0.642547 23.1666 1.78562L23.1667 17.2923L21.2108 19.3271C19.6569 20.9437 20.7574 23.7077 22.955 23.7077L47.8335 23.7076L33.2449 38.8842Z" fill="#FAFAFA"/>
<path d="M168.651 13.9395V33.9343H174.523V13.9395H168.651Z" fill="#FAFAFA"/>
<path d="M169.06 10.6137C169.754 11.3074 170.602 11.6543 171.606 11.6543C172.609 11.6543 173.452 11.3074 174.133 10.6137C174.827 9.91992 175.174 9.07751 175.174 8.08644C175.174 7.07059 174.827 6.22198 174.133 5.54063C173.452 4.84688 172.609 4.5 171.606 4.5C170.602 4.5 169.754 4.84688 169.06 5.54063C168.366 6.22198 168.019 7.07059 168.019 8.08644C168.019 9.07751 168.366 9.91992 169.06 10.6137Z" fill="#FAFAFA"/>
<path fill-rule="evenodd" clip-rule="evenodd" d="M177.836 41.7395V13.94H183.411V15.9283H183.484C183.835 15.5823 184.213 15.2664 184.619 14.9806C185.932 14.0638 187.443 13.6055 189.153 13.6055C190.652 13.6055 192.083 13.9957 193.446 14.7762C194.821 15.5566 195.936 16.715 196.791 18.2511C197.645 19.7873 198.06 21.7013 198.036 23.9931C198.048 25.7275 197.806 27.2389 197.311 28.5273C196.815 29.8033 196.146 30.8625 195.304 31.7049C194.462 32.5473 193.52 33.1791 192.479 33.6003C191.439 34.0215 190.386 34.2321 189.32 34.2321C187.635 34.2321 186.124 33.7614 184.786 32.8199C184.449 32.5797 184.13 32.3196 183.829 32.0394H183.708V41.7395H177.836ZM187.945 29.3263C188.812 29.3139 189.574 29.0848 190.231 28.6388C190.887 28.1928 191.402 27.561 191.773 26.7434C192.145 25.9257 192.325 24.9718 192.312 23.8816C192.325 22.7667 192.139 21.8128 191.755 21.0199C191.383 20.2147 190.857 19.6014 190.175 19.1802C189.494 18.7467 188.713 18.536 187.834 18.5484C187.004 18.536 186.26 18.7405 185.604 19.1617C184.947 19.5829 184.427 20.1961 184.043 21.0013C183.659 21.7942 183.467 22.7543 183.467 23.8816C183.467 24.9718 183.659 25.9257 184.043 26.7434C184.439 27.561 184.972 28.1928 185.641 28.6388C186.31 29.0848 187.078 29.3139 187.945 29.3263Z" fill="#FAFAFA"/>
<path d="M203.69 33.6189C204.78 34.0277 205.92 34.2321 207.109 34.2321C208.472 34.2321 209.717 33.9658 210.844 33.4331C211.984 32.9004 212.894 32.1571 213.576 31.2032C214.27 30.2369 214.616 29.1281 214.616 27.8769C214.616 26.8858 214.406 26.0496 213.985 25.3683C213.576 24.6869 213.055 24.1294 212.424 23.6958C211.804 23.2622 211.166 22.9215 210.51 22.6738C209.853 22.4136 209.277 22.2154 208.781 22.0791C208.137 21.8933 207.518 21.7013 206.923 21.5031C206.329 21.3049 205.839 21.0695 205.455 20.7969C205.071 20.5244 204.879 20.1651 204.879 19.7191C204.879 19.2732 205.071 18.9015 205.455 18.6042C205.839 18.3069 206.322 18.1582 206.905 18.1582C207.598 18.1582 208.168 18.344 208.614 18.7157C209.073 19.0873 209.419 19.4714 209.655 19.8678L214.17 17.9166C213.601 16.6282 212.634 15.5938 211.272 14.8133C209.921 14.0329 208.397 13.6426 206.7 13.6426C205.338 13.6426 204.123 13.8966 203.058 14.4045C202.005 14.9124 201.169 15.6186 200.549 16.5229C199.942 17.4149 199.639 18.4493 199.639 19.6262C199.639 20.7412 199.899 21.6889 200.419 22.4694C200.94 23.2498 201.615 23.894 202.445 24.402C203.287 24.8975 204.179 25.2877 205.121 25.5727C205.53 25.6842 205.976 25.808 206.459 25.9443C206.954 26.0806 207.425 26.2416 207.871 26.4275C208.317 26.6133 208.682 26.8363 208.967 27.0964C209.252 27.3566 209.395 27.6663 209.395 28.0256C209.395 28.3105 209.296 28.5768 209.097 28.8246C208.912 29.0724 208.651 29.2768 208.317 29.4378C207.982 29.5865 207.592 29.6608 207.146 29.6608C206.304 29.6608 205.573 29.4007 204.953 28.8804C204.334 28.36 203.87 27.8088 203.56 27.2265L198.951 29.252C199.372 30.2555 199.998 31.135 200.828 31.8907C201.658 32.634 202.612 33.2101 203.69 33.6189Z" fill="#FAFAFA"/>
<path d="M238.487 33.9348V13.94H244.08V16.4858H244.182C244.62 15.8775 245.112 15.3634 245.66 14.9434C246.775 14.0762 248.094 13.6426 249.618 13.6426C250.881 13.6426 251.953 13.9523 252.833 14.5718C253.511 15.0335 254.064 15.6529 254.492 16.43H254.597C255.23 15.623 255.999 14.9911 256.902 14.5346C258.079 13.94 259.361 13.6426 260.749 13.6426C262.074 13.6426 263.165 13.878 264.019 14.3488C264.874 14.8071 265.543 15.4142 266.026 16.1699C266.509 16.9132 266.85 17.7308 267.048 18.6228C267.247 19.5023 267.346 20.3571 267.346 21.1872V33.9348H261.436V21.9119C261.436 20.8217 261.207 19.9855 260.749 19.4032C260.303 18.8086 259.646 18.5113 258.779 18.5113C258.209 18.5113 257.701 18.6414 257.255 18.9015C256.822 19.1493 256.475 19.5271 256.215 20.035C255.967 20.543 255.843 21.1686 255.843 21.9119V33.9348H249.971V21.9119C249.971 20.8217 249.742 19.9855 249.283 19.4032C248.825 18.8086 248.162 18.5113 247.295 18.5113C246.453 18.5113 245.753 18.8024 245.195 19.3847C244.638 19.9545 244.359 20.8093 244.359 21.9491V33.9348H238.487Z" fill="#FAFAFA"/>
<path d="M224.117 34.2316C222.742 34.2316 221.491 33.9405 220.364 33.3583C219.236 32.7636 218.338 31.8964 217.669 30.7567C217.013 29.6046 216.684 28.1861 216.684 26.5013V13.9395H222.556V25.7208C222.556 26.8729 222.854 27.7525 223.448 28.3595C224.055 28.9542 224.793 29.2515 225.66 29.2515C226.304 29.2515 226.868 29.109 227.351 28.8241C227.846 28.5392 228.23 28.1366 228.503 27.6162C228.788 27.0835 228.93 26.4517 228.93 25.7208V13.9395H234.802V26.9287C234.802 27.6472 234.908 28.1675 235.118 28.4896C235.329 28.8117 235.756 29.0905 236.4 29.3258L234.319 34.2316C232.845 33.8476 231.767 33.3459 231.086 32.7265C230.743 32.4144 230.483 32.0551 230.306 31.6487H230.157C229.638 32.1703 229.062 32.6349 228.429 33.0424C227.177 33.8352 225.74 34.2316 224.117 34.2316Z" fill="#FAFAFA"/>
<path fill-rule="evenodd" clip-rule="evenodd" d="M155.936 34.2321C154.015 34.2321 152.262 33.7924 150.677 32.9128C149.103 32.0332 147.846 30.8191 146.904 29.2706C145.975 27.722 145.511 25.9381 145.511 23.9188C145.511 21.8995 145.975 20.1156 146.904 18.567C147.846 17.0185 149.103 15.8106 150.677 14.9434C152.262 14.0762 154.015 13.6426 155.936 13.6426C157.893 13.6426 159.658 14.0762 161.232 14.9434C162.805 15.8106 164.05 17.0185 164.967 18.567C165.896 20.1156 166.36 21.8995 166.36 23.9188C166.36 25.9381 165.896 27.722 164.967 29.2706C164.05 30.8191 162.799 32.0332 161.213 32.9128C159.64 33.7924 157.881 34.2321 155.936 34.2321ZM155.936 29.2148C156.852 29.2148 157.676 28.9919 158.407 28.5459C159.138 28.0999 159.714 27.4805 160.135 26.6876C160.556 25.8948 160.767 24.9718 160.767 23.9188C160.767 22.903 160.563 21.9986 160.154 21.2057C159.745 20.4129 159.181 19.7935 158.463 19.3475C157.744 18.8891 156.914 18.6599 155.973 18.6599C155.044 18.6599 154.207 18.8829 153.464 19.3289C152.733 19.7625 152.157 20.3757 151.736 21.1686C151.315 21.9614 151.104 22.8782 151.104 23.9188C151.104 24.9718 151.315 25.8948 151.736 26.6876C152.169 27.4805 152.752 28.0999 153.483 28.5459C154.214 28.9919 155.031 29.2148 155.936 29.2148Z" fill="#FAFAFA"/>
<path fill-rule="evenodd" clip-rule="evenodd" d="M128.131 41.4245C129.518 41.8333 131.042 42.0377 132.702 42.0377C134.251 42.0377 135.669 41.8395 136.958 41.4431C138.246 41.0591 139.361 40.4768 140.302 39.6963C141.256 38.9159 141.993 37.9496 142.514 36.7974C143.034 35.6453 143.294 34.3074 143.294 32.7836V13.9223H137.961V15.8734H137.85C137.495 15.5337 137.111 15.224 136.697 14.9443C135.409 14.0647 133.904 13.625 132.182 13.625C130.695 13.625 129.264 14.0028 127.889 14.7585C126.514 15.5018 125.387 16.6168 124.507 18.1034C123.64 19.5776 123.206 21.4296 123.206 23.6596C123.206 25.332 123.46 26.7876 123.968 28.0265C124.476 29.2653 125.151 30.2997 125.994 31.1298C126.849 31.9474 127.796 32.5606 128.837 32.9694C129.878 33.3659 130.924 33.5641 131.977 33.5641C133.675 33.5641 135.186 33.0995 136.512 32.1704C136.931 31.8725 137.323 31.5442 137.686 31.1855H137.775V33.1181C137.775 34.072 137.466 34.8401 136.846 35.4223C136.227 36.017 135.477 36.4506 134.598 36.7231C133.718 36.9957 132.869 37.1319 132.052 37.1319C131.098 37.1319 130.156 36.9771 129.227 36.6674C128.31 36.37 127.505 36.0108 126.812 35.5896L124.879 40.1981C125.672 40.6193 126.756 41.0281 128.131 41.4245ZM135.787 28.1194C135.106 28.5654 134.319 28.7883 133.427 28.7883C132.547 28.7883 131.773 28.5654 131.104 28.1194C130.435 27.661 129.909 27.0354 129.525 26.2425C129.141 25.4373 128.948 24.5144 128.948 23.4737C128.948 22.4331 129.141 21.5287 129.525 20.7607C129.921 19.9926 130.466 19.4041 131.16 18.9953C131.854 18.5741 132.64 18.3635 133.52 18.3635C134.399 18.3635 135.174 18.5679 135.843 18.9767C136.512 19.3856 137.038 19.974 137.422 20.7421C137.806 21.4978 137.998 22.4083 137.998 23.4737C137.998 24.5267 137.8 25.4559 137.404 26.2611C137.007 27.054 136.468 27.6734 135.787 28.1194Z" fill="#FAFAFA"/>
<path fill-rule="evenodd" clip-rule="evenodd" d="M111.29 34.2321C109.37 34.2321 107.617 33.7924 106.031 32.9128C104.458 32.0332 103.2 30.8191 102.259 29.2706C101.33 27.722 100.865 25.9381 100.865 23.9188C100.865 21.8995 101.33 20.1156 102.259 18.567C103.2 17.0185 104.458 15.8106 106.031 14.9434C107.617 14.0762 109.37 13.6426 111.29 13.6426C113.247 13.6426 115.013 14.0762 116.586 14.9434C118.159 15.8106 119.404 17.0185 120.321 18.567C121.25 20.1156 121.715 21.8995 121.715 23.9188C121.715 25.9381 121.25 27.722 120.321 29.2706C119.404 30.8191 118.153 32.0332 116.567 32.9128C114.994 33.7924 113.235 34.2321 111.29 34.2321ZM111.29 29.2148C112.207 29.2148 113.03 28.9919 113.761 28.5459C114.492 28.0999 115.068 27.4805 115.49 26.6876C115.911 25.8948 116.121 24.9718 116.121 23.9188C116.121 22.903 115.917 21.9986 115.508 21.2057C115.099 20.4129 114.536 19.7935 113.817 19.3475C113.099 18.8891 112.268 18.6599 111.327 18.6599C110.398 18.6599 109.562 18.8829 108.818 19.3289C108.087 19.7625 107.511 20.3757 107.09 21.1686C106.669 21.9614 106.458 22.8782 106.458 23.9188C106.458 24.9718 106.669 25.8948 107.09 26.6876C107.524 27.4805 108.106 28.0999 108.837 28.5459C109.568 28.9919 110.385 29.2148 111.29 29.2148Z" fill="#FAFAFA"/>
<path d="M84.9902 6.54492V33.9356H100.953V28.5095H91.0853V6.54492H84.9902Z" fill="#FAFAFA"/>
</g>
<defs>
<clipPath id="clip0_4651_206">
<rect width="267" height="42" fill="white" transform="translate(0.5 0.5)"/>
</clipPath>
</defs>
</svg>
