<svg width="273" height="41" viewBox="0 0 273 41" fill="none" xmlns="http://www.w3.org/2000/svg">
<g clip-path="url(#clip0_4651_238)">
<path d="M165.097 11.7988V29.2025H160.975V11.7988H165.097Z" fill="#FAFAFA"/>
<path d="M64.1104 25.0791H80.3691V29.2012H59.9883V12.2559H64.1104V25.0791Z" fill="#FAFAFA"/>
<path d="M208.835 23.8211C208.835 23.1255 208.271 22.5616 207.576 22.5616H195.897C192.925 22.5616 190.516 20.1523 190.516 17.1802C190.516 14.2081 192.925 11.7988 195.897 11.7988H212.499V15.9207H195.897C195.201 15.9207 194.637 16.4846 194.637 17.1802C194.637 17.8758 195.201 18.4397 195.897 18.4397H207.576C210.548 18.4397 212.957 20.849 212.957 23.8211C212.957 26.7931 210.548 29.2025 207.576 29.2025H190.974V25.0805H207.576C208.271 25.0805 208.835 24.5167 208.835 23.8211Z" fill="#FAFAFA"/>
<path fill-rule="evenodd" clip-rule="evenodd" d="M183.074 11.7988C186.679 11.7988 189.601 14.7208 189.601 18.3252C189.601 21.9296 186.679 24.8515 183.074 24.8515H170.594V29.2025H166.472V11.7988H183.074ZM170.594 20.7296H183.074C184.402 20.7296 185.479 19.6531 185.479 18.3252C185.479 16.9972 184.402 15.9207 183.074 15.9207H170.594V20.7296Z" fill="#FAFAFA"/>
<path d="M102.123 20.5006C102.123 17.9712 100.073 15.9207 97.5437 15.9207H88.6129C86.0835 15.9207 84.033 17.9712 84.033 20.5006C84.033 23.03 86.0835 25.0805 88.6129 25.0805H97.5437C100.073 25.0805 102.123 23.0301 102.123 20.5006ZM106.245 20.5006C106.245 25.3065 102.349 29.2025 97.5437 29.2025H88.6129C83.807 29.2025 79.9111 25.3065 79.9111 20.5006C79.9111 15.6948 83.807 11.7988 88.6129 11.7988H97.5437C102.349 11.7988 106.245 15.6948 106.245 20.5006Z" fill="#FAFAFA"/>
<path d="M155.709 20.5006C155.709 17.9712 153.659 15.9207 151.13 15.9207H142.199C139.669 15.9207 137.619 17.9712 137.619 20.5006C137.619 23.03 139.669 25.0805 142.199 25.0805H151.13C153.659 25.0805 155.709 23.0301 155.709 20.5006ZM159.831 20.5006C159.831 25.3065 155.935 29.2025 151.13 29.2025H142.199C137.393 29.2025 133.497 25.3065 133.497 20.5006C133.497 15.6948 137.393 11.7988 142.199 11.7988H151.13C155.935 11.7988 159.831 15.6948 159.831 20.5006Z" fill="#FAFAFA"/>
<path d="M213.872 21.8746V11.7988H217.994V21.8746C217.994 23.6452 219.429 25.0805 221.2 25.0805H232.878C234.649 25.0805 236.084 23.6452 236.084 21.8746V11.7988H240.206V21.8746C240.206 25.9217 236.926 29.2025 232.878 29.2025H221.2C217.153 29.2025 213.872 25.9217 213.872 21.8746Z" fill="#FAFAFA"/>
<path d="M106.932 20.5006C106.932 15.6948 110.827 11.7988 115.633 11.7988H131.892V15.9207H115.633C113.104 15.9207 111.053 17.9712 111.053 20.5006C111.053 23.03 113.104 25.0805 115.633 25.0805H127.885C128.58 25.0805 129.144 24.5167 129.144 23.8211C129.144 23.1255 128.58 22.5616 127.885 22.5616H114.488V18.4397H127.885C130.857 18.4397 133.266 20.849 133.266 23.8211C133.266 26.7931 130.857 29.2025 127.885 29.2025H115.633C110.827 29.2025 106.932 25.3065 106.932 20.5006Z" fill="#FAFAFA"/>
<path d="M263.237 11.7988C265.394 11.7988 267.303 13.1983 267.951 15.2561L272.348 29.2025H268.026L264.02 16.4952C263.912 16.1533 263.595 15.9207 263.237 15.9207C262.885 15.9208 262.575 16.1441 262.461 16.4715L262.441 16.5384L260.002 26.0562C259.528 27.9076 257.859 29.2025 255.948 29.2025C254.005 29.2024 252.317 27.8645 251.874 25.9724L249.662 16.5341C249.578 16.1749 249.258 15.9208 248.889 15.9207C248.543 15.9208 248.237 16.1445 248.132 16.474L244.075 29.2025H239.749L244.204 15.2226C244.854 13.1834 246.749 11.7988 248.889 11.7988C251.172 11.7988 253.155 13.3708 253.676 15.5938L255.887 25.032C255.894 25.0604 255.919 25.0805 255.948 25.0805C255.977 25.0805 256.002 25.0611 256.009 25.0334L258.448 15.5155L258.475 15.4133C259.07 13.281 261.014 11.7988 263.237 11.7988Z" fill="#FAFAFA"/>
<path d="M25.473 0.5L30.1873 4.42858L26.1132 7.82367C25.7424 8.13271 25.2037 8.13271 24.8328 7.82367L20.7588 4.42858L25.473 0.5Z" fill="#FAFAFA"/>
<path fill-rule="evenodd" clip-rule="evenodd" d="M24.8325 11.8539C25.2034 12.1629 25.7421 12.1629 26.1129 11.8539L32.6054 6.44336L36.3399 9.55545L28.0335 16.4776C26.5501 17.7137 24.3954 17.7137 22.912 16.4776L14.6055 9.55545L18.34 6.44336L24.8325 11.8539Z" fill="#FAFAFA"/>
<path d="M25.473 40.5008L20.7588 36.5722L24.8328 33.1771C25.2037 32.8681 25.7424 32.8681 26.1132 33.1771L30.1873 36.5722L25.473 40.5008Z" fill="#FAFAFA"/>
<path fill-rule="evenodd" clip-rule="evenodd" d="M26.1129 29.1445C25.7421 28.8355 25.2034 28.8355 24.8325 29.1445L18.34 34.555L14.6055 31.4429L22.912 24.5208C24.3954 23.2847 26.5501 23.2847 28.0335 24.5208L36.3399 31.4429L32.6054 34.555L26.1129 29.1445Z" fill="#FAFAFA"/>
<path d="M49.473 20.5009L44.7587 16.5723L40.9663 19.7327C40.4865 20.1325 40.4865 20.8693 40.9663 21.2691L44.7587 24.4295L49.473 20.5009Z" fill="#FAFAFA"/>
<path fill-rule="evenodd" clip-rule="evenodd" d="M36.129 21.2677C35.6492 20.8679 35.6492 20.1311 36.129 19.7313L42.3398 14.5555L38.6053 11.4434L31.4256 17.4266C29.5066 19.0258 29.5066 21.9732 31.4256 23.5724L38.6053 29.5556L42.3398 26.4435L36.129 21.2677Z" fill="#FAFAFA"/>
<path d="M1.47266 20.5009L6.18692 24.4295L9.97933 21.2691C10.4591 20.8693 10.4591 20.1325 9.97933 19.7327L6.18692 16.5723L1.47266 20.5009Z" fill="#FAFAFA"/>
<path fill-rule="evenodd" clip-rule="evenodd" d="M14.8163 19.7313C15.2961 20.1311 15.2961 20.8679 14.8164 21.2677L8.60547 26.4435L12.34 29.5556L19.5197 23.5724C21.4387 21.9732 21.4387 19.0258 19.5197 17.4266L12.34 11.4434L8.60547 14.5555L14.8163 19.7313Z" fill="#FAFAFA"/>
</g>
<defs>
<clipPath id="clip0_4651_238">
<rect width="272" height="40" fill="white" transform="translate(0.5 0.5)"/>
</clipPath>
</defs>
</svg>
