<svg width="224" height="41" viewBox="0 0 224 41" fill="none" xmlns="http://www.w3.org/2000/svg">
<g clip-path="url(#clip0_4651_219)">
<path d="M12.8291 0.5L23.1633 9.32887C23.7768 9.85302 24.1304 10.6222 24.1304 11.4323V18.0862L13.7963 9.25734C13.1827 8.73319 12.8291 7.964 12.8291 7.15386V0.5Z" fill="#FAFAFA"/>
<path d="M12.8291 40.5003L23.1633 31.6714C23.7768 31.1473 24.1304 30.3781 24.1304 29.568V22.9141L13.7963 31.743C13.1827 32.2671 12.8291 33.0363 12.8291 33.8464V40.5003Z" fill="#FAFAFA"/>
<path d="M0.5 9.81055L10.6936 18.4707C11.1878 18.8906 11.8137 19.1209 12.4603 19.1209H20.681L10.5125 10.4627C10.0179 10.0416 9.39118 9.81055 8.74346 9.81055H0.5Z" fill="#FAFAFA"/>
<path d="M0.5 31.1893L10.6309 22.5341C11.126 22.1111 11.7542 21.8789 12.4034 21.8789H20.7055L10.5119 30.539C10.0177 30.9589 9.39185 31.1893 8.74517 31.1893H0.5Z" fill="#FAFAFA"/>
<path d="M38.1714 0.5L27.8372 9.32887C27.2237 9.85302 26.8701 10.6222 26.8701 11.4323V18.0862L37.2042 9.25734C37.8178 8.73319 38.1714 7.964 38.1714 7.15386V0.5Z" fill="#FAFAFA"/>
<path d="M38.1714 40.5003L27.8372 31.6714C27.2237 31.1473 26.8701 30.3781 26.8701 29.568V22.9141L37.2042 31.743C37.8178 32.2671 38.1714 33.0363 38.1714 33.8464V40.5003Z" fill="#FAFAFA"/>
<path d="M50.5003 9.81055L40.3067 18.4707C39.8125 18.8906 39.1866 19.1209 38.54 19.1209H30.3193L40.4878 10.4627C40.9824 10.0416 41.6091 9.81055 42.2568 9.81055H50.5003Z" fill="#FAFAFA"/>
<path d="M50.5004 31.1893L40.3695 22.5341C39.8744 22.1111 39.2462 21.8789 38.597 21.8789H30.2949L40.4885 30.539C40.9827 30.9589 41.6085 31.1893 42.2552 31.1893H50.5004Z" fill="#FAFAFA"/>
<path d="M133.275 11.1686C132.614 11.1686 132.06 10.9448 131.612 10.4971C131.164 10.0494 130.941 9.49516 130.941 8.8343C130.941 8.17345 131.164 7.61919 131.612 7.17151C132.06 6.72384 132.614 6.5 133.275 6.5C133.915 6.5 134.459 6.72384 134.906 7.17151C135.354 7.61919 135.578 8.17345 135.578 8.8343C135.578 9.49516 135.354 10.0494 134.906 10.4971C134.459 10.9448 133.915 11.1686 133.275 11.1686Z" fill="#FAFAFA"/>
<path d="M135.066 13.502V31.1212H131.42V13.502H135.066Z" fill="#FAFAFA"/>
<path fill-rule="evenodd" clip-rule="evenodd" d="M144.907 14.0462C143.841 14.6005 142.998 15.2827 142.38 16.0927V13.5026H138.734V39.4997H142.38V28.5637C143.041 29.3737 143.894 30.0559 144.939 30.6102C145.983 31.1431 147.178 31.4096 148.521 31.4096C150.056 31.4096 151.453 31.0259 152.711 30.2584C153.99 29.4697 154.992 28.3825 155.717 26.9968C156.442 25.5898 156.804 24.0016 156.804 22.2323C156.804 20.4629 156.442 18.896 155.717 17.5317C154.992 16.1673 153.99 15.1121 152.711 14.366C151.453 13.5985 150.056 13.2148 148.521 13.2148C147.178 13.2148 145.973 13.492 144.907 14.0462ZM152.327 19.0985C152.839 19.9726 153.094 21.0171 153.094 22.2323C153.094 23.4474 152.839 24.5133 152.327 25.4299C151.836 26.3466 151.175 27.0501 150.344 27.5404C149.534 28.0094 148.659 28.2439 147.721 28.2439C146.804 28.2439 145.93 28.0094 145.099 27.5404C144.288 27.0714 143.627 26.3892 143.116 25.4939C142.625 24.5772 142.38 23.5113 142.38 22.2962C142.38 21.0811 142.625 20.0259 143.116 19.1305C143.627 18.2352 144.288 17.553 145.099 17.084C145.93 16.615 146.804 16.3805 147.721 16.3805C148.659 16.3805 149.534 16.615 150.344 17.084C151.175 17.5317 151.836 18.2032 152.327 19.0985Z" fill="#FAFAFA"/>
<path d="M165.687 31.4096C164.301 31.4096 163.054 31.1644 161.945 30.6741C160.858 30.1625 159.994 29.4803 159.355 28.6276C158.715 27.7536 158.374 26.7836 158.331 25.7177H162.105C162.169 26.4638 162.521 27.0927 163.161 27.6044C163.822 28.0947 164.643 28.3398 165.623 28.3398C166.647 28.3398 167.436 28.148 167.99 27.7642C168.566 27.3592 168.854 26.8476 168.854 26.2294C168.854 25.5685 168.534 25.0782 167.894 24.7584C167.276 24.4387 166.284 24.0869 164.92 23.7032C163.598 23.3408 162.521 22.989 161.689 22.648C160.858 22.3069 160.133 21.7846 159.515 21.0811C158.918 20.3776 158.619 19.4503 158.619 18.2991C158.619 17.3611 158.896 16.5084 159.451 15.741C160.005 14.9522 160.794 14.334 161.817 13.8863C162.862 13.4387 164.056 13.2148 165.399 13.2148C167.404 13.2148 169.014 13.7264 170.229 14.7497C171.466 15.7516 172.127 17.1266 172.212 18.8747H168.566C168.502 18.0859 168.182 17.4571 167.606 16.9881C167.031 16.5191 166.252 16.2846 165.272 16.2846C164.312 16.2846 163.576 16.4658 163.065 16.8282C162.553 17.1906 162.297 17.6702 162.297 18.2671C162.297 18.7361 162.468 19.1305 162.809 19.4503C163.15 19.7701 163.566 20.0259 164.056 20.2177C164.547 20.3883 165.272 20.6121 166.231 20.8892C167.51 21.2303 168.555 21.5821 169.365 21.9445C170.197 22.2856 170.911 22.7972 171.508 23.4794C172.105 24.1615 172.414 25.0675 172.436 26.1974C172.436 27.1993 172.159 28.0947 171.604 28.8834C171.05 29.6722 170.261 30.2904 169.237 30.7381C168.235 31.1857 167.052 31.4096 165.687 31.4096Z" fill="#FAFAFA"/>
<path d="M219.95 14.0782C218.862 13.5026 217.626 13.2148 216.24 13.2148C214.939 13.2148 213.724 13.5346 212.594 14.1741C211.464 14.7923 210.632 15.6344 210.099 16.7003C209.502 15.5704 208.649 14.7071 207.54 14.1102C206.432 13.5133 205.174 13.2148 203.766 13.2148C202.722 13.2148 201.741 13.4173 200.824 13.8224C199.907 14.2274 199.15 14.7923 198.553 15.5171V13.5026H194.907V31.1218H198.553V21.273C198.553 19.6954 198.948 18.491 199.736 17.6596C200.547 16.8069 201.634 16.3805 202.999 16.3805C204.363 16.3805 205.44 16.8069 206.229 17.6596C207.018 18.491 207.412 19.6954 207.412 21.273V31.1218H211.027V21.273C211.027 19.6954 211.421 18.491 212.21 17.6596C213.02 16.8069 214.108 16.3805 215.472 16.3805C216.837 16.3805 217.914 16.8069 218.703 17.6596C219.491 18.491 219.886 19.6954 219.886 21.273V31.1218H223.5V20.7294C223.5 19.1305 223.18 17.7662 222.541 16.6363C221.922 15.5065 221.059 14.6538 219.95 14.0782Z" fill="#FAFAFA"/>
<path d="M191.216 31.1212V13.502H187.57V23.3189C187.57 24.8964 187.164 26.1115 186.354 26.9642C185.565 27.7956 184.489 28.2113 183.124 28.2113C181.759 28.2113 180.683 27.7956 179.894 26.9642C179.105 26.1115 178.71 24.8964 178.71 23.3189V13.502H175.096V23.8625C175.096 25.4613 175.405 26.8256 176.024 27.9555C176.663 29.0853 177.527 29.938 178.614 30.5136C179.723 31.0892 180.97 31.377 182.356 31.377C183.401 31.377 184.382 31.1745 185.299 30.7694C186.237 30.3431 186.994 29.7675 187.57 29.0427V31.1212H191.216Z" fill="#FAFAFA"/>
<path fill-rule="evenodd" clip-rule="evenodd" d="M115.279 30.2904C116.622 31.0365 118.125 31.4096 119.788 31.4096C121.473 31.4096 123.008 31.0365 124.394 30.2904C125.801 29.523 126.91 28.4464 127.72 27.0607C128.53 25.6751 128.935 24.0869 128.935 22.2962C128.935 20.5055 128.541 18.9173 127.752 17.5317C126.963 16.146 125.886 15.0801 124.522 14.334C123.157 13.5879 121.633 13.2148 119.948 13.2148C118.264 13.2148 116.739 13.5879 115.374 14.334C114.01 15.0801 112.933 16.146 112.144 17.5317C111.355 18.9173 110.961 20.5055 110.961 22.2962C110.961 24.1082 111.345 25.7071 112.112 27.0927C112.88 28.4571 113.935 29.523 115.279 30.2904ZM122.411 27.5724C121.601 28.02 120.726 28.2439 119.788 28.2439C118.317 28.2439 117.091 27.7323 116.11 26.709C115.151 25.6644 114.671 24.1935 114.671 22.2962C114.671 21.0171 114.905 19.9406 115.374 19.0666C115.844 18.1712 116.473 17.4997 117.261 17.052C118.072 16.6044 118.946 16.3805 119.884 16.3805C120.822 16.3805 121.696 16.6044 122.507 17.052C123.317 17.4997 123.967 18.1712 124.458 19.0666C124.948 19.9406 125.193 21.0171 125.193 22.2962C125.193 23.5753 124.937 24.6625 124.426 25.5578C123.914 26.4532 123.242 27.1247 122.411 27.5724Z" fill="#FAFAFA"/>
<path fill-rule="evenodd" clip-rule="evenodd" d="M96.0765 30.3311C96.0518 30.3177 96.027 30.3041 96.0024 30.2904C94.6591 29.523 93.6036 28.4571 92.836 27.0927C92.0684 25.7071 91.6846 24.1082 91.6846 22.2962C91.6846 20.5055 92.0791 18.9173 92.868 17.5317C93.6569 16.146 94.7337 15.0801 96.0983 14.334C97.463 13.5879 98.9875 13.2148 100.672 13.2148C102.356 13.2148 103.881 13.5879 105.246 14.334C106.61 15.0801 107.687 16.146 108.476 17.5317C109.265 18.9173 109.659 20.5055 109.659 22.2962C109.659 24.0869 109.254 25.6751 108.444 27.0607C107.634 28.4464 106.525 29.523 105.118 30.2904C103.926 30.932 102.624 31.2978 101.211 31.3876C102.942 32.1794 105.575 32.8187 107.053 33.1776C107.686 33.3313 108.107 33.4335 108.156 33.4744L108.158 33.4749V37.1228H94.8745V33.4749H102.529C100.582 33.0352 97.9373 31.5919 96.0765 30.3311ZM100.512 28.2439C101.45 28.2439 102.324 28.02 103.135 27.5724C103.966 27.1247 104.638 26.4532 105.15 25.5578C105.661 24.6625 105.917 23.5753 105.917 22.2962C105.917 21.0171 105.672 19.9406 105.182 19.0666C104.691 18.1712 104.041 17.4997 103.231 17.052C102.42 16.6044 101.546 16.3805 100.608 16.3805C99.6698 16.3805 98.7956 16.6044 97.9853 17.052C97.1964 17.4997 96.5674 18.1712 96.0983 19.0666C95.6292 19.9406 95.3947 21.0171 95.3947 22.2962C95.3947 24.1935 95.8744 25.6644 96.8339 26.709C97.8148 27.7323 99.0408 28.2439 100.512 28.2439Z" fill="#FAFAFA"/>
<path fill-rule="evenodd" clip-rule="evenodd" d="M76.7259 30.2904C78.0692 31.0365 79.5724 31.4096 81.2356 31.4096C82.92 31.4096 84.4552 31.0365 85.8412 30.2904C87.2484 29.523 88.3572 28.4464 89.1674 27.0607C89.9777 25.6751 90.3828 24.0869 90.3828 22.2962C90.3828 20.5055 89.9883 18.9173 89.1994 17.5317C88.4105 16.146 87.3337 15.0801 85.9691 14.334C84.6045 13.5879 83.0799 13.2148 81.3955 13.2148C79.711 13.2148 78.1865 13.5879 76.8219 14.334C75.4573 15.0801 74.3805 16.146 73.5916 17.5317C72.8027 18.9173 72.4082 20.5055 72.4082 22.2962C72.4082 24.1082 72.792 25.7071 73.5596 27.0927C74.3272 28.4571 75.3826 29.523 76.7259 30.2904ZM83.8582 27.5724C83.048 28.02 82.1737 28.2439 81.2356 28.2439C79.7643 28.2439 78.5383 27.7323 77.5575 26.709C76.598 25.6644 76.1183 24.1935 76.1183 22.2962C76.1183 21.0171 76.3528 19.9406 76.8219 19.0666C77.291 18.1712 77.92 17.4997 78.7089 17.052C79.5191 16.6044 80.3933 16.3805 81.3315 16.3805C82.2697 16.3805 83.1439 16.6044 83.9541 17.052C84.7644 17.4997 85.4147 18.1712 85.9051 19.0666C86.3955 19.9406 86.6407 21.0171 86.6407 22.2962C86.6407 23.5753 86.3849 24.6625 85.8731 25.5578C85.3614 26.4532 84.6898 27.1247 83.8582 27.5724Z" fill="#FAFAFA"/>
<path d="M64.1461 28.1804H71.6621V31.1223H60.5V8.89844H64.1461V28.1804Z" fill="#FAFAFA"/>
</g>
<defs>
<clipPath id="clip0_4651_219">
<rect width="223" height="40" fill="white" transform="translate(0.5 0.5)"/>
</clipPath>
</defs>
</svg>
