<svg width="261" height="41" viewBox="0 0 261 41" fill="none" xmlns="http://www.w3.org/2000/svg">
<g clip-path="url(#clip0_4651_269)">
<path d="M34.2235 37.0809C38.2421 33.0622 40.4998 27.6118 40.4998 21.9286C40.4998 16.2454 38.2421 10.7949 34.2235 6.77629C30.2049 2.75765 24.7544 0.500001 19.0712 0.5C13.388 0.499999 7.93759 2.75764 3.91895 6.77628L10.99 13.8473C12.1058 14.9631 13.9076 14.9074 15.3271 14.2181C16.4831 13.6568 17.7617 13.3571 19.0712 13.3571C21.3445 13.3571 23.5247 14.2602 25.1321 15.8677C26.7396 17.4751 27.6426 19.6553 27.6426 21.9286C27.6426 23.2381 27.343 24.5167 26.7817 25.6727C26.0924 27.0922 26.0367 28.894 27.1524 30.0098L34.2235 37.0809Z" fill="#FAFAFA"/>
<path d="M30.5 40.5H20.0098C18.4943 40.5 17.0408 39.898 15.9692 38.8263L2.17368 25.0308C1.10204 23.9592 0.5 22.5057 0.5 20.9902V10.5L30.5 40.5Z" fill="#FAFAFA"/>
<path d="M11.2143 40.4995H4.78571C2.41878 40.4995 0.5 38.5808 0.5 36.2138V29.7852L11.2143 40.4995Z" fill="#FAFAFA"/>
<path d="M244.637 7.42969C253.077 7.42969 259.948 14.3012 259.948 22.7412V33.5713H252.479V22.7412C252.479 19.6416 250.612 16.9527 247.998 15.683V33.5713H240.529V22.7412C240.529 19.6416 238.661 16.9527 236.047 15.683V33.5713H228.578V7.42969H232.686C235.524 7.42969 238.213 8.25128 240.529 9.63305V7.42969H244.637Z" fill="#FAFAFA"/>
<path d="M225.612 22.7412C225.612 28.7164 220.719 33.5713 214.781 33.5713C208.806 33.5713 203.951 28.7164 203.951 22.7412V7.42969H211.42V22.7412C211.42 24.6085 212.914 26.1023 214.781 26.1023C216.611 26.1023 218.143 24.6085 218.143 22.7412V7.42969H225.612V22.7412Z" fill="#FAFAFA"/>
<path d="M201.674 25.1687C201.674 29.7621 197.939 33.4966 193.346 33.4966H182.254V26.0276H193.346C193.794 26.0276 194.205 25.6541 194.205 25.1687C194.205 24.7205 193.794 24.3471 193.346 24.3471H190.321C185.653 24.3471 181.881 20.5752 181.881 15.9071C181.881 11.2389 185.653 7.42969 190.321 7.42969H201.3V14.8987H190.321C189.761 14.8987 189.35 15.3469 189.35 15.9071C189.35 16.4299 189.761 16.878 190.321 16.878H193.346C197.939 16.878 201.674 20.6125 201.674 25.1687Z" fill="#FAFAFA"/>
<path d="M170.941 7.42969C176.17 7.42969 180.464 11.7244 180.464 16.9527C180.464 22.2184 176.17 26.4757 170.941 26.4757H168.14V33.5713H160.671V7.42969H170.941ZM170.941 19.0067C172.062 19.0067 172.995 18.1104 172.995 16.9527C172.995 15.8324 172.062 14.8987 170.941 14.8987H168.14V19.0067H170.941Z" fill="#FAFAFA"/>
<path d="M157.309 33.5713H149.84V7.42969H157.309V33.5713Z" fill="#FAFAFA"/>
<path d="M147.546 20.5005C147.546 27.7081 141.645 33.5713 134.475 33.5713C127.267 33.5713 121.404 27.7081 121.404 20.5005C121.404 13.3302 127.267 7.42969 134.475 7.42969C141.645 7.42969 147.546 13.3302 147.546 20.5005ZM140.077 20.5005C140.077 17.4382 137.537 14.8987 134.475 14.8987C131.375 14.8987 128.873 17.4382 128.873 20.5005C128.873 23.6002 131.375 26.1023 134.475 26.1023C137.537 26.1023 140.077 23.6002 140.077 20.5005Z" fill="#FAFAFA"/>
<path d="M119.231 18.82V33.5713H109.894C102.687 33.5713 96.8232 27.7081 96.8232 20.5005C96.8232 13.3302 102.687 7.42969 109.894 7.42969H119.231V14.8987H109.894C106.795 14.8987 104.293 17.4382 104.293 20.5005C104.293 23.6002 106.795 26.1023 109.894 26.1023H111.762V18.82H119.231Z" fill="#FAFAFA"/>
<path d="M95.6133 20.5005C95.6133 27.7081 89.7127 33.5713 82.5425 33.5713C75.3348 33.5713 69.4717 27.7081 69.4717 20.5005C69.4717 13.3302 75.3348 7.42969 82.5425 7.42969C89.7127 7.42969 95.6133 13.3302 95.6133 20.5005ZM88.1442 20.5005C88.1442 17.4382 85.6048 14.8987 82.5425 14.8987C79.4428 14.8987 76.9407 17.4382 76.9407 20.5005C76.9407 23.6002 79.4428 26.1023 82.5425 26.1023C85.6048 26.1023 88.1442 23.6002 88.1442 20.5005Z" fill="#FAFAFA"/>
<path d="M68.702 26.1023V33.5713H59.3657C55.6312 33.5713 52.6436 30.5837 52.6436 26.8492V7.42969H60.1126V26.1023H68.702Z" fill="#FAFAFA"/>
</g>
<defs>
<clipPath id="clip0_4651_269">
<rect width="260" height="40" fill="white" transform="translate(0.5 0.5)"/>
</clipPath>
</defs>
</svg>
