<svg width="260" height="46" viewBox="0 0 260 46" fill="none" xmlns="http://www.w3.org/2000/svg">
<g clip-path="url(#clip0_4651_282)">
<path d="M37.5 27.5C37.5 20.8726 32.1274 15.5 25.5 15.5H15.5V27.5H25.5V42.5H37.5V27.5Z" fill="#FAFAFA"/>
<path d="M0.5 28.5C0.500001 36.232 6.76801 42.5 14.5 42.5H22.5V30.5H14.5C13.3954 30.5 12.5 29.6046 12.5 28.5V27.5H0.5L0.5 28.5Z" fill="#FAFAFA"/>
<path d="M25.5 0.5C40.4117 0.5 52.5 12.5883 52.5 27.5V42.5H40.5V27.5C40.5 19.2157 33.7843 12.5 25.5 12.5H14.5C13.3954 12.5 12.5 13.3954 12.5 14.5V15.5H0.5V14.5C0.500001 6.76801 6.76802 0.5 14.5 0.5H25.5Z" fill="#FAFAFA"/>
<path d="M152.67 12.0174C151.887 12.0174 151.231 11.7529 150.7 11.2238C150.17 10.6948 149.905 10.0397 149.905 9.25872C149.905 8.47771 150.17 7.82267 150.7 7.29361C151.231 6.76454 151.887 6.5 152.67 6.5C153.427 6.5 154.071 6.76454 154.601 7.29361C155.131 7.82267 155.396 8.47771 155.396 9.25872C155.396 10.0397 155.131 10.6948 154.601 11.2238C154.071 11.7529 153.427 12.0174 152.67 12.0174Z" fill="#FAFAFA"/>
<path d="M154.79 14.7754V35.598H150.473V14.7754H154.79Z" fill="#FAFAFA"/>
<path fill-rule="evenodd" clip-rule="evenodd" d="M166.442 15.418C165.179 16.073 164.182 16.8792 163.45 17.8366V14.7756H159.133V45.4994H163.45V32.575C164.233 33.5323 165.243 34.3385 166.48 34.9936C167.717 35.6234 169.13 35.9384 170.721 35.9384C172.539 35.9384 174.192 35.4849 175.682 34.5779C177.197 33.6457 178.383 32.3608 179.242 30.7232C180.1 29.0604 180.529 27.1835 180.529 25.0924C180.529 23.0013 180.1 21.1496 179.242 19.5372C178.383 17.9248 177.197 16.6777 175.682 15.7959C174.192 14.8889 172.539 14.4355 170.721 14.4355C169.13 14.4355 167.704 14.763 166.442 15.418ZM175.227 21.3889C175.833 22.4219 176.136 23.6564 176.136 25.0924C176.136 26.5285 175.833 27.7882 175.227 28.8715C174.647 29.9548 173.864 30.7862 172.88 31.3657C171.92 31.9199 170.885 32.1971 169.774 32.1971C168.689 32.1971 167.654 31.9199 166.669 31.3657C165.71 30.8114 164.927 30.0052 164.321 28.9471C163.74 27.8637 163.45 26.6041 163.45 25.168C163.45 23.732 163.74 22.4849 164.321 21.4267C164.927 20.3686 165.71 19.5624 166.669 19.0081C167.654 18.4539 168.689 18.1767 169.774 18.1767C170.885 18.1767 171.92 18.4539 172.88 19.0081C173.864 19.5372 174.647 20.3308 175.227 21.3889Z" fill="#FAFAFA"/>
<path d="M191.047 35.9384C189.406 35.9384 187.929 35.6486 186.616 35.0692C185.329 34.4645 184.306 33.6583 183.549 32.6506C182.791 31.6176 182.387 30.4713 182.337 29.2116H186.806C186.881 30.0934 187.298 30.8366 188.055 31.4413C188.838 32.0207 189.81 32.3104 190.971 32.3104C192.183 32.3104 193.117 32.0837 193.774 31.6302C194.455 31.1515 194.796 30.5469 194.796 29.8163C194.796 29.0353 194.417 28.4558 193.66 28.0779C192.928 27.7 191.754 27.2843 190.138 26.8308C188.573 26.4025 187.298 25.9868 186.313 25.5837C185.329 25.1806 184.47 24.5634 183.738 23.732C183.031 22.9006 182.678 21.8046 182.678 20.4442C182.678 19.3356 183.006 18.3279 183.662 17.4209C184.319 16.4887 185.253 15.7581 186.465 15.2291C187.702 14.7 189.116 14.4355 190.706 14.4355C193.079 14.4355 194.985 15.0401 196.424 16.2494C197.889 17.4335 198.671 19.0585 198.772 21.1244H194.455C194.379 20.1922 194.001 19.449 193.319 18.8948C192.637 18.3405 191.716 18.0634 190.555 18.0634C189.419 18.0634 188.548 18.2775 187.942 18.7058C187.336 19.1341 187.033 19.701 187.033 20.4064C187.033 20.9606 187.235 21.4267 187.639 21.8046C188.043 22.1825 188.535 22.4849 189.116 22.7116C189.696 22.9132 190.555 23.1777 191.691 23.5052C193.206 23.9083 194.443 24.324 195.402 24.7523C196.387 25.1554 197.232 25.7601 197.939 26.5663C198.646 27.3725 199.012 28.4432 199.037 29.7785C199.037 30.9626 198.709 32.0207 198.053 32.9529C197.396 33.8851 196.462 34.6157 195.25 35.1447C194.064 35.6738 192.663 35.9384 191.047 35.9384Z" fill="#FAFAFA"/>
<path d="M255.296 15.4558C254.009 14.7756 252.545 14.4355 250.904 14.4355C249.364 14.4355 247.924 14.8134 246.586 15.5692C245.248 16.2998 244.264 17.2949 243.633 18.5546C242.926 17.2194 241.916 16.199 240.603 15.4936C239.29 14.7882 237.801 14.4355 236.134 14.4355C234.897 14.4355 233.736 14.6748 232.65 15.1535C231.565 15.6322 230.669 16.2998 229.962 17.1564V14.7756H225.644V35.5982H229.962V23.9587C229.962 22.0944 230.429 20.6709 231.363 19.6884C232.322 18.6806 233.61 18.1767 235.226 18.1767C236.841 18.1767 238.116 18.6806 239.05 19.6884C239.984 20.6709 240.452 22.0944 240.452 23.9587V35.5982H244.731V23.9587C244.731 22.0944 245.198 20.6709 246.132 19.6884C247.091 18.6806 248.379 18.1767 249.995 18.1767C251.61 18.1767 252.885 18.6806 253.82 19.6884C254.754 20.6709 255.221 22.0944 255.221 23.9587V35.5982H259.5V23.3163C259.5 21.4267 259.121 19.8143 258.364 18.4791C257.632 17.1438 256.609 16.136 255.296 15.4558Z" fill="#FAFAFA"/>
<path d="M221.274 35.598V14.7754H216.957V26.3771C216.957 28.2414 216.477 29.6775 215.518 30.6852C214.583 31.6678 213.309 32.1591 211.693 32.1591C210.077 32.1591 208.802 31.6678 207.868 30.6852C206.934 29.6775 206.467 28.2414 206.467 26.3771V14.7754H202.187V27.0195C202.187 28.9091 202.554 30.5215 203.286 31.8568C204.043 33.192 205.066 34.1998 206.353 34.88C207.666 35.5602 209.143 35.9004 210.784 35.9004C212.021 35.9004 213.182 35.661 214.268 35.1823C215.379 34.6785 216.275 33.9982 216.957 33.1416V35.598H221.274Z" fill="#FAFAFA"/>
<path fill-rule="evenodd" clip-rule="evenodd" d="M131.36 34.6157C132.951 35.4975 134.731 35.9384 136.7 35.9384C138.695 35.9384 140.512 35.4975 142.153 34.6157C143.82 33.7087 145.132 32.4364 146.092 30.7988C147.051 29.1612 147.531 27.2843 147.531 25.168C147.531 23.0517 147.064 21.1748 146.13 19.5372C145.196 17.8996 143.921 16.6399 142.305 15.7581C140.689 14.8763 138.884 14.4355 136.889 14.4355C134.895 14.4355 133.09 14.8763 131.474 15.7581C129.858 16.6399 128.583 17.8996 127.649 19.5372C126.715 21.1748 126.248 23.0517 126.248 25.168C126.248 27.3095 126.702 29.199 127.611 30.8366C128.52 32.449 129.77 33.7087 131.36 34.6157ZM139.805 31.4035C138.846 31.9325 137.811 32.1971 136.7 32.1971C134.958 32.1971 133.506 31.5924 132.345 30.3831C131.209 29.1486 130.641 27.4103 130.641 25.168C130.641 23.6564 130.919 22.3841 131.474 21.3511C132.029 20.293 132.774 19.4994 133.708 18.9703C134.668 18.4413 135.703 18.1767 136.814 18.1767C137.925 18.1767 138.96 18.4413 139.919 18.9703C140.878 19.4994 141.648 20.293 142.229 21.3511C142.81 22.3841 143.1 23.6564 143.1 25.168C143.1 26.6796 142.797 27.9645 142.191 29.0227C141.585 30.0808 140.79 30.8744 139.805 31.4035Z" fill="#FAFAFA"/>
<path fill-rule="evenodd" clip-rule="evenodd" d="M108.624 34.6638C108.595 34.6479 108.566 34.6319 108.537 34.6157C106.946 33.7087 105.696 32.449 104.787 30.8366C103.879 29.199 103.424 27.3095 103.424 25.168C103.424 23.0517 103.891 21.1748 104.825 19.5372C105.759 17.8996 107.034 16.6399 108.65 15.7581C110.266 14.8763 112.071 14.4355 114.066 14.4355C116.06 14.4355 117.865 14.8763 119.481 15.7581C121.097 16.6399 122.372 17.8996 123.306 19.5372C124.24 21.1748 124.707 23.0517 124.707 25.168C124.707 27.2843 124.227 29.1612 123.268 30.7988C122.309 32.4364 120.996 33.7087 119.329 34.6157C117.918 35.374 116.376 35.8062 114.704 35.9124C116.753 36.8482 119.871 37.6037 121.621 38.0279C122.37 38.2094 122.869 38.3303 122.927 38.3786L122.93 38.3792V42.6903H107.201V38.3792H116.265C113.959 37.8596 110.828 36.1538 108.624 34.6638ZM113.876 32.1971C114.987 32.1971 116.022 31.9325 116.982 31.4035C117.966 30.8744 118.761 30.0808 119.367 29.0227C119.973 27.9645 120.276 26.6796 120.276 25.168C120.276 23.6564 119.986 22.3841 119.405 21.3511C118.825 20.293 118.054 19.4994 117.095 18.9703C116.136 18.4413 115.101 18.1767 113.99 18.1767C112.879 18.1767 111.844 18.4413 110.884 18.9703C109.95 19.4994 109.206 20.293 108.65 21.3511C108.095 22.3841 107.817 23.6564 107.817 25.168C107.817 27.4103 108.385 29.1486 109.521 30.3831C110.683 31.5924 112.134 32.1971 113.876 32.1971Z" fill="#FAFAFA"/>
<path fill-rule="evenodd" clip-rule="evenodd" d="M85.713 34.6157C87.3035 35.4975 89.0834 35.9384 91.0526 35.9384C93.0471 35.9384 94.8648 35.4975 96.5058 34.6157C98.1721 33.7087 99.4849 32.4364 100.444 30.7988C101.403 29.1612 101.883 27.2843 101.883 25.168C101.883 23.0517 101.416 21.1748 100.482 19.5372C99.548 17.8996 98.2731 16.6399 96.6573 15.7581C95.0415 14.8763 93.2364 14.4355 91.2419 14.4355C89.2475 14.4355 87.4423 14.8763 85.8266 15.7581C84.2108 16.6399 82.9358 17.8996 82.0017 19.5372C81.0676 21.1748 80.6006 23.0517 80.6006 25.168C80.6006 27.3095 81.055 29.199 81.9639 30.8366C82.8727 32.449 84.1224 33.7087 85.713 34.6157ZM94.1579 31.4035C93.1985 31.9325 92.1634 32.1971 91.0526 32.1971C89.3106 32.1971 87.8589 31.5924 86.6976 30.3831C85.5615 29.1486 84.9934 27.4103 84.9934 25.168C84.9934 23.6564 85.2711 22.3841 85.8266 21.3511C86.382 20.293 87.1268 19.4994 88.0609 18.9703C89.0203 18.4413 90.0554 18.1767 91.1662 18.1767C92.277 18.1767 93.3122 18.4413 94.2715 18.9703C95.2309 19.4994 96.0009 20.293 96.5816 21.3511C97.1622 22.3841 97.4526 23.6564 97.4526 25.168C97.4526 26.6796 97.1496 27.9645 96.5437 29.0227C95.9378 30.0808 95.1425 30.8744 94.1579 31.4035Z" fill="#FAFAFA"/>
<path d="M70.8171 32.1218H79.7165V35.5985H66.5V9.33398H70.8171V32.1218Z" fill="#FAFAFA"/>
</g>
<defs>
<clipPath id="clip0_4651_282">
<rect width="259" height="45" fill="white" transform="translate(0.5 0.5)"/>
</clipPath>
</defs>
</svg>
