<svg width="208" height="41" viewBox="0 0 208 41" fill="none" xmlns="http://www.w3.org/2000/svg">
<g clip-path="url(#clip0_4651_296)">
<path d="M200.342 13.4902C202.486 13.4902 204.21 14.1514 205.513 15.4739C206.838 16.7755 207.5 18.6018 207.5 20.9529V31.1867H203.085V21.5512C203.085 20.1867 202.739 19.1476 202.045 18.4339C201.351 17.6991 200.405 17.3318 199.207 17.3318C198.009 17.3318 197.052 17.6991 196.337 18.4339C195.644 19.1476 195.297 20.1867 195.297 21.5512V31.1867H190.882V21.5512C190.882 20.1867 190.535 19.1476 189.841 18.4339C189.148 17.6991 188.202 17.3318 187.004 17.3318C185.784 17.3318 184.817 17.6991 184.102 18.4339C183.409 19.1476 183.062 20.1867 183.062 21.5512V31.1867H178.647V13.7421H183.062V15.8518C183.629 15.1171 184.355 14.5398 185.238 14.1199C186.142 13.7001 187.13 13.4902 188.202 13.4902C189.568 13.4902 190.787 13.784 191.86 14.3718C192.932 14.9386 193.762 15.7573 194.351 16.8279C194.918 15.8203 195.738 15.0121 196.81 14.4033C197.903 13.7945 199.081 13.4902 200.342 13.4902Z" fill="#FAFAFA"/>
<path d="M175.395 13.7422V31.1868H170.949V28.9826C170.381 29.7383 169.635 30.3366 168.71 30.7775C167.806 31.1973 166.818 31.4072 165.746 31.4072C164.38 31.4072 163.171 31.1238 162.12 30.557C161.069 29.9693 160.238 29.1191 159.629 28.0065C159.04 26.8729 158.746 25.5294 158.746 23.9759V13.7422H163.16V23.3462C163.16 24.7317 163.507 25.8023 164.201 26.558C164.895 27.2927 165.841 27.6601 167.039 27.6601C168.258 27.6601 169.215 27.2927 169.908 26.558C170.602 25.8023 170.949 24.7317 170.949 23.3462V13.7422H175.395Z" fill="#FAFAFA"/>
<path d="M149.509 31.4704C148.08 31.4704 146.797 31.2185 145.662 30.7147C144.527 30.1899 143.623 29.4866 142.95 28.605C142.298 27.7233 141.941 26.7471 141.878 25.6765H146.324C146.408 26.3483 146.734 26.9046 147.302 27.3454C147.89 27.7863 148.616 28.0067 149.477 28.0067C150.318 28.0067 150.97 27.8387 151.433 27.5029C151.916 27.167 152.158 26.7366 152.158 26.2118C152.158 25.645 151.863 25.2252 151.275 24.9523C150.707 24.6584 149.793 24.3435 148.531 24.0076C147.228 23.6927 146.156 23.3674 145.315 23.0315C144.495 22.6956 143.781 22.1813 143.171 21.4885C142.582 20.7958 142.288 19.8616 142.288 18.6861C142.288 17.7204 142.561 16.8387 143.108 16.041C143.675 15.2433 144.474 14.6135 145.504 14.1517C146.555 13.6899 147.785 13.459 149.194 13.459C151.275 13.459 152.936 13.9838 154.176 15.0334C155.416 16.062 156.099 17.458 156.226 19.2214H152C151.937 18.5286 151.643 17.9828 151.117 17.584C150.613 17.1641 149.929 16.9542 149.068 16.9542C148.269 16.9542 147.649 17.1011 147.207 17.395C146.787 17.6889 146.576 18.0983 146.576 18.6231C146.576 19.2109 146.871 19.6622 147.459 19.9771C148.048 20.271 148.962 20.5754 150.203 20.8903C151.464 21.2052 152.505 21.5305 153.325 21.8664C154.144 22.2023 154.849 22.7271 155.437 23.4408C156.047 24.1336 156.362 25.0573 156.383 26.2118C156.383 27.2195 156.099 28.1221 155.532 28.9198C154.985 29.7176 154.186 30.3473 153.135 30.8092C152.105 31.25 150.896 31.4704 149.509 31.4704Z" fill="#FAFAFA"/>
<path d="M126.971 16.2614C127.539 15.4637 128.317 14.8025 129.305 14.2777C130.314 13.7319 131.459 13.459 132.742 13.459C134.234 13.459 135.58 13.8263 136.778 14.5611C137.997 15.2958 138.954 16.3454 139.648 17.7099C140.362 19.0534 140.72 20.6174 140.72 22.4017C140.72 24.1861 140.362 25.771 139.648 27.1565C138.954 28.521 137.997 29.5811 136.778 30.3368C135.58 31.0926 134.234 31.4704 132.742 31.4704C131.459 31.4704 130.324 31.208 129.336 30.6832C128.369 30.1584 127.581 29.4971 126.971 28.6994V39.5H122.557V13.7424H126.971V16.2614ZM136.21 22.4017C136.21 21.3521 135.99 20.4494 135.548 19.6937C135.128 18.917 134.56 18.3292 133.845 17.9303C133.152 17.5315 132.395 17.3321 131.575 17.3321C130.776 17.3321 130.019 17.542 129.305 17.9618C128.611 18.3607 128.043 18.9485 127.602 19.7252C127.181 20.5019 126.971 21.4151 126.971 22.4647C126.971 23.5143 127.181 24.4275 127.602 25.2042C128.043 25.9809 128.611 26.5792 129.305 26.999C130.019 27.3979 130.776 27.5973 131.575 27.5973C132.395 27.5973 133.152 27.3874 133.845 26.9676C134.56 26.5477 135.128 25.9494 135.548 25.1727C135.99 24.396 136.21 23.4723 136.21 22.4017Z" fill="#FAFAFA"/>
<path d="M117.123 11.6641C116.345 11.6641 115.693 11.4227 115.168 10.9399C114.663 10.4361 114.411 9.81679 114.411 9.08206C114.411 8.34733 114.663 7.73855 115.168 7.25572C115.693 6.75191 116.345 6.5 117.123 6.5C117.901 6.5 118.542 6.75191 119.046 7.25572C119.572 7.73855 119.835 8.34733 119.835 9.08206C119.835 9.81679 119.572 10.4361 119.046 10.9399C118.542 11.4227 117.901 11.6641 117.123 11.6641ZM119.299 13.7424V31.187H114.884V13.7424H119.299Z" fill="#FAFAFA"/>
<path d="M103.636 31.4704C101.955 31.4704 100.441 31.1031 99.0954 30.3683C97.75 29.6126 96.6884 28.5525 95.9106 27.188C95.1538 25.8235 94.7754 24.249 94.7754 22.4647C94.7754 20.6803 95.1643 19.1059 95.9421 17.7414C96.7409 16.3769 97.8236 15.3273 99.19 14.5926C100.557 13.8368 102.081 13.459 103.762 13.459C105.444 13.459 106.968 13.8368 108.335 14.5926C109.701 15.3273 110.773 16.3769 111.551 17.7414C112.35 19.1059 112.749 20.6803 112.749 22.4647C112.749 24.249 112.339 25.8235 111.52 27.188C110.721 28.5525 109.628 29.6126 108.24 30.3683C106.874 31.1031 105.339 31.4704 103.636 31.4704ZM103.636 27.6288C104.435 27.6288 105.181 27.4399 105.875 27.062C106.59 26.6632 107.157 26.0754 107.578 25.2987C107.998 24.5219 108.209 23.5773 108.209 22.4647C108.209 20.8063 107.767 19.5363 106.884 18.6546C106.022 17.7519 104.961 17.3006 103.699 17.3006C102.438 17.3006 101.376 17.7519 100.514 18.6546C99.6735 19.5363 99.2531 20.8063 99.2531 22.4647C99.2531 24.1231 99.663 25.4036 100.483 26.3063C101.324 27.188 102.375 27.6288 103.636 27.6288Z" fill="#FAFAFA"/>
<path d="M84.6313 31.4704C82.9495 31.4704 81.4359 31.1031 80.0905 30.3683C78.7451 29.6126 77.6835 28.5525 76.9057 27.188C76.1489 25.8235 75.7705 24.249 75.7705 22.4647C75.7705 20.6803 76.1594 19.1059 76.9372 17.7414C77.736 16.3769 78.8187 15.3273 80.1851 14.5926C81.5515 13.8368 83.0756 13.459 84.7574 13.459C86.4392 13.459 87.9633 13.8368 89.3297 14.5926C90.6961 15.3273 91.7682 16.3769 92.5461 17.7414C93.3449 19.1059 93.7443 20.6803 93.7443 22.4647C93.7443 24.249 93.3344 25.8235 92.5145 27.188C91.7157 28.5525 90.6225 29.6126 89.2351 30.3683C87.8687 31.1031 86.3341 31.4704 84.6313 31.4704ZM84.6313 27.6288C85.4301 27.6288 86.1764 27.4399 86.8701 27.062C87.5849 26.6632 88.1525 26.0754 88.5729 25.2987C88.9933 24.5219 89.2036 23.5773 89.2036 22.4647C89.2036 20.8063 88.7621 19.5363 87.8792 18.6546C87.0173 17.7519 85.9557 17.3006 84.6943 17.3006C83.433 17.3006 82.3714 17.7519 81.5095 18.6546C80.6686 19.5363 80.2482 20.8063 80.2482 22.4647C80.2482 24.1231 80.6581 25.4036 81.478 26.3063C82.3188 27.188 83.3699 27.6288 84.6313 27.6288Z" fill="#FAFAFA"/>
<path d="M65.6264 31.4704C63.9446 31.4704 62.431 31.1031 61.0856 30.3683C59.7402 29.6126 58.6786 28.5525 57.9008 27.188C57.144 25.8235 56.7656 24.249 56.7656 22.4647C56.7656 20.6803 57.1545 19.1059 57.9323 17.7414C58.7311 16.3769 59.8138 15.3273 61.1802 14.5926C62.5466 13.8368 64.0707 13.459 65.7525 13.459C67.4343 13.459 68.9584 13.8368 70.3248 14.5926C71.6912 15.3273 72.7633 16.3769 73.5412 17.7414C74.34 19.1059 74.7394 20.6803 74.7394 22.4647C74.7394 24.249 74.3295 25.8235 73.5096 27.188C72.7108 28.5525 71.6176 29.6126 70.2302 30.3683C68.8638 31.1031 67.3292 31.4704 65.6264 31.4704ZM65.6264 27.6288C66.4252 27.6288 67.1715 27.4399 67.8652 27.062C68.58 26.6632 69.1476 26.0754 69.568 25.2987C69.9884 24.5219 70.1987 23.5773 70.1987 22.4647C70.1987 20.8063 69.7572 19.5363 68.8743 18.6546C68.0124 17.7519 66.9508 17.3006 65.6894 17.3006C64.4281 17.3006 63.3665 17.7519 62.5046 18.6546C61.6637 19.5363 61.2433 20.8063 61.2433 22.4647C61.2433 24.1231 61.6532 25.4036 62.4731 26.3063C63.3139 27.188 64.365 27.6288 65.6264 27.6288Z" fill="#FAFAFA"/>
<path d="M48.9146 27.6908H56.1672V31.186H44.5V9.20703H48.9146V27.6908Z" fill="#FAFAFA"/>
<path d="M76.9355 33.5301C78.0537 36.8509 81.1967 39.2429 84.8991 39.2429H85.3599C89.999 39.2429 93.7598 35.4875 93.7598 30.8549V30.3809H89.2058V30.8549C89.2058 32.9759 87.4839 34.6954 85.3599 34.6954H84.8991C83.8166 34.6954 82.8386 34.2488 82.1397 33.5301H76.9355Z" fill="#FAFAFA"/>
<path d="M15.5 0.5L20.9545 5.83333L0.5 25.8333V15.1667L15.5 0.5Z" fill="#FAFAFA"/>
<path d="M3.40827 28.6776L15.5 40.5006L30.5 25.834V15.1673L20.9545 5.83398L0.5 25.834L0.504169 25.8381L20.9545 5.83398V21.1673L11.75 30.1673V20.633L3.40827 28.6776Z" fill="#FAFAFA"/>
</g>
<defs>
<clipPath id="clip0_4651_296">
<rect width="207" height="40" fill="white" transform="translate(0.5 0.5)"/>
</clipPath>
</defs>
</svg>
