<svg width="288" height="41" viewBox="0 0 288 41" fill="none" xmlns="http://www.w3.org/2000/svg">
<g clip-path="url(#clip0_4651_256)">
<path d="M67.833 28.0633H78.7225L77.3641 34.4999H66.4745C61.0618 34.4999 57.5862 30.1773 58.7116 24.8451L61.5417 11.4355H68.0754L65.2453 24.8451C64.8702 26.6225 66.0287 28.0633 67.833 28.0633Z" fill="#FAFAFA"/>
<path d="M131.507 11.4355L128.677 24.8451C127.552 30.1773 122.251 34.4999 116.839 34.4999H105.949L107.308 28.0633H118.197C120.001 28.0633 121.768 26.6225 122.143 24.8451L123.615 17.8721H114.437C114.093 17.8721 113.756 18.1467 113.685 18.4855C113.623 18.7779 113.78 19.0297 114.058 19.0871L122.893 20.9031L116.186 26.373L111.445 25.3987C108.239 24.7396 106.442 21.8461 107.151 18.4855C107.973 14.5919 111.843 11.4355 115.795 11.4355H131.507Z" fill="#FAFAFA"/>
<path fill-rule="evenodd" clip-rule="evenodd" d="M148.385 11.4375C153.798 11.4375 157.274 15.7602 156.148 21.0924L155.356 24.8471C154.25 30.0896 149.108 34.356 143.791 34.498L145.148 28.0654L137.274 34.4876C132.165 34.2163 128.949 30.0041 130.038 24.8471L130.83 21.0924C131.938 15.8434 137.091 11.5728 142.415 11.4407L142.668 11.4375H148.385ZM141.226 17.8752C139.451 17.9192 137.733 19.3428 137.364 21.0924L136.572 24.8471C136.196 26.6245 137.355 28.0654 139.159 28.0654H144.876C146.68 28.0654 148.447 26.6245 148.822 24.8471L149.615 21.0924C149.99 19.315 148.831 17.8741 147.027 17.8741H141.31L141.226 17.8752Z" fill="#FAFAFA"/>
<path d="M161.214 34.4999H154.68L159.548 11.4355H166.081L161.214 34.4999Z" fill="#FAFAFA"/>
<path d="M182.502 11.4355C187.115 11.4355 190.078 15.1198 189.118 19.6646C188.291 23.5871 184.767 26.9643 180.7 27.7336L176.55 28.5185L172.152 23.0486L180.751 21.4222C181.637 21.2546 182.404 20.5189 182.585 19.6646C182.794 18.6746 182.148 17.8721 181.143 17.8721H173.162L169.653 34.4999H163.119L167.987 11.4355H182.502Z" fill="#FAFAFA"/>
<path d="M214.016 11.4355L212.658 17.872H197.341C197.079 17.8721 196.824 18.0807 196.769 18.338C196.722 18.5601 196.841 18.7514 197.053 18.795L206.945 20.8287L207.091 20.8607C210.139 21.5627 211.833 24.3584 211.15 27.5974C210.345 31.4095 206.556 34.4998 202.686 34.4999H192.269L187.094 28.0633H204.044C204.306 28.0632 204.561 27.8547 204.616 27.5974C204.66 27.3891 204.558 27.2078 204.371 27.15L204.332 27.1404L194.44 25.1067C191.301 24.4614 189.541 21.6283 190.236 18.338C191.04 14.5259 194.829 11.4355 198.699 11.4355H214.016Z" fill="#FAFAFA"/>
<path d="M219.081 24.8451C218.706 26.6225 219.864 28.0633 221.669 28.0633H230.652L234.162 11.4355H240.695L235.828 34.4999H229.294L230.652 28.0633L222.76 34.4999H220.31C214.897 34.4999 211.422 30.1773 212.547 24.8451L215.377 11.4355H221.911L219.081 24.8451Z" fill="#FAFAFA"/>
<path d="M248.863 11.4355L247.504 17.8721L255.396 11.4355H256.485C261.898 11.4355 265.374 15.7581 264.248 21.0904L261.418 34.4999H254.884L257.715 21.0904C258.09 19.313 256.931 17.8721 255.127 17.8721H247.504L243.995 34.4999H237.461L242.329 11.4355H248.863Z" fill="#FAFAFA"/>
<path d="M273.364 11.4355C278.777 11.4355 282.252 15.7581 281.127 21.0904L278.297 34.4999H271.763L274.593 21.0904C274.968 19.313 273.81 17.8721 272.006 17.8721H264.383L272.275 11.4355H273.364Z" fill="#FAFAFA"/>
<path fill-rule="evenodd" clip-rule="evenodd" d="M98.0212 11.4355C103.434 11.4355 106.91 15.7581 105.785 21.0903L104.992 24.845C103.867 30.1772 98.5663 34.5 93.1536 34.5H87.4366C82.0238 34.5 78.5481 30.1773 79.6735 24.845L80.466 21.0903C81.5365 16.0185 86.3838 11.8604 91.5124 11.4663L96.6629 17.8721L98.0212 11.4355ZM90.8614 17.8732C89.0868 17.9172 87.3691 19.3407 86.9998 21.0903L86.2072 24.845C85.8321 26.6224 86.9907 28.0634 88.7948 28.0634H94.5119C96.3161 28.0634 98.0829 26.6224 98.458 24.845L99.2505 21.0903C99.6256 19.3129 98.4671 17.8721 96.6629 17.8721H90.9459L90.8614 17.8732Z" fill="#FAFAFA"/>
<path d="M287.5 9.79019C287.5 11.6073 286.037 13.0804 284.233 13.0804C282.429 13.0804 280.966 11.6073 280.966 9.79019C280.966 7.97307 282.429 6.5 284.233 6.5C286.037 6.5 287.5 7.97307 287.5 9.79019Z" fill="#FAFAFA"/>
<path d="M43.5 31.5L31.5 40.5H5.5L7.5 35.5L12.5 31.5H29.5L32.5 35.5L40.5 11.5L45.5 7.5H50.5L43.5 31.5ZM43.5 5.5L38.5 9.5H21.5L18.5 5.5L10.5 29.5L5.5 33.5H0.5L7.5 9.5L19.5 0.5H45.5L43.5 5.5ZM24.5 13.5H35.5L29.5 31.5L26.5 27.5H15.5L21.5 9.5L24.5 13.5Z" fill="#FAFAFA"/>
</g>
<defs>
<clipPath id="clip0_4651_256">
<rect width="287" height="40" fill="white" transform="translate(0.5 0.5)"/>
</clipPath>
</defs>
</svg>
