<svg width="18" height="19" viewBox="0 0 18 19" fill="none" xmlns="http://www.w3.org/2000/svg">
<path d="M5.13022 2H2.24061C1.82611 2 1.4889 2.33781 1.50028 2.75215C1.74081 11.51 6.24 16.0092 14.9978 16.2497C15.4122 16.2611 15.75 15.9239 15.75 15.5094V12.6198C15.75 12.3232 15.5753 12.0544 15.3043 11.934L12.7646 10.8052C12.5218 10.6973 12.2399 10.7258 12.0236 10.8803L10.0895 12.2618C9.87615 12.4142 9.59693 12.4443 9.35708 12.3383C7.04339 11.316 6.43395 10.7066 5.41169 8.39293C5.30571 8.15308 5.33576 7.87388 5.48819 7.6605L6.86968 5.72641C7.02416 5.51012 7.05274 5.22825 6.94479 4.98536L5.81605 2.4457C5.69559 2.17467 5.42681 2 5.13022 2Z" fill="#EDEDED"/>
</svg>
