<svg width="18" height="18" viewBox="0 0 18 18" fill="none" xmlns="http://www.w3.org/2000/svg">
<path d="M8.64364 1.72117C8.6765 1.65477 8.72728 1.59887 8.79022 1.55979C8.85317 1.52071 8.92579 1.5 8.99989 1.5C9.07398 1.5 9.1466 1.52071 9.20955 1.55979C9.27249 1.59887 9.32327 1.65477 9.35614 1.72117L11.0886 5.23042C11.2028 5.4614 11.3712 5.66123 11.5796 5.81276C11.788 5.96429 12.03 6.063 12.2849 6.10042L16.1594 6.66742C16.2328 6.67806 16.3018 6.70902 16.3585 6.75682C16.4152 6.80462 16.4575 6.86733 16.4804 6.93788C16.5033 7.00842 16.5061 7.08397 16.4883 7.156C16.4706 7.22802 16.433 7.29363 16.3799 7.34542L13.5779 10.0739C13.3931 10.254 13.2548 10.4763 13.175 10.7216C13.0952 10.967 13.0762 11.2281 13.1196 11.4824L13.7811 15.3374C13.7941 15.4108 13.7862 15.4863 13.7583 15.5554C13.7304 15.6245 13.6836 15.6844 13.6233 15.7282C13.563 15.772 13.4916 15.7979 13.4173 15.8031C13.343 15.8083 13.2687 15.7924 13.2029 15.7574L9.73939 13.9364C9.51117 13.8166 9.25727 13.754 8.99951 13.754C8.74175 13.754 8.48785 13.8166 8.25963 13.9364L4.79689 15.7574C4.73113 15.7922 4.65693 15.8079 4.58272 15.8026C4.50851 15.7973 4.43727 15.7713 4.37711 15.7276C4.31694 15.6838 4.27026 15.6241 4.24238 15.5551C4.21449 15.4861 4.20653 15.4107 4.21938 15.3374L4.88014 11.4832C4.92378 11.2287 4.90487 10.9675 4.82504 10.722C4.7452 10.4764 4.60684 10.254 4.42189 10.0739L1.61988 7.34617C1.56633 7.29444 1.52838 7.22872 1.51036 7.15648C1.49233 7.08423 1.49496 7.00838 1.51794 6.93756C1.54093 6.86674 1.58334 6.8038 1.64034 6.75591C1.69735 6.70801 1.76666 6.67709 1.84038 6.66667L5.71414 6.10042C5.96933 6.06329 6.21168 5.96471 6.42032 5.81316C6.62897 5.66161 6.79766 5.46162 6.91188 5.23042L8.64364 1.72117Z" fill="#FDCC0D"/>
</svg>
