<svg width="150" height="150" viewBox="0 0 150 150" fill="none" xmlns="http://www.w3.org/2000/svg">
<path fill-rule="evenodd" clip-rule="evenodd" d="M141.869 56.421L127.575 81.347L138.236 99.923C144.281 110.408 136.747 123.561 124.686 123.561H96.0992L85.4382 142.136C79.3932 152.621 64.3242 152.621 58.3092 142.136L44.0152 117.209H22.6942C10.6342 117.209 3.09918 104.087 9.11418 93.571L23.4082 68.675L12.7482 50.1C6.73218 39.584 14.2662 26.462 26.3272 26.462H54.9142L65.5752 7.887C71.5902 -2.629 86.6582 -2.629 92.7042 7.887L106.997 32.783H128.319C140.38 32.783 147.914 45.935 141.869 56.421ZM117.808 74.996L96.6642 38.146H54.3502L33.1772 74.996L54.3502 111.877H96.6652L117.808 74.996Z" fill="black"/>
</svg>
