<svg width="150" height="150" viewBox="0 0 150 150" fill="none" xmlns="http://www.w3.org/2000/svg">
<g clip-path="url(#clip0_4310_905)">
<mask id="mask0_4310_905" style="mask-type:luminance" maskUnits="userSpaceOnUse" x="0" y="0" width="150" height="150">
<path d="M0 0H150V150H0V0Z" fill="white"/>
</mask>
<g mask="url(#mask0_4310_905)">
<path fill-rule="evenodd" clip-rule="evenodd" d="M139.18 112.946L100.72 101.955L111.593 140.047L83.7742 111.297L74.1452 149.707L64.4292 110.893L36.8992 139.382L47.8882 100.885L9.80419 111.76L38.5472 83.9361L0.117188 74.3341L38.9232 64.6161L10.4692 37.0521L48.9582 48.0421L38.0562 9.95206L65.8752 38.7291L75.5042 0.289062L85.2202 39.1051L112.749 10.6451L101.79 49.1121L139.845 38.2371L111.101 66.0611L149.533 75.6911L110.725 85.4111L139.18 112.946ZM98.6092 68.6361L92.2182 57.5871L81.2012 51.2241H68.4482L57.4312 57.5871L51.0402 68.6361V81.3621L57.4302 92.4111L68.4482 98.7741H81.2012L92.2182 92.4111L98.6092 81.3621V68.6361Z" fill="black"/>
</g>
</g>
<defs>
<clipPath id="clip0_4310_905">
<rect width="150" height="150" fill="white"/>
</clipPath>
</defs>
</svg>
