<svg width="150" height="150" viewBox="0 0 150 150" fill="none" xmlns="http://www.w3.org/2000/svg">
<g clip-path="url(#clip0_4310_899)">
<mask id="mask0_4310_899" style="mask-type:luminance" maskUnits="userSpaceOnUse" x="0" y="0" width="150" height="150">
<path d="M0 0H150V150H0V0Z" fill="white"/>
</mask>
<g mask="url(#mask0_4310_899)">
<path fill-rule="evenodd" clip-rule="evenodd" d="M141.561 87.7768V87.8218L128.441 97.9658L130.425 113.745C135.024 124.7 124.023 135.655 113.113 131.102C113.113 131.072 113.098 131.057 113.068 131.057L96.6128 128.983L86.8748 141.516V141.561C82.4118 152.517 66.8578 152.517 62.3948 141.561C62.3648 141.561 62.3498 141.546 62.3498 141.516L52.2058 128.397L36.4268 130.426C25.4718 135.024 14.5168 124.024 19.0698 113.114L19.1148 113.069L21.1888 96.6128L8.65578 86.8758H8.61078C-2.34422 82.3668 -2.34422 66.8578 8.61078 62.3498H8.65578L21.7758 52.2068L19.7458 36.4268C15.1478 25.4718 26.1478 14.5168 37.0578 19.0708H37.1028L53.5588 21.1898L63.2958 8.61078C67.8048 -2.34422 83.3138 -2.34422 87.8218 8.61078L97.9648 21.7308L113.744 19.7468H113.789C124.7 15.1478 135.655 26.1488 131.101 37.0588V37.1038L128.982 53.5588L141.561 63.2968C152.561 67.7598 152.561 83.3138 141.561 87.7768ZM118.027 92.6008L120.011 77.9938C120.235 76.3785 120.235 74.74 120.011 73.1248L117.802 57.1208L108.875 45.3988C107.91 44.0794 106.755 42.9098 105.449 41.9278L92.6008 32.1898L77.9938 30.1608C76.3783 29.9351 74.7393 29.9351 73.1238 30.1608L57.1208 32.3708L45.3998 41.2968C44.0918 42.2878 42.9198 43.4148 41.9278 44.7228L32.1888 57.5708L30.2058 72.1768C29.9801 73.7923 29.9801 75.4313 30.2058 77.0468L32.3698 93.0508L41.2958 104.772C42.2878 106.08 43.4148 107.252 44.7218 108.244L57.5718 117.982L72.1778 119.966C73.8011 120.19 75.4241 120.19 77.0468 119.966L93.0508 117.801L104.818 108.875C106.08 107.883 107.252 106.756 108.245 105.449L118.027 92.6008Z" fill="black"/>
</g>
</g>
<defs>
<clipPath id="clip0_4310_899">
<rect width="150" height="150" fill="white"/>
</clipPath>
</defs>
</svg>
