<svg width="150" height="150" viewBox="0 0 150 150" fill="none" xmlns="http://www.w3.org/2000/svg">
<path d="M139.39 111.717C139.39 111.717 129.408 95.675 111.539 85.365C110.269 84.6282 108.975 83.9315 107.661 83.276C109.118 83.366 110.588 83.4107 112.073 83.41C132.706 83.41 149.416 74.478 149.416 74.478C149.416 74.478 132.706 65.546 112.073 65.546C110.588 65.546 109.118 65.5903 107.661 65.679C108.975 65.0235 110.269 64.3268 111.539 63.59C129.408 53.325 139.39 37.24 139.39 37.24C139.39 37.24 120.451 37.818 102.582 48.127C101.313 48.8621 100.064 49.6324 98.838 50.437C99.6452 49.215 100.418 47.9705 101.155 46.705C111.449 28.885 112.073 9.999 112.073 9.999C112.073 9.999 95.943 19.954 85.648 37.773C84.8874 39.0268 84.1886 40.317 83.554 41.639C83.6427 40.1877 83.687 38.721 83.687 37.239C83.687 16.665 74.73 0 74.73 0C74.73 0 65.73 16.664 65.73 37.239C65.7587 38.7203 65.8177 40.187 65.907 41.639C65.2497 40.3284 64.5513 39.0388 63.813 37.772C53.474 19.952 37.388 9.998 37.388 9.998C37.388 9.998 37.967 28.885 48.261 46.704C49.02 47.9565 49.7924 49.2009 50.578 50.437C49.3605 49.6191 48.1119 48.8486 46.835 48.127C29.01 37.816 10.026 37.238 10.026 37.238C10.026 37.238 20.008 53.324 37.878 63.589C39.1853 64.3297 40.4777 65.0263 41.755 65.679C40.3011 65.5889 38.8447 65.5442 37.388 65.545C16.755 65.546 0 74.478 0 74.478C0 74.478 16.755 83.41 37.388 83.41C38.8727 83.41 40.3283 83.3653 41.755 83.276C40.477 83.9273 39.1847 84.624 37.878 85.366C20.008 95.675 10.026 111.717 10.026 111.717C10.026 111.717 29.01 111.139 46.835 100.874C48.1058 100.126 49.3541 99.3411 50.578 98.519C49.7858 99.7657 49.0134 101.025 48.261 102.296C37.967 120.071 37.388 139.001 37.388 139.001C37.388 139.001 53.474 129.047 63.813 111.228C64.555 109.925 65.253 108.636 65.907 107.362C65.8163 108.812 65.757 110.264 65.729 111.717C65.73 132.291 74.73 149 74.73 149C74.73 149 83.687 132.291 83.687 111.717C83.687 110.236 83.6427 108.784 83.554 107.362C84.2002 108.678 84.8988 109.968 85.648 111.228C95.942 129.047 112.073 139.001 112.073 139.001C112.073 139.001 111.449 120.071 101.155 102.296C100.432 101.022 99.6589 99.7765 98.838 98.563C100.056 99.333 101.304 100.103 102.582 100.874C120.451 111.139 139.39 111.717 139.39 111.717Z" fill="black"/>
</svg>
