<svg width="18" height="18" viewBox="0 0 18 18" fill="none" xmlns="http://www.w3.org/2000/svg">
<path d="M14.25 3.75C14.25 3.33579 13.9142 3 13.5 3L6 3L7.81065 4.5H13.5C13.9142 4.5 14.25 4.16421 14.25 3.75Z" fill="black"/>
<path d="M14.0303 13.3447L6.31065 5.625L5.25 6.68566L12.9697 14.4053C13.2626 14.6982 13.7374 14.6982 14.0303 14.4053C14.3232 14.1124 14.3232 13.6375 14.0303 13.3447Z" fill="black"/>
<path d="M5.25 12.375L5.25 6.68566L6.31065 5.625L3.75 3V12.375C3.75 12.7892 4.08578 13.125 4.5 13.125C4.91423 13.125 5.25 12.7892 5.25 12.375Z" fill="black"/>
</svg>
