<svg width="19" height="18" viewBox="0 0 19 18" fill="none" xmlns="http://www.w3.org/2000/svg">
<path d="M4.22803 3.75C4.22803 3.33579 4.56382 3 4.97803 3H12.478L10.6674 4.5H4.97803C4.56382 4.5 4.22803 4.16421 4.22803 3.75Z" fill="white"/>
<path d="M4.44769 13.3447L12.1674 5.625L13.228 6.68566L5.50836 14.4053C5.21546 14.6982 4.74059 14.6982 4.44769 14.4053C4.1548 14.1124 4.1548 13.6375 4.44769 13.3447Z" fill="white"/>
<path d="M13.228 12.375L13.228 6.68566L12.1674 5.625L14.728 3V12.375C14.728 12.7892 14.3923 13.125 13.978 13.125C13.5638 13.125 13.228 12.7892 13.228 12.375Z" fill="white"/>
</svg>
