<svg width="18" height="18" viewBox="0 0 18 18" fill="none" xmlns="http://www.w3.org/2000/svg">
<path d="M3.75 3.75C3.75 3.33579 4.08579 3 4.5 3H12L10.1894 4.5H4.5C4.08579 4.5 3.75 4.16421 3.75 3.75Z" fill="black"/>
<path d="M3.96967 13.3447L11.6894 5.625L12.75 6.68566L5.03033 14.4053C4.73743 14.6982 4.26257 14.6982 3.96967 14.4053C3.67678 14.1124 3.67678 13.6375 3.96967 13.3447Z" fill="black"/>
<path d="M12.75 12.375L12.75 6.68566L11.6894 5.625L14.25 3V12.375C14.25 12.7892 13.9142 13.125 13.5 13.125C13.0858 13.125 12.75 12.7892 12.75 12.375Z" fill="black"/>
</svg>
