<svg width="20" height="20" viewBox="0 0 20 20" fill="none" xmlns="http://www.w3.org/2000/svg">
<path fill-rule="evenodd" clip-rule="evenodd" d="M14.4253 1.60948C13.3058 1.45897 11.8719 1.45898 10.0463 1.45898H9.95101C8.12546 1.45898 6.69157 1.45897 5.57206 1.60948C4.42484 1.76372 3.51462 2.08625 2.79946 2.80141C2.0843 3.51658 1.76176 4.42679 1.60753 5.574C1.45701 6.69352 1.45702 8.12742 1.45703 9.95298V10.0483C1.45702 11.8739 1.45701 13.3078 1.60753 14.4273C1.76176 15.5745 2.0843 16.4847 2.79946 17.1999C3.51462 17.9151 4.42484 18.2376 5.57206 18.3918C6.69157 18.5423 8.12546 18.5423 9.95101 18.5423H10.0463C11.8719 18.5423 13.3058 18.5423 14.4253 18.3918C15.5726 18.2376 16.4828 17.9151 17.1979 17.1999C17.9131 16.4847 18.2356 15.5745 18.3898 14.4273C18.5403 13.3078 18.5403 11.8739 18.5403 10.0483V9.95298C18.5403 8.1274 18.5403 6.69352 18.3898 5.574C18.2356 4.42679 17.9131 3.51658 17.1979 2.80141C16.4828 2.08625 15.5726 1.76372 14.4253 1.60948ZM5.83203 5.20898C5.59733 5.20898 5.38241 5.34048 5.27556 5.54945C5.16871 5.75843 5.18794 6.00964 5.32536 6.19992L8.50835 10.6072L5.3901 13.7254C5.14602 13.9695 5.14602 14.3652 5.3901 14.6092C5.63417 14.8533 6.0299 14.8533 6.27398 14.6092L9.24968 11.6336L11.3438 14.5332C11.4613 14.696 11.6498 14.7923 11.8505 14.7923H14.1653C14.4001 14.7923 14.615 14.6608 14.7218 14.4518C14.8287 14.2429 14.8094 13.9917 14.672 13.8014L11.4891 9.39415L14.6073 6.27593C14.8513 6.03185 14.8513 5.63612 14.6073 5.39204C14.3633 5.14797 13.9675 5.14797 13.7234 5.39204L10.7478 8.36773L8.65351 5.46805C8.53601 5.30536 8.34751 5.20898 8.14685 5.20898H5.83203Z" fill="white"/>
</svg>
