<svg xmlns="http://www.w3.org/2000/svg" width="1500" height="500" viewBox="0 0 1500 500">
  <!-- Background -->
  <rect width="1500" height="500" fill="#1A1814"/>

  <!-- Subtle constellation pattern -->
  <g opacity="0.15" fill="#C9A961">
    <circle cx="150" cy="80" r="2"/>
    <circle cx="250" cy="120" r="2"/>
    <circle cx="350" cy="90" r="2"/>
    <circle cx="1250" cy="100" r="2"/>
    <circle cx="1350" cy="140" r="2"/>
    <circle cx="180" cy="380" r="2"/>
    <circle cx="280" cy="420" r="2"/>
    <circle cx="1280" cy="360" r="2"/>
    <circle cx="1380" cy="400" r="2"/>
  </g>

  <!-- Logo constellation centered left -->
  <g transform="translate(200, 180) scale(0.6)">
    <g stroke="#697565" stroke-linecap="round" stroke-width="9">
      <path d="M80 15 20 165M80 15l60 150"/>
    </g>
    <g stroke="#697565" stroke-linecap="round" stroke-width="7">
      <path d="m80 120-38-25M80 120l38-25"/>
    </g>
    <g fill="#C9A961">
      <circle cx="80" cy="15" r="11"/>
      <circle cx="20" cy="165" r="11"/>
      <circle cx="140" cy="165" r="11"/>
      <circle cx="42" cy="95" r="7"/>
      <circle cx="118" cy="95" r="7"/>
      <circle cx="80" cy="120" r="5"/>
    </g>
  </g>

  <!-- Text content -->
  <text x="450" y="220" font-family="-apple-system, BlinkMacSystemFont, 'Segoe UI', sans-serif" font-size="56" font-weight="600" fill="#E8D7B0">Andria Labs</text>
  <text x="450" y="280" font-family="-apple-system, BlinkMacSystemFont, 'Segoe UI', sans-serif" font-size="32" font-weight="500" fill="#C9A961">AI Systems &amp; Strategy</text>
  <text x="450" y="340" font-family="-apple-system, BlinkMacSystemFont, 'Segoe UI', sans-serif" font-size="24" fill="#697565">Research-grade expertise. Production-ready solutions.</text>
</svg>
