<svg xmlns="http://www.w3.org/2000/svg" width="50" height="50" fill="none"><path fill="#fff" d="M46.367 12.563a3.285 3.285 0 0 0-4.517-1.218l-8.66 5.03c-2.205 1.28-4.954-.317-4.954-2.874V3.403A3.31 3.31 0 0 0 24.929.078c-1.817 0-3.294 1.486-3.294 3.325v10.061c0 2.558-2.75 4.153-4.954 2.875l-8.697-5.055a3.31 3.31 0 0 0-4.517 1.218 3.333 3.333 0 0 0 1.21 4.53l8.673 5.031c2.192 1.28 2.192 4.483 0 5.762l-8.696 5.042a3.337 3.337 0 0 0-1.212 4.544 3.28 3.28 0 0 0 4.506 1.206l8.672-5.031c2.192-1.279 4.954.329 4.954 2.875v10.11c0 1.826 1.478 3.312 3.294 3.312a3.31 3.31 0 0 0 3.307-3.313V36.497c0-2.546 2.75-4.153 4.954-2.874l8.696 5.054a3.284 3.284 0 0 0 4.506-1.218c.908-1.583.375-3.617-1.211-4.53l-8.66-5.031c-2.205-1.28-2.205-4.483 0-5.75l8.696-5.054a3.334 3.334 0 0 0 1.211-4.531"/></svg>