<svg xmlns="http://www.w3.org/2000/svg" width="51" height="50" fill="none"><g clip-path="url(#a)"><path fill="#fff" d="M.578.175Q.59 1.741.787 3.282c.139 1.082.355 2.164.634 3.215a26 26 0 0 0 1.058 3.107 25 25 0 0 0 1.454 2.945c.548.95 1.151 1.855 1.816 2.729a26 26 0 0 0 2.164 2.465c.78.773 1.6 1.5 2.466 2.164a27 27 0 0 0 2.728 1.824c.95.541 1.932 1.028 2.945 1.445 1.012.426 2.048.773 3.107 1.06 1.058.278 2.133.494 3.215.64 1.028.132 2.071.194 3.107.202 0-.31-.008-.619-.016-.92a19 19 0 0 0-.077-1.09q-.046-.549-.116-1.09a20 20 0 0 0-.17-1.082q-.093-.54-.209-1.074-.124-.533-.262-1.066-.14-.525-.302-1.052-.17-.518-.355-1.035a24 24 0 0 0-.395-1.013 22 22 0 0 0-.44-1.005 25 25 0 0 0-.487-.981q-.255-.487-.526-.959-.27-.471-.564-.935-.294-.463-.61-.912a28 28 0 0 0-1.33-1.731q-.355-.426-.726-.827A27 27 0 0 0 17.35 6.76a22 22 0 0 0-.82-.719 27.643 27.643 0 0 0-1.739-1.337 28 28 0 0 0-.911-.603 24 24 0 0 0-1.894-1.097q-.487-.255-.982-.48-.495-.23-.996-.44a21 21 0 0 0-2.056-.75q-.525-.17-1.052-.309A40 40 0 0 0 5.834.762 26 26 0 0 0 4.767.554Q4.227.46 3.685.384a27 27 0 0 0-2.18-.186Q1.043.183.579.175m24.903 24.903a25 25 0 0 0 3.107-.201 27 27 0 0 0 3.223-.642 25.975 25.975 0 0 0 6.044-2.504 25 25 0 0 0 5.194-3.988c.773-.773 1.5-1.6 2.164-2.465a26 26 0 0 0 1.824-2.729 27 27 0 0 0 1.453-2.945 26 26 0 0 0 1.051-3.107c.278-1.05.495-2.133.642-3.215a25 25 0 0 0 .2-3.107q-.463 0-.92.023a25 25 0 0 0-2.179.186q-.54.07-1.082.17c-.355.062-.719.131-1.074.208-.356.085-.711.17-1.059.263a18 18 0 0 0-1.051.31q-.525.162-1.036.347-.518.186-1.02.394-.51.21-1.005.44-.495.234-.981.488c-.317.17-.642.34-.959.525q-.471.27-.935.565-.464.3-.912.61-.44.313-.881.65-.431.334-.85.68-.418.356-.82.726c-.278.247-.533.495-.796.758q-.386.386-.757.788-.37.402-.719.82c-.232.285-.464.563-.688.857q-.332.433-.641.881-.318.45-.61.912-.295.456-.573.935-.27.472-.525.959-.248.487-.48.981-.23.495-.44.998-.21.51-.402 1.02-.186.518-.348 1.035-.162.525-.309 1.052-.14.532-.255 1.066-.124.534-.216 1.075-.093.533-.17 1.081a26 26 0 0 0-.21 3.1m0 0q0 .456.023.92.024.548.07 1.09.044.544.123 1.089.07.54.163 1.082.092.54.216 1.074.115.534.255 1.06.147.533.31 1.05.16.526.347 1.036a30 30 0 0 0 .843 2.025q.231.495.479.982.255.48.525.958.279.471.572.935.295.465.61.912c.202.294.426.588.642.881.224.286.456.572.688.85q.348.419.719.828a27 27 0 0 0 1.546 1.545q.409.371.827.72a22 22 0 0 0 1.731 1.328q.449.318.912.611.464.294.935.564.474.279.959.534.486.246.981.479.495.231 1.005.44.502.21 1.02.402.51.186 1.036.348.518.163 1.051.31.525.138 1.059.254.533.124 1.074.217t1.082.17a26 26 0 0 0 3.1.209c0-1.036-.07-2.08-.201-3.108a25.35 25.35 0 0 0-1.693-6.322 27 27 0 0 0-1.453-2.945 25 25 0 0 0-3.988-5.193 25 25 0 0 0-2.466-2.165 26 26 0 0 0-2.728-1.824 25 25 0 0 0-2.945-1.445 24 24 0 0 0-3.1-1.059 27 27 0 0 0-3.222-.641 26 26 0 0 0-3.107-.201m0 0c-1.036 0-2.072.07-3.107.2a25.4 25.4 0 0 0-6.322 1.693 26 26 0 0 0-2.945 1.453 27 27 0 0 0-2.728 1.824 25 25 0 0 0-2.466 2.165 24 24 0 0 0-2.156 2.465 24 24 0 0 0-1.824 2.728 24 24 0 0 0-1.454 2.945 26 26 0 0 0-1.058 3.1 25.3 25.3 0 0 0-.843 6.33q.464-.008.928-.024.54-.022 1.09-.07.54-.053 1.09-.123.54-.069 1.074-.162.54-.093 1.074-.217.54-.116 1.066-.255.525-.146 1.052-.309.517-.163 1.035-.355.51-.185 1.02-.395a25 25 0 0 0 1.98-.927q.486-.247.965-.526.472-.27.928-.564.463-.294.912-.61.448-.31.88-.642.44-.34.859-.688.417-.355.819-.718.402-.371.788-.758.395-.387.758-.796.371-.402.726-.82.348-.416.68-.85.332-.44.65-.888.316-.449.61-.905.294-.463.564-.935.279-.48.526-.958.255-.487.487-.982.232-.503.44-1.005.21-.502.395-1.02.185-.51.355-1.035.162-.518.302-1.052.147-.525.262-1.059.117-.532.217-1.074a26 26 0 0 0 .278-2.172q.047-.54.077-1.09.015-.463.016-.92"/></g><defs><clipPath id="a"><path fill="#fff" d="M.5 0h50v50H.5z"/></clipPath></defs></svg>