<svg xmlns="http://www.w3.org/2000/svg" width="51" height="50" fill="none"><g clip-path="url(#a)"><path fill="#fff" d="M42.964 17.355a8 8 0 0 0-.422-.012 22.63 22.63 0 0 0-15.028 5.694 22.6 22.6 0 0 0 5.693-15.02q0-.21-.012-.421c-.176-9.96-15.157-9.96-15.344 0v.421a22.6 22.6 0 0 0 5.692 15.02 22.63 22.63 0 0 0-15.028-5.694q-.21 0-.422.012c-9.956.176-9.956 15.16 0 15.348h.422a22.57 22.57 0 0 0 15.028-5.694 22.64 22.64 0 0 0-5.692 15.032v.422c.187 9.959 15.168 9.959 15.344 0q.012-.21.012-.422a22.64 22.64 0 0 0-5.693-15.032 22.57 22.57 0 0 0 15.028 5.694h.422c9.957-.187 9.957-15.172 0-15.348"/></g><defs><clipPath id="a"><path fill="#fff" d="M.5 0h50v50H.5z"/></clipPath></defs></svg>