<svg xmlns="http://www.w3.org/2000/svg" width="50" height="50" fill="none"><g clip-path="url(#a)"><path fill="#fff" d="M48.27 49.825c-1.932 0-5.132-1.304-8.998-3.672-4.058-2.487-8.708-6.038-13.455-10.265l-.81-.712-.796.712c-4.747 4.227-9.397 7.778-13.455 10.266-3.878 2.367-7.066 3.67-8.999 3.67-.592 0-1.026-.12-1.28-.373-.688-.689-.592-3.189 1.945-7.923C4.849 37.035 8.968 31.42 14.04 25.731l.725-.809-.725-.809C8.968 18.425 4.837 12.809 2.42 8.316-.114 3.57-.21 1.082.478.394.731.14 1.165.019 1.757.019c1.933 0 5.121 1.305 8.999 3.672 4.058 2.488 8.708 6.038 13.455 10.265l.797.713.81-.713C30.563 9.73 35.213 6.18 39.272 3.691 43.137 1.324 46.338.019 48.27.019c.592 0 1.026.121 1.28.375.688.688.592 3.176-1.957 7.922-2.415 4.493-6.534 10.109-11.607 15.797l-.725.81.725.808c5.073 5.689 9.192 11.304 11.62 15.797 2.536 4.734 2.633 7.234 1.944 7.923-.254.253-.688.374-1.28.374"/></g><defs><clipPath id="a"><path fill="#fff" d="M0 0h50v50H0z"/></clipPath></defs></svg>