<svg xmlns="http://www.w3.org/2000/svg" width="50" height="50" fill="none"><g fill="#fff" clip-path="url(#a)"><path d="M8.9 25.065A55.4 55.4 0 0 0 .116 49.96a55.54 55.54 0 0 0 24.897-8.794 55.5 55.5 0 0 1-8.881-7.234 55.4 55.4 0 0 1-7.234-8.868M41.116 25.065c4.992-7.618 7.915-16.177 8.794-24.91A55.6 55.6 0 0 0 25.014 8.95a55.4 55.4 0 0 1 8.868 7.233 55.5 55.5 0 0 1 7.234 8.882"/><path d="M25.014 8.95A55.5 55.5 0 0 0 .117.168 55.5 55.5 0 0 0 8.9 25.065a55.5 55.5 0 0 1 7.234-8.881 55.5 55.5 0 0 1 8.88-7.234M33.882 33.933a55.4 55.4 0 0 1-8.868 7.234c7.605 4.992 16.164 7.915 24.896 8.794-.88-8.732-3.802-17.291-8.794-24.896a55.4 55.4 0 0 1-7.234 8.868"/></g><defs><clipPath id="a"><path fill="#fff" d="M0 0h50v50H0z"/></clipPath></defs></svg>