<svg xmlns="http://www.w3.org/2000/svg" width="50" height="50" fill="none"><g clip-path="url(#a)"><path fill="#fff" d="M12.626.136C5.756.136.175 5.71.175 12.59a12.455 12.455 0 0 0 12.451 12.453c6.879 0 12.452-5.58 12.452-12.452 0-6.88-5.573-12.454-12.452-12.454M25.078 12.59a12.455 12.455 0 0 0 12.451 12.453A12.455 12.455 0 0 0 49.98 12.59C49.98 5.71 44.408.135 37.53.135c-6.871 0-12.452 5.574-12.452 12.454m12.45 12.454c-6.87 0-12.45 5.573-12.45 12.445 0 3.309 1.313 6.47 3.648 8.805a12.42 12.42 0 0 0 8.803 3.649c3.3 0 6.469-1.307 8.803-3.649a12.45 12.45 0 0 0 3.648-8.805c0-6.872-5.572-12.445-12.451-12.445m-12.45 12.445c0-6.872-5.573-12.445-12.452-12.445a12.445 12.445 0 0 0-8.803 21.25 12.42 12.42 0 0 0 8.803 3.649 12.4 12.4 0 0 0 8.804-3.649 12.41 12.41 0 0 0 3.648-8.805"/></g><defs><clipPath id="a"><path fill="#fff" d="M0 0h50v50H0z"/></clipPath></defs></svg>