<svg xmlns="http://www.w3.org/2000/svg" width="50" height="50" fill="none"><g clip-path="url(#a)"><path fill="#fff" d="M.147.175H.04zv9.012c8.85 0 15.922 7.064 15.922 15.89 0 8.835-7.072 15.891-15.922 15.891v9.012c12.962 0 23.69-9.985 24.849-22.63 1.16 12.645 11.887 22.63 24.848 22.63V40.97c-8.85 0-15.929-7.065-15.929-15.891s7.08-15.89 15.93-15.89V.174c-12.962 0-23.697 9.986-24.85 22.63C23.838 10.161 13.11.175.148.175"/></g><defs><clipPath id="a"><path fill="#fff" d="M0 0h50v50H0z"/></clipPath></defs></svg>